<svg id="OBJECTS" xmlns="http://www.w3.org/2000/svg" viewBox="0 0 428.93619 428.55181"><defs><style>.cls-1{fill:#f5eeee;}.cls-2{fill:#393939;}.cls-11,.cls-3{fill:none;stroke-linecap:round;stroke-linejoin:round;}.cls-3{stroke:#2c2b29;}.cls-4{fill:#3a9399;}.cls-5{fill:#fff;}.cls-6{fill:#77c1c5;}.cls-7{fill:#f5b19a;}.cls-8{fill:#d48164;}.cls-9{fill:#2c2b29;}.cls-10{fill:#ac4f91;}.cls-11{stroke:#ac4f91;stroke-width:7px;}</style></defs><path class="cls-1" d="M417.31889,456.396c21.1362-30.3403,23.6903-72.6016,6.3617-105.2665-17.4078-32.8144-51.7658-54.2805-68.3325-87.5276-22.3683-44.8903-7.319-99.9019-21.999-147.86-12.2642-40.0661-47.557-73.162-89.0338-79.1096q-.8994-.12735-1.8009-.2393c-29.9806-3.6709-61.5269,7.9715-82.2286,29.9024-22.52469,23.8622-27.07409,63.2959-14.61469,93.3089,7.637,18.3965,21.557,34.6549,23.74869,54.4526,2.5594,23.1184-11.6982,44.8306-28.23689,61.1854-16.5387,16.3549-36.1567,29.9493-49.3523,49.1035-13.1478,19.0849-18.9632,42.7386-18.1271,65.8989.836,23.1603,8.0772,45.8265,19.0842,66.2212" transform="translate(-33.6383 -35.72409)"/><path class="cls-2" d="M149.2396,462.2827c.8839-28.5947,1.76769-52.3213,2.65159-80.916,68.3136-4.8483,137.6105-7.2573,206.0792-5.7428,4.7984,30.4437,7.9769,56.4108,9.6072,87.1872" transform="translate(-33.6383 -35.72409)"/><path class="cls-3" d="M254.75689,456.6168c.348-8.5042.69611-12.1402,1.04411-20.6444q11.86919-3.16065,23.73829-6.3212" transform="translate(-33.6383 -35.72409)"/><path class="cls-3" d="M152.20459,423.8336a33.76353,33.76353,0,0,0,19.1029-10.5724" transform="translate(-33.6383 -35.72409)"/><path class="cls-3" d="M362.81319,424.32a46.89873,46.89873,0,0,1-23.4181-17.2697" transform="translate(-33.6383 -35.72409)"/><path class="cls-4" d="M228.62829,158.5669c4.8648-2.3362,10.3089-3.2686,15.7086-3.6861a90.03166,90.03166,0,0,1,19.70611.6443c4.56279.6548,9.181,1.7043,13.055,4.1581,3.82349,2.4218,8.36639,8.0032,7.12359,12.9672-.5867,2.3434-3.6653,4.6929-5.49159,6.0765a29.3113,29.3113,0,0,1-7.18341,3.9549,48.68862,48.68862,0,0,1-16.639,2.7974,87.4596,87.4596,0,0,1-17.7448-1.4982,32.4198,32.4198,0,0,1-10.1696-3.3435,14.47087,14.47087,0,0,1-6.8561-7.9568C218.08759,166.0573,223.15639,161.1948,228.62829,158.5669Z" transform="translate(-33.6383 -35.72409)"/><path class="cls-5" d="M278.66059,181.651c1.1809-1.9072,4.9022-11.6021-.6227-10.3072a11.1907,11.1907,0,0,0-3.1822,1.7273c-4.07,2.5365-9.1729,2.5145-13.9676,2.4124-11.3267-.2412-22.8827-.5227-33.555-4.3246-.7105-.2532-1.6188-.4778-2.1238.0825a1.83786,1.83786,0,0,0-.3041,1.3369c.2184,4.8706,1.7431,7.6919,4.6777,11.2614a26.07194,26.07194,0,0,1,5.3194,9.717c1.9306,7.0255.5759,13.7564.2902,20.8492q-3.8979,96.7965-7.7956,193.5929c17.28511.7794,35.2798.7767,52.8418-.0346-2.4585-63.7358-6.7918-127.4461-7.5711-191.2144C273.65709,204.908,271.77479,191.9719,278.66059,181.651Z" transform="translate(-33.6383 -35.72409)"/><path class="cls-3" d="M301.80369,386.0592q1.2129.3219,2.4258.6439c-38.9742,17.3847-83.9827,13.5244-123.8399,1.7587a343.71535,343.71535,0,0,0,89.195-3.288" transform="translate(-33.6383 -35.72409)"/><path class="cls-3" d="M216.52159,271.9993a109.36047,109.36047,0,0,1,81.5068-20.3934,79.98206,79.98206,0,0,1-46.2941,50.2862" transform="translate(-33.6383 -35.72409)"/><path class="cls-6" d="M225.55069,171.9238a24.97551,24.97551,0,0,1,1.967-1.8485c-8.1032-4.4172-17.4118-10.5388-29.4179-18.14-24.7854-8.9566-32.8577,20.5579-33.3294,39.4517A1358.50929,1358.50929,0,0,0,146.6908,395.9778c19.81789,6.5443,52.99289,17.9496,84.62909,19.3761,2.5987-64.531,1.274-136.4171,3.8726-200.9481C240.05439,180.5081,222.87049,186.3883,225.55069,171.9238Z" transform="translate(-33.6383 -35.72409)"/><path class="cls-5" d="M225.91769,207.0426a4.61329,4.61329,0,0,0,1.755,4.5518,2.87265,2.87265,0,0,0,2.81431.4722,3.17276,3.17276,0,0,0,1.39629-1.5314,5.27942,5.27942,0,0,0,.38071-4.0586c-.41971-1.1871-1.94571-2.7675-3.31621-2.7294C227.45569,203.7887,226.18329,205.759,225.91769,207.0426Z" transform="translate(-33.6383 -35.72409)"/><path class="cls-5" d="M224.98579,245.2083a4.61329,4.61329,0,0,0,1.755,4.5518,2.87264,2.87264,0,0,0,2.8143.4722,3.1725,3.1725,0,0,0,1.3962-1.5314,5.279,5.279,0,0,0,.3808-4.0586c-.4197-1.1872-1.9457-2.7675-3.3162-2.7294C226.52379,241.9544,225.25139,243.9246,224.98579,245.2083Z" transform="translate(-33.6383 -35.72409)"/><path class="cls-5" d="M223.87639,280.7294a4.61329,4.61329,0,0,0,1.755,4.5518,2.87264,2.87264,0,0,0,2.8143.4722,3.1728,3.1728,0,0,0,1.39631-1.5314,5.27945,5.27945,0,0,0,.38069-4.0586c-.41969-1.1871-1.94569-2.7675-3.3161-2.7294C225.41439,277.4755,224.142,279.4457,223.87639,280.7294Z" transform="translate(-33.6383 -35.72409)"/><path class="cls-5" d="M222.41059,317.0766a4.61287,4.61287,0,0,0,1.7549,4.5517,2.87292,2.87292,0,0,0,2.8143.4723,3.17313,3.17313,0,0,0,1.3963-1.5314,5.279,5.279,0,0,0,.3808-4.0586c-.4198-1.1872-1.9458-2.7676-3.3162-2.7294C223.94849,313.8227,222.67609,315.7929,222.41059,317.0766Z" transform="translate(-33.6383 -35.72409)"/><path class="cls-5" d="M221.64459,351.5516a4.61323,4.61323,0,0,0,1.755,4.5518,2.87264,2.87264,0,0,0,2.8143.4722,3.17227,3.17227,0,0,0,1.3962-1.5313,5.27924,5.27924,0,0,0,.3808-4.0587c-.4197-1.1871-1.9457-2.7675-3.3162-2.7294C223.18259,348.2977,221.91019,350.268,221.64459,351.5516Z" transform="translate(-33.6383 -35.72409)"/><path class="cls-5" d="M220.26259,386.6315a4.61309,4.61309,0,0,0,1.755,4.5518,2.87256,2.87256,0,0,0,2.8143.4722,3.17206,3.17206,0,0,0,1.3962-1.5314,5.279,5.279,0,0,0,.3808-4.0586c-.4198-1.1872-1.9457-2.7675-3.3162-2.7294C221.80059,383.3776,220.52819,385.3478,220.26259,386.6315Z" transform="translate(-33.6383 -35.72409)"/><path class="cls-3" d="M154.584,396.9734q4.6515-45.0141,9.30289-90.0281" transform="translate(-33.6383 -35.72409)"/><path class="cls-3" d="M223.51649,195.4789c-3.9987,68.275-7.978,143.9125-8.8984,218.2826" transform="translate(-33.6383 -35.72409)"/><path class="cls-6" d="M278.66059,181.651c-6.8858,10.3209-5.0035,23.257-5.993,35.0988.7793,63.7683,4.1225,134.8683,6.581,198.6041,33.8335-1.5629,67.0389-13.5076,89.4193-21.2153-6.8338-62.2468-15.4522-123.6534-25.5166-186.5785-2.021-21.1813-10.0835-64.9409-40.3418-47.3617-8.6541,4.7335-16.03249,8.4739-22.54249,11.295C281.425,174.2499,281.10679,177.7001,278.66059,181.651Z" transform="translate(-33.6383 -35.72409)"/><path class="cls-4" d="M277.93849,213.3799c.0663.5429.2672,1.2019.806,1.2953.5192.0901.9316-.4276,1.1507-.9068.93681-2.0486.7093-4.416.46281-6.6551-.08351-.7579-.24991-1.6405-.93411-1.9771-1.72489-.8487-1.5796,1.4989-1.5467,2.4151C277.94729,209.5043,277.69919,211.4213,277.93849,213.3799Z" transform="translate(-33.6383 -35.72409)"/><path class="cls-4" d="M277.93849,250.0589c.0663.5428.2672,1.2018.806,1.2953.5192.09.9316-.4277,1.1507-.9069.93681-2.0486.7093-4.4159.46281-6.655-.08351-.7579-.24991-1.6405-.93411-1.9771-1.72489-.8487-1.5796,1.4989-1.5467,2.415C277.94729,246.1833,277.69919,248.1002,277.93849,250.0589Z" transform="translate(-33.6383 -35.72409)"/><path class="cls-4" d="M279.37429,279.8238c.137.5295.42271,1.1564.9691,1.1783.5265.0211.8674-.5463,1.0217-1.0501.6597-2.1539.1233-4.4709-.41509-6.6582-.18221-.7404-.46311-1.5935-1.18551-1.8374-1.8214-.6148-1.3692,1.6933-1.2163,2.5973C278.87419,275.9806,278.87989,277.9135,279.37429,279.8238Z" transform="translate(-33.6383 -35.72409)"/><path class="cls-4" d="M280.16019,317.4028c.1124.5353.3687,1.1747.9136,1.2219.5249.0454.8917-.5056,1.06921-1.0017.75859-2.121.33-4.4604-.10651-6.6703-.1477-.748-.3888-1.6132-1.0992-1.8902-1.791-.6985-1.4461,1.6281-1.3352,2.5382C279.83859,313.5406,279.75479,315.4717,280.16019,317.4028Z" transform="translate(-33.6383 -35.72409)"/><path class="cls-4" d="M283.18089,346.7702c-.1406-.5285-.4306-1.1535-.9772-1.1716-.5266-.0175-.8636.5522-1.0144,1.0571-.6449,2.1583-.0927,4.4716.4606,6.6552.1873.7391.474,1.5902,1.19811,1.8291,1.82559.6024,1.35749-1.7026,1.19849-2.6055C283.70729,350.6099,283.68829,348.677,283.18089,346.7702Z" transform="translate(-33.6383 -35.72409)"/><path class="cls-4" d="M286.05319,382.3872c-.1406-.5285-.4305-1.1534-.9771-1.1716-.5266-.0175-.8637.5522-1.0145,1.0571-.6449,2.1583-.0927,4.4716.4606,6.6552.1873.7391.4741,1.5902,1.1981,1.8292,1.8256.6024,1.3576-1.7027,1.1985-2.6055C286.57959,386.2269,286.56069,384.2941,286.05319,382.3872Z" transform="translate(-33.6383 -35.72409)"/><path class="cls-3" d="M360.17469,396.1554a420.02512,420.02512,0,0,1-7.3458-78.4815" transform="translate(-33.6383 -35.72409)"/><path class="cls-3" d="M286.00209,193.9114c-2.906,72.7623.7426,144.8262,7.8921,220.1499" transform="translate(-33.6383 -35.72409)"/><path class="cls-4" d="M228.64449,176.0165c1.9906,6.7931,6.8348,12.8991,7.0304,20.1069-6.28789-6.5076-13.1777,1.9612-17.8812,5.7778-3.61669-5.7634-2.99269-14.4588-2.9673-21.2928-.034-8.2729,5.1653-17.2978,12.6549-20.8924,1.12371-.2223.9648-.0923.7844,1.0976A37.9953,37.9953,0,0,0,228.64449,176.0165Z" transform="translate(-33.6383 -35.72409)"/><path class="cls-4" d="M273.616,194.0517q-.27106,3.27255-.23741,6.5609a12.58756,12.58756,0,0,1,17.6335,2.3037c.1968.2554.4443.5475.7653.5178.2797-.0259.4697-.2877.6142-.5285,5.5388-9.2318,4.8685-20.3-.19159-29.6871-3.24351-6.0169-8.38391-11.3041-14.93851-13.5919.5943.2075-.2982,6.5349-.3129,7.3904-.02259,1.3087.4263,2.6475.4647,3.9742a24.6595,24.6595,0,0,1-.3144,4.4752c-.4596,2.9723-1.3126,5.8674-1.9773,8.8006A70.67508,70.67508,0,0,0,273.616,194.0517Z" transform="translate(-33.6383 -35.72409)"/><path class="cls-7" d="M243.44849,160.5462a16.51529,16.51529,0,0,1-2.9816,8.7315,10.19267,10.19267,0,0,1-3.0868,2.7051,11.75373,11.75373,0,0,1-4.4227,1.1736,31.50676,31.50676,0,0,0,5.0481,10.7557,19.3079,19.3079,0,0,0,9.50451,6.9261c5.34909,1.6389,11.35409.3084,15.97539-2.8448a25.231,25.231,0,0,0,6.2044-6.1509,31.16344,31.16344,0,0,0,2.338-3.8158c.6349-1.2209,1.0264-3.3083,1.83621-4.4008-3.18171.3594-6.49941-.138-8.83051-2.3329a11.22988,11.22988,0,0,1-3.4657-8.6378Z" transform="translate(-33.6383 -35.72409)"/><path class="cls-8" d="M247.28519,176.5957a12.30757,12.30757,0,0,0,10.0812-.4915,14.2047,14.2047,0,0,0,6.7295-7.6292,3.59727,3.59727,0,0,0,.308-1.5243,3.40866,3.40866,0,0,0-1.5774-2.3044,13.42568,13.42568,0,0,0-9.1586-2.1276,21.37226,21.37226,0,0,0-9.9744,3.5482c-1.0434.7008-2.8456,1.6808-2.7838,3.1345a8.14487,8.14487,0,0,0,2.0472,4.1713A11.06567,11.06567,0,0,0,247.28519,176.5957Z" transform="translate(-33.6383 -35.72409)"/><path class="cls-7" d="M224.10189,121.9958c-17.4813,48.8515,48.20611,72.3186,59.6549,21.4445C294.49379,99.3368,239.17569,79.8723,224.10189,121.9958Z" transform="translate(-33.6383 -35.72409)"/><path class="cls-2" d="M228.92229,123.5288a53.48927,53.48927,0,0,1-3.8117,9.4973,1.37032,1.37032,0,0,1-.71859.7734c-.43891.1293-.87151-.1943-1.20891-.5034a19.95229,19.95229,0,0,1-6.1084-9.5106,15.50736,15.50736,0,0,1,1.0338-10.0433,18.36269,18.36269,0,0,1,1.6888-3.8172,6.60732,6.60732,0,0,1,3.1873-2.2772,8.84943,8.84943,0,0,1,6.8915.8502,2.35721,2.35721,0,0,1,.9743.829,2.57225,2.57225,0,0,1,.2058,1.3893A53.61346,53.61346,0,0,1,228.92229,123.5288Z" transform="translate(-33.6383 -35.72409)"/><path class="cls-2" d="M274.11249,118.0923c1.4398,3.4417,3.7932,6.574,7.2078,7.949.7783.3133,1.6916.6147,2.00671,1.3923a2.8012,2.8012,0,0,1-.15921,1.876,69.09327,69.09327,0,0,0-3.0954,15.6616,29.03557,29.03557,0,0,0,5.6869-4.4868,31.38164,31.38164,0,0,0,3.9736-5.71,59.96064,59.96064,0,0,0,3.0269-6.4378c.4359-1.0656.8519-2.1392,1.2605-3.2155.3263-.8598,1.1853-2.2558,1.1853-3.1664,1.6206-4.34,1.9575-9.9971.2031-14.34a15.43039,15.43039,0,0,0-7.9358-7.9199,31.0848,31.0848,0,0,0-10.5774-2.6234,4.07857,4.07857,0,0,0-1.7303.0646c-1.167.3924-1.7155,1.7056-2.045,2.8918a28.528,28.528,0,0,0,.3155,16.224C273.63349,116.8696,273.85879,117.4858,274.11249,118.0923Z" transform="translate(-33.6383 -35.72409)"/><path class="cls-3" d="M285.85049,100.2144a18.23747,18.23747,0,0,0,7.3961,23.5321" transform="translate(-33.6383 -35.72409)"/><path class="cls-2" d="M221.70229,116.5836c13.3459,8.8561,24.9581-9.7194,39.1619-5.4742,3.1875.572,6.2234,1.8217,9.4114,2.3931,16.8653,3.133,14.561-18.2398,3.0642-23.6397-6.7645-3.6467-14.6714-2.3147-22.0787-3.3289-5.3869-1.1702-9.7866-4.8974-14.1704-8.2395C206.75539,54.5891,197.46969,101.1419,221.70229,116.5836Z" transform="translate(-33.6383 -35.72409)"/><path class="cls-3" d="M218.94829,114.4619a11.51271,11.51271,0,0,0,10.0452,3.9968" transform="translate(-33.6383 -35.72409)"/><path class="cls-3" d="M280.62119,97.8381c-.9366,6.2182-3.2929,10.6197-7.2967,15.4687" transform="translate(-33.6383 -35.72409)"/><path class="cls-3" d="M276.11129,108.7257c-2.8002-3.832-7.7368-5.6367-12.4815-5.7514-4.74479-.1147-9.3909,1.2338-13.9279,2.627s-9.1297,2.8569-13.8741,2.9831a23.84909,23.84909,0,0,1-20.4611-10.5595c-4.31669-6.7649-4.4375-16.104.0891-22.7303" transform="translate(-33.6383 -35.72409)"/><path class="cls-3" d="M225.04829,72.9702a18.03421,18.03421,0,0,0,6.0889,14.6009,25.54672,25.54672,0,0,0,14.90181,6.127c4.062.3651,8.14789-.0431,12.22429-.1729,4.0764-.1299,8.2502.0364,12.06271,1.4851,3.81249,1.4488,7.24789,4.3677,8.43829,8.2685" transform="translate(-33.6383 -35.72409)"/><path class="cls-9" d="M245.62859,128.4479c-.4798,2.0796-1.2257,4.7812-3.9674,4.4672-2.9607-.3389-2.2883-3.6221-2.0305-5.61q2.88-.04155,5.7599-.0832a.49513.49513,0,0,1,.2895.0553c.1622.1104.1363.3529.092.5441C245.72579,128.0206,245.67869,128.2309,245.62859,128.4479Z" transform="translate(-33.6383 -35.72409)"/><path class="cls-9" d="M265.029,133.0522c-.62671,1.8766-1.34391,4.3737.97609,5.4519,2.5051,1.1643,3.56191-1.7571,4.3197-3.4538l-4.5144-2.8524a.45924.45924,0,0,0-.2557-.0964c-.18169.0088-.2785.2131-.336.3857C265.15879,132.6673,265.09439,132.8564,265.029,133.0522Z" transform="translate(-33.6383 -35.72409)"/><path class="cls-8" d="M225.48529,147.0277a8.75356,8.75356,0,0,0,2.57,5.3189,2.5033,2.5033,0,0,0,4.5835-1.3684,8.47031,8.47031,0,0,0-1.5057-7.3007c-.8196-1.0408-2.868-2.611-4.2909-1.7931C225.41319,142.7059,225.34159,145.6303,225.48529,147.0277Z" transform="translate(-33.6383 -35.72409)"/><path class="cls-8" d="M268.66149,153.3884a8.7535,8.7535,0,0,0-2.907,5.1424,2.5033,2.5033,0,0,0,3.7359,2.9873,8.47061,8.47061,0,0,0,5.1421-5.3969c.3884-1.2665.5118-3.8446-.971-4.5479C272.17219,150.8668,269.728,152.4742,268.66149,153.3884Z" transform="translate(-33.6383 -35.72409)"/><path class="cls-3" d="M247.63369,140.2972a7.64941,7.64941,0,0,1,1.6638-5.1235,6.16614,6.16614,0,0,1,4.8152-2.2634,5.1769,5.1769,0,0,1,4.44631,2.7734c.89049,1.8235.51419,3.9826.11859,5.973" transform="translate(-33.6383 -35.72409)"/><path class="cls-3" d="M241.93209,149.4904a25.86761,25.86761,0,0,1,17.3358,4.4452" transform="translate(-33.6383 -35.72409)"/><path class="cls-7" d="M284.94309,154.1046c-4.3177-.1062-6.951-4.4561-6.5807-8.4324a11.62592,11.62592,0,0,1,3.0148-6.5274,9.49585,9.49585,0,0,1,4.827-3.1037c3.4651-.792,6.3839,1.5471,7.4231,4.7377a10.71543,10.71543,0,0,1-3.9886,11.7993A8.05074,8.05074,0,0,1,284.94309,154.1046Z" transform="translate(-33.6383 -35.72409)"/><path class="cls-8" d="M290.22479,144.6597a6.20477,6.20477,0,0,1-3.8925,5.2149,2.88236,2.88236,0,0,1-1.4742.2174,1.42418,1.42418,0,0,1-1.1363-.8765,1.59134,1.59134,0,0,1,.5946-1.6304,7.60585,7.60585,0,0,1,1.6063-.8921,2.65223,2.65223,0,0,0,1.3368-1.2118c.7109-1.6659-1.718-3.346-.6997-4.8406,1.1121-1.6323,2.5659-.1253,3.111,1.0574A6.04,6.04,0,0,1,290.22479,144.6597Z" transform="translate(-33.6383 -35.72409)"/><path class="cls-7" d="M217.97649,141.5749c4.1132,1.3173,8.0288-1.927,8.9844-5.8044a11.62564,11.62564,0,0,0-.7047-7.1553,9.49572,9.49572,0,0,0-3.5404-4.5164c-3.013-1.8858-6.538-.6347-8.5671,2.0379a10.71535,10.71535,0,0,0-.1064,12.4548A8.051,8.051,0,0,0,217.97649,141.5749Z" transform="translate(-33.6383 -35.72409)"/><path class="cls-8" d="M216.08839,130.9196a6.2048,6.2048,0,0,0,1.9647,6.2038,2.88129,2.88129,0,0,0,1.3211.6893,1.42412,1.42412,0,0,0,1.3611-.4549,1.5914,1.5914,0,0,0-.0264-1.7352,7.60732,7.60732,0,0,0-1.2244-1.37,2.652,2.652,0,0,1-.8648-1.5835c-.1246-1.807,2.72131-2.5965,2.2501-4.3426-.5145-1.9069-2.3825-.9608-3.2857-.0226A6.03965,6.03965,0,0,0,216.08839,130.9196Z" transform="translate(-33.6383 -35.72409)"/><path class="cls-6" d="M135.5498,191.7371c-3.5877,20.0332-5.6158,41.2471-1.1808,61.18a83.65768,83.65768,0,0,0-29.9112-15.0279c3.7164,6.9166-1.993,14.1329-4.0131,20.6921-12.8549,97.1259,105.81059,112.1351,96.32139-7.6543-2.6565-33.5361,30.62891-82.1785,1.3337-98.9917C159.85109,129.9834,143.4439,153.6208,135.5498,191.7371Z" transform="translate(-33.6383 -35.72409)"/><path class="cls-3" d="M148.2661,159.314c6.27009-6.0795,16.05859-7.3634,24.52909-5.2363s15.887,7.1746,22.8237,12.4809c6.9367,5.3062,10.6745,9.445,18.5349,13.2513" transform="translate(-33.6383 -35.72409)"/><path class="cls-3" d="M134.7716,252.8115a86.68162,86.68162,0,0,1,40.89009,34.5696" transform="translate(-33.6383 -35.72409)"/><path class="cls-3" d="M149.3258,335.6177c59.81369,2.5184,47.80009-104.9098,44.41269-146.5151" transform="translate(-33.6383 -35.72409)"/><path class="cls-3" d="M114.8285,271.212a104.09662,104.09662,0,0,0,55.16339,56.9698" transform="translate(-33.6383 -35.72409)"/><path class="cls-4" d="M120.5386,241.786c9.8819,4.9328,11.7854,11.6349,7.1003,21.4157-4.5838,11.451-16.6118,19.4767-28.9782,16.0338C95.9872,263.6188,94.9865,226.6506,120.5386,241.786Z" transform="translate(-33.6383 -35.72409)"/><path class="cls-7" d="M114.8354,262.8655a13.63124,13.63124,0,0,1-2.2594.6538c-3.3404.6529-6.7065.9362-10.073,1.4114a57.5151,57.5151,0,0,0-16.6179,4.9944c-1.2247.5821-2.7916,1.1735-3.8196.2891-1.0985-.945-.6064-2.7144-.0277-4.0429a8.69239,8.69239,0,0,1-2.7997,1.5511,2.6255,2.6255,0,0,1-3.1767-3.8779,8.69631,8.69631,0,0,1,2.1678-2.5312,1.91015,1.91015,0,0,1-2.7893.2369,2.70557,2.70557,0,0,1-.5345-2.9498,4.7699,4.7699,0,0,1,2.161-2.2623,1.74233,1.74233,0,0,1-2.525-.8097,2.817,2.817,0,0,1,1.4305-3.4017q2.13435-1.206,4.3454-2.2689a74.37537,74.37537,0,0,1,9.0919-3.6544q2.8425-.93,5.7539-1.6287c-.0956.0229-.5638-.2942-.6859-.339a3.76959,3.76959,0,0,0-.9111-.2093,3.98591,3.98591,0,0,0-1.8383.2593,12.8061,12.8061,0,0,1-3.8861.6925,7.92615,7.92615,0,0,1-4.2068-.8875,1.75937,1.75937,0,0,1-1.0508-1.3346,1.45641,1.45641,0,0,1,.9196-1.2461,8.70407,8.70407,0,0,1,1.5782-.4291c2.7553-.7077,4.5434-3.3435,7.0215-4.7406,2.3448-1.3219,5.164-1.4566,7.8538-1.3558,4.7854.1791,9.8457.7972,14.2314,2.7881a10.74671,10.74671,0,0,1,3.5492,2.4758,8.67308,8.67308,0,0,1,1.6987,3.5423c.4494,1.3933.6243,2.8741,1.1985,4.2208a43.21213,43.21213,0,0,1,1.941,3.8749c.7941,2.5472-.3453,5.3801-2.1916,7.3062A15.45872,15.45872,0,0,1,114.8354,262.8655Z" transform="translate(-33.6383 -35.72409)"/><path class="cls-3" d="M82.0126,266.1748c5.6403-3.7177,12.207-6.0093,18.6503-7.7985" transform="translate(-33.6383 -35.72409)"/><path class="cls-3" d="M77.4536,262.0151c7.054-4.2879,12.4016-7.0327,20.5455-8.3827" transform="translate(-33.6383 -35.72409)"/><path class="cls-3" d="M76.462,256.3674a52.39831,52.39831,0,0,1,20.1138-6.9124" transform="translate(-33.6383 -35.72409)"/><path class="cls-3" d="M93.4668,243.7465a34.80829,34.80829,0,0,1,8.7812,2.2355,56.694,56.694,0,0,0,5.6318,2.1481,9.75951,9.75951,0,0,0,5.9334-.0011" transform="translate(-33.6383 -35.72409)"/><path class="cls-3" d="M96.2762,248.1182a26.87416,26.87416,0,0,0,5.7737,12.0619" transform="translate(-33.6383 -35.72409)"/><path class="cls-6" d="M361.72429,167.4912c14.3111,27.7483,15.3131,61.1527,14.766,91.5301,10.7145-5.6741,16.0445-9.2466,25.4608-11.0647,5.155.4478,8.42691,9.5217,12.2934,12.8997-.6151,7.1623-4.7344,17.6211-6.7104,24.8768-8.6617,26.6829-28.496,69.9392-63.3188,55.7246-8.5479-4.4751-18.9275-9.4244-22.6617-18.8584-14.911-31.7708-8.0137-67.7351-7.67059-101.5381.31219-21.6161-24.491-52.4812-5.82911-63.3938C329.766,144.9712,348.81419,140.2122,361.72429,167.4912Z" transform="translate(-33.6383 -35.72409)"/><path class="cls-4" d="M381.417,256.1337a22.52449,22.52449,0,0,0-5.12371,16.812,24.93273,24.93273,0,0,0,8.1049,15.6983,27.9376,27.9376,0,0,0,16.3353,6.9434,7.63176,7.63176,0,0,0,4.59151-.7031,7.86816,7.86816,0,0,0,2.44119-2.7396,40.55831,40.55831,0,0,0,4.6053-31.5819,17.2927,17.2927,0,0,0-3.2421-6.799c-1.9217-2.2459-4.4231-2.9123-7.139-3.7386-1.8702-.569-3.6422-1.3295-5.6317-1.2755a20.2837,20.2837,0,0,0-7.7448,1.9778A21.23306,21.23306,0,0,0,381.417,256.1337Z" transform="translate(-33.6383 -35.72409)"/><path class="cls-3" d="M376.49,259.0214c-18.58231,8.3691-31.88531,19.845-42.80741,36.8238" transform="translate(-33.6383 -35.72409)"/><path class="cls-3" d="M314.40679,201.714c1.1456,43.546-21.3831,147.4435,48.0548,142.1295" transform="translate(-33.6383 -35.72409)"/><path class="cls-3" d="M295.27059,177.6376c11.6832-5.543,16.2291-7.6998,27.9123-13.2428,5.3748-2.5501,10.8225-5.1244,16.666-6.2395,5.8436-1.1151,12.2244-.627,17.2175,2.6072" transform="translate(-33.6383 -35.72409)"/><path class="cls-3" d="M388.04869,291.8656a176.76353,176.76353,0,0,1-43.4695,48.1109" transform="translate(-33.6383 -35.72409)"/><path class="cls-7" d="M390.53429,272.9651a13.64212,13.64212,0,0,0,2.1086,1.0422c3.1728,1.2321,6.43611,2.1048,9.6659,3.1665a57.51147,57.51147,0,0,1,15.476,7.8482c1.1028.789,2.5408,1.6476,3.7086.9585,1.2481-.7364,1.0759-2.5648.74061-3.9746a8.69173,8.69173,0,0,0,2.48219,2.0207,2.62542,2.62542,0,0,0,3.811-3.2565,8.6953,8.6953,0,0,0-1.6871-2.874,1.91022,1.91022,0,0,0,2.7038.7254,2.70572,2.70572,0,0,0,1.0465-2.8093,4.77069,4.77069,0,0,0-1.7279-2.6081,1.74229,1.74229,0,0,0,2.6282-.3514,2.80139,2.80139,0,0,0-.1306-2.9086,7.77681,7.77681,0,0,0-2.1946-2.118,91.08624,91.08624,0,0,0-7.6241-4.9941,52.34853,52.34853,0,0,0-6.7842-3.6908c3.0615-.5544,5.6923.9524,8.6957,1.4235a2.38243,2.38243,0,0,0,2.0627-.3454,1.6034,1.6034,0,0,0,.3232-1.5797,3.72715,3.72715,0,0,0-.8997-1.4174,23.04359,23.04359,0,0,0-5.527-4.0401,40.75752,40.75752,0,0,0-10.3563-4.7942,41.87014,41.87014,0,0,0-7.5851-.9637,18.763,18.763,0,0,0-6.9815.4193c-2.951.9494-3.7975,3.0545-5.11819,5.5342-.68821,1.2922-1.12161,2.7189-1.92441,3.9431a43.24192,43.24192,0,0,0-2.5943,3.4717c-1.2311,2.3671-.6094,5.3566.8681,7.5783A15.4603,15.4603,0,0,0,390.53429,272.9651Z" transform="translate(-33.6383 -35.72409)"/><path class="cls-3" d="M414.72059,258.8898c-2.6564.3948-5.11159-2.0709-7.7709-1.6962a9.373,9.373,0,0,0-3.1146,1.3695,13.09513,13.09513,0,0,1-8.3715,1.7715,3.242,3.242,0,0,1-2.2589-1.1855" transform="translate(-33.6383 -35.72409)"/><path class="cls-3" d="M407.00139,273.1172a33.35424,33.35424,0,0,1,9.5964-10.3699" transform="translate(-33.6383 -35.72409)"/><path class="cls-3" d="M415.57209,264.0354a57.2704,57.2704,0,0,1,13.8613,9.8159" transform="translate(-33.6383 -35.72409)"/><path class="cls-3" d="M412.16179,266.8154q2.3571,1.62885,4.7143,3.2576c3.8574,2.6655,7.7835,5.3957,10.615,9.1329" transform="translate(-33.6383 -35.72409)"/><path class="cls-3" d="M422.09089,282.1478a27.78716,27.78716,0,0,0-3.2681-3.3446,54.46352,54.46352,0,0,0-10.6381-6.6696" transform="translate(-33.6383 -35.72409)"/><rect class="cls-10" y="419.42791" width="428.93619" height="9.1239"/><path class="cls-11" d="M104.0497,150.0956q-1.4799,7.95315-2.9599,15.9064c-9.5179-4.7357-21.9199-.956-28.5759,7.3334-5.5646,6.9302-7.4481,16.8583-4.1046,25.0932s12.0969,14.1642,20.9604,13.5086,16.878-8.3395,17.2449-17.2197" transform="translate(-33.6383 -35.72409)"/><path class="cls-11" d="M105.5163,137.5067l.037-.2526" transform="translate(-33.6383 -35.72409)"/><path class="cls-11" d="M414.73819,207.6571q-1.4142-7.9653-2.8284-15.9304c10.5757,1.0825,20.8536-6.8207,24.1659-16.9225,2.7692-8.4453,1.0376-18.401-4.9905-24.9321-6.028-6.531-16.3083-8.9998-24.3739-5.2663-8.0655,3.7335-12.8625,13.7466-10.0802,22.1876" transform="translate(-33.6383 -35.72409)"/><path class="cls-11" d="M417.79649,219.9565l.0543.2495" transform="translate(-33.6383 -35.72409)"/></svg>