<svg id="OBJECTS" xmlns="http://www.w3.org/2000/svg" viewBox="0 0 142.00368 201.52188"><defs><style>.cls-1{fill:#58556c;}.cls-1,.cls-10,.cls-11,.cls-12,.cls-2,.cls-3,.cls-4,.cls-5,.cls-6,.cls-7,.cls-8,.cls-9{fill-rule:evenodd;}.cls-2{fill:#e4ae7c;}.cls-3{fill:#d67f54;}.cls-4{fill:#20201e;}.cls-5{fill:#da9077;}.cls-6{fill:#3f2716;}.cls-7{fill:#35253d;}.cls-8{fill:#2e1e11;}.cls-9{fill:#fff;}.cls-10{fill:#67627e;}.cls-11{fill:#383546;}.cls-12{fill:#432d4c;}</style></defs><path class="cls-1" d="M162.6367,468.8574H91.6523c-.8212-36.2969,27.10649-57.3691,51.0865-65.2324,1.9453-10.127,1.4482-23.2617,1.4482-23.2617h36.8994s-.497,13.1347,1.4488,23.2617c23.9794,7.8633,51.9067,28.9355,51.0854,65.2324Z" transform="translate(-91.63461 -268.07773)"/><path class="cls-2" d="M123.5625,351.252c-.17236-1.8985-7.93555-4.1407-10.5234,2.0693-2.587,6.21,2.07076,15.0078,10.86813,15.6982,8.79687.6905,6.21-.8623,6.21-.8623Z" transform="translate(-91.63461 -268.07773)"/><path class="cls-2" d="M201.8979,351.252c.1724-1.8985,7.9351-4.1407,10.5225,2.0693s-2.0698,15.0078-10.8672,15.6982c-8.7978.6905-6.2109-.8623-6.2109-.8623Z" transform="translate(-91.63461 -268.07773)"/><path class="cls-3" d="M181.3135,393.3877c-7.9873,15.2793-28.5596,16.873-37.3931.5879.2319-3.3301.3071-6.4658.3208-8.8858h36.7905C181.0439,387.3672,181.1123,390.2773,181.3135,393.3877Z" transform="translate(-91.63461 -268.07773)"/><path class="cls-2" d="M162.6367,393.0781c-45.77342,1.1006-68.8843-111.7763,0-108.8847C231.5205,281.3018,208.4097,394.1787,162.6367,393.0781Z" transform="translate(-91.63461 -268.07773)"/><path class="cls-4" d="M147.2583,340.6865a4.10065,4.10065,0,1,1-5.7334.9199A4.09273,4.09273,0,0,1,147.2583,340.6865Z" transform="translate(-91.63461 -268.07773)"/><path class="cls-4" d="M178.2705,340.6865a4.10065,4.10065,0,1,0,5.7334.9199A4.0905,4.0905,0,0,0,178.2705,340.6865Z" transform="translate(-91.63461 -268.07773)"/><path class="cls-5" d="M142.2017,355.5684c2.3364,1.7939,2.4389,4.4209.2285,5.8671-2.21,1.4463-5.896,1.1651-8.23293-.6289-2.33594-1.7929-2.438-4.4199-.22754-5.8662C136.1797,353.4941,139.8657,353.7754,142.2017,355.5684Z" transform="translate(-91.63461 -268.07773)"/><path class="cls-5" d="M183.3262,355.5684c-2.336,1.7939-2.438,4.4209-.2276,5.8671,2.21,1.4463,5.896,1.1651,8.2325-.6289,2.3359-1.7929,2.4384-4.4199.228-5.8662C189.3491,353.4941,185.6631,353.7754,183.3262,355.5684Z" transform="translate(-91.63461 -268.07773)"/><path class="cls-6" d="M149.0503,329.5547c-.1519-.0674-.3052-.1289-.4609-.1895a11.832,11.832,0,0,0-5.2378-.6797,11.60107,11.60107,0,0,0-4.8916,1.5333c-.7403.4765-3.63041,2.8164-2.8111,3.6796.3345.0918,3.2129-1.3789,4.0591-1.6533a11.46742,11.46742,0,0,1,3.7754-.5078,10.13306,10.13306,0,0,1,3.4609.7041c.0323.0059.2461.1025.292.1221,2.4141,1.1738,2.1953,1.9287,3.8423.7988C153.6143,332.0137,151.0044,330.5693,149.0503,329.5547Z" transform="translate(-91.63461 -268.07773)"/><path class="cls-6" d="M176.2227,329.5547c.1528-.0674.3051-.1289.4609-.1895a11.83436,11.83436,0,0,1,5.2388-.6797,11.60561,11.60561,0,0,1,4.8911,1.5333c.7397.4765,3.6299,2.8164,2.8105,3.6796-.334.0918-3.2129-1.3789-4.0581-1.6533a11.4767,11.4767,0,0,0-3.7763-.5078,10.13517,10.13517,0,0,0-3.4605.7041c-.0327.0059-.2461.1025-.292.1221-2.4145,1.1738-2.1958,1.9287-3.8428.7988C171.6592,332.0137,174.269,330.5693,176.2227,329.5547Z" transform="translate(-91.63461 -268.07773)"/><path class="cls-3" d="M160.4849,378.0723a.4942.4942,0,0,1,.5-.8526,4.87452,4.87452,0,0,0,2.4223.5996,4.66137,4.66137,0,0,0,2.377-.5957.49423.49423,0,1,1,.5117.8457,5.64946,5.64946,0,0,1-2.8887.7422A5.86088,5.86088,0,0,1,160.4849,378.0723Z" transform="translate(-91.63461 -268.07773)"/><path class="cls-3" d="M162.2622,360.1133a.4961.4961,0,0,1,0-.9922,24.12662,24.12662,0,0,0,3.7134-.1973c.9043-.1533,1.5683-.3984,1.5683-.8095,0-1.4278-1.4462-10.3028-1.4506-10.3282a.49487.49487,0,0,1,.9775-.1552c.0039.0263,1.4653,8.9941,1.4653,10.4834,0,1.0449-1.0161,1.5517-2.3974,1.7861A24.76925,24.76925,0,0,1,162.2622,360.1133Z" transform="translate(-91.63461 -268.07773)"/><path class="cls-3" d="M209.606,358.2236a.49635.49635,0,0,1-.9927,0,4.81861,4.81861,0,0,0-.6797-2.9707,1.18275,1.18275,0,0,0-.9229-.4599,2.7098,2.7098,0,0,0-1.3515.416,8.92228,8.92228,0,0,0-3.3955,4.0058,18.6447,18.6447,0,0,0-.8457,2.3018,3.51965,3.51965,0,0,1,2.3115-.6699,2.19722,2.19722,0,0,1,1.0693.3857,1.75523,1.75523,0,0,1,.667.9356,3.25246,3.25246,0,0,1-.6845,2.6855.49486.49486,0,1,1-.8223-.5508,2.35337,2.35337,0,0,0,.5566-1.8515.77284.77284,0,0,0-.2944-.416,1.21674,1.21674,0,0,0-.5884-.2041,2.72838,2.72838,0,0,0-2.1157.8906,1.0624,1.0624,0,0,1-.5049.3164.54123.54123,0,0,1-.7158-.4795l-.0054-.0264a1.70237,1.70237,0,0,1,.0137-.5791,15.46787,15.46787,0,0,1,1.0517-3.1338,9.98014,9.98014,0,0,1,3.8145-4.4716,3.68111,3.68111,0,0,1,1.8589-.544,2.13794,2.13794,0,0,1,1.6714.8252A5.68422,5.68422,0,0,1,209.606,358.2236Z" transform="translate(-91.63461 -268.07773)"/><path class="cls-3" d="M116.65967,358.2236a.49585.49585,0,1,1-.9917,0,5.68489,5.68489,0,0,1,.90381-3.5947,2.14,2.14,0,0,1,1.67138-.8252,3.6801,3.6801,0,0,1,1.85938.544,9.97857,9.97857,0,0,1,3.814,4.4716,15.46744,15.46744,0,0,1,1.05176,3.1338,1.73217,1.73217,0,0,1,.01465.5791l-.00635.0264a.54156.54156,0,0,1-.71582.4795,1.06022,1.06022,0,0,1-.5039-.3164,2.73,2.73,0,0,0-2.11622-.8906,1.21674,1.21674,0,0,0-.58886.2041.77585.77585,0,0,0-.29444.416,2.35344,2.35344,0,0,0,.55664,1.8515.49485.49485,0,1,1-.82226.5508,3.24919,3.24919,0,0,1-.68359-2.6855,1.75373,1.75373,0,0,1,.666-.9356,2.20109,2.20109,0,0,1,1.06934-.3857,3.51828,3.51828,0,0,1,2.31152.6699,18.57472,18.57472,0,0,0-.8457-2.3018,8.91985,8.91985,0,0,0-3.39551-4.0058,2.71,2.71,0,0,0-1.35156-.416,1.18412,1.18412,0,0,0-.92285.4599A4.82169,4.82169,0,0,0,116.65967,358.2236Z" transform="translate(-91.63461 -268.07773)"/><path class="cls-7" d="M213.2886,293.5859c1.9072.3653,1.6577,1.9317-3.9063,5.8594,5.1421,6.4795,5.9326,16.7735,4.1763,26.4307-.375,2.0615-6.1782,16.6758-11.6455,26.25-.5073.8886-.1685-18.9834-5.9087-26.9209-2.9131-4.0274-5.3135-8.8008-11.2456-12.7793-.0601,1.1299,3.4643,4.2138,2.1489,4.834-5.0307,2.3711-19.1977-.0782-25.7417-1.7373,1.8828,1.9394,3.8047,3.3457,3.0835,4.0537-2.2524,2.2119-16.4961-1.2412-25.2944-7.1465-2.1319,7.0351-5.14211,14.5049-8.52395,16.4951-9.05176,5.3262-5.106,27.8184-7.48144,24.5127-10.89791-15.1582-8.15041-34.7861-8.15041-34.7861a50.43727,50.43727,0,0,0-3.0898,4.8476c-1.503,3.128-2.5318-25.6416,11.14353-29.373,0,0-2.15723-.7451-7.70606.2949-2.03617.3828,4.00293-5.2314,10.51612-5.96.187-2.833,1.45214-14.2041,9.76711-17.873,3.8569-1.7022,10.1767-2.8584,9.3745-2.3721a12.06577,12.06577,0,0,0-5.103,5.7403c30.4267-14.3536,44.268.9052,56.1933,10.4697C199.5005,287.3184,207.1338,293.1045,213.2886,293.5859Z" transform="translate(-91.63461 -268.07773)"/><path class="cls-8" d="M143.8232,331.1982a14.67137,14.67137,0,1,1-10.373,4.2979,14.61877,14.61877,0,0,1,10.373-4.2979Zm8.6182,6.0518a12.1878,12.1878,0,1,0,3.5698,8.6182A12.14873,12.14873,0,0,0,152.4414,337.25Z" transform="translate(-91.63461 -268.07773)"/><path class="cls-8" d="M181.4502,331.1982a14.67207,14.67207,0,1,1-10.3726,4.2979,14.62258,14.62258,0,0,1,10.3726-4.2979Zm8.6182,6.0518a12.1878,12.1878,0,1,0,3.5698,8.6182A12.14891,12.14891,0,0,0,190.0684,337.25Z" transform="translate(-91.63461 -268.07773)"/><path class="cls-8" d="M129.95605,344.668a.98852.98852,0,1,1,.66651,1.8613l-8.73682,3.1475a.989.989,0,0,1-.6665-1.8623Z" transform="translate(-91.63461 -268.07773)"/><path class="cls-8" d="M194.688,346.5293a.98852.98852,0,0,1,.6665-1.8613l8.7373,3.1465a.98907.98907,0,0,1-.667,1.8623Z" transform="translate(-91.63461 -268.07773)"/><path class="cls-8" d="M157.4673,344.7266a.99008.99008,0,0,1-1.6904-1.0313c.0044-.0078,1.6826-2.8555,6.8598-2.8555,5.1773,0,6.855,2.8477,6.8599,2.8555a.99029.99029,0,0,1-1.6909,1.0313c-.0025-.0059-1.1138-1.9014-5.169-1.9014C158.5811,342.8252,157.4697,344.7207,157.4673,344.7266Z" transform="translate(-91.63461 -268.07773)"/><path class="cls-9" d="M178.1621,364.8125c-6.2324,2.3135-25.1714,2.2666-31.0513.2793C150.3599,376.9297,175.0029,376.7422,178.1621,364.8125Z" transform="translate(-91.63461 -268.07773)"/><path class="cls-10" d="M143.5259,391.3086c-.5069-.2178-1.8091-.1992-1.8076.7178.0019.9922.9296,4.4062.2646,6.9277-.7016,2.6631-1.8813,4.8516-.5225,5.3799a59.82817,59.82817,0,0,0,42.3125,0c1.3594-.5283.1792-2.7168-.5224-5.3799-.6651-2.5215.2632-5.9355.2651-6.9277.0015-.917-1.3008-.9356-1.8081-.7178A48.43146,48.43146,0,0,1,143.5259,391.3086Z" transform="translate(-91.63461 -268.07773)"/><path class="cls-11" d="M110.873,448.3135a.74172.74172,0,1,1,1.4834.0117l-.1826,20.5381a.74172.74172,0,1,1-1.4834-.0108Z" transform="translate(-91.63461 -268.07773)"/><path class="cls-11" d="M213.0996,448.3135a.74147.74147,0,1,1,1.4829.0117l-.1826,20.5381a.74172.74172,0,1,1-1.4834-.0108Z" transform="translate(-91.63461 -268.07773)"/><path class="cls-1" d="M145.0898,393.6289a.4944.4944,0,0,1,.9883.0313c-.0219.6757-.0288,1.3105-.0361,1.9511-.0147,1.3116-.0298,2.6446-.1611,4.211a11.13543,11.13543,0,0,1-1.544,4.5576.494.494,0,1,1-.833-.5313,10.04046,10.04046,0,0,0,1.3892-4.1074c.1313-1.5791.1455-2.8682.1606-4.1377C145.0605,394.9453,145.0688,394.292,145.0898,393.6289Z" transform="translate(-91.63461 -268.07773)"/><path class="cls-1" d="M149.1602,395.0732a.49435.49435,0,1,1,.9882.0313c-.0219.6758-.0288,1.3105-.0361,1.9512-.0146,1.3115-.0298,2.6445-.1606,4.2109a11.13854,11.13854,0,0,1-1.5445,4.5576.494.494,0,1,1-.833-.5312,10.04913,10.04913,0,0,0,1.3892-4.1075c.1313-1.5791.1455-2.8681.1606-4.1376C149.1309,396.3896,149.1392,395.7363,149.1602,395.0732Z" transform="translate(-91.63461 -268.07773)"/><path class="cls-1" d="M153.4277,395.8613a.49413.49413,0,0,1,.9878.0303c-.0215.6758-.0283,1.3115-.0361,1.9512-.0142,1.3115-.0293,2.6445-.1606,4.2119a11.14259,11.14259,0,0,1-1.544,4.5576.49374.49374,0,1,1-.833-.5303,10.06834,10.06834,0,0,0,1.3887-4.1093c.1313-1.5782.146-2.8682.1606-4.1368C153.3979,397.1777,153.4063,396.5244,153.4277,395.8613Z" transform="translate(-91.63461 -268.07773)"/><path class="cls-1" d="M157.8262,396.6494a.49438.49438,0,1,1,.9883.0303c-.022.6758-.0289,1.3115-.0362,1.9512-.0146,1.3115-.0298,2.6445-.1611,4.2109a11.14144,11.14144,0,0,1-1.544,4.5586.494.494,0,0,1-.833-.5313,10.04667,10.04667,0,0,0,1.3892-4.1084c.1313-1.5781.1455-2.8681.1606-4.1377C157.7969,397.9658,157.8052,397.3125,157.8262,396.6494Z" transform="translate(-91.63461 -268.07773)"/><path class="cls-1" d="M178.6807,393.6602a.4946.4946,0,0,1,.9887-.0313c.022.6631.0288,1.3164.0367,1.9746.0141,1.2695.0293,2.5586.1606,4.1377a10.02725,10.02725,0,0,0,1.3887,4.1074.49422.49422,0,1,1-.8335.5313,11.14038,11.14038,0,0,1-1.5445-4.5576c-.1298-1.5664-.1455-2.8994-.1596-4.211C178.71,394.9707,178.7026,394.3359,178.6807,393.6602Z" transform="translate(-91.63461 -268.07773)"/><path class="cls-1" d="M174.6104,395.1045a.4946.4946,0,0,1,.9887-.0313c.022.6631.0288,1.3164.0362,1.9747.0146,1.2695.0297,2.5585.1606,4.1376a10.03918,10.03918,0,0,0,1.3892,4.1075.49419.49419,0,1,1-.8335.5312,11.14516,11.14516,0,0,1-1.5445-4.5576c-.1303-1.5664-.1455-2.8994-.1596-4.2109C174.6396,396.415,174.6323,395.7803,174.6104,395.1045Z" transform="translate(-91.63461 -268.07773)"/><path class="cls-1" d="M170.3428,395.8916a.49483.49483,0,0,1,.9892-.0303c.0215.6631.0284,1.3164.0362,1.9746.0141,1.2686.0293,2.5586.1606,4.1368a10.0467,10.0467,0,0,0,1.3892,4.1093.49416.49416,0,0,1-.834.5303,11.15087,11.15087,0,0,1-1.544-4.5576c-.1298-1.5674-.145-2.9004-.1601-4.2119C170.3726,397.2031,170.3647,396.5674,170.3428,395.8916Z" transform="translate(-91.63461 -268.07773)"/><path class="cls-1" d="M165.9443,396.6797a.49463.49463,0,1,1,.9888-.0303c.022.6631.0288,1.3164.0366,1.9736.0142,1.2696.0293,2.5596.1607,4.1377a10.03577,10.03577,0,0,0,1.3886,4.1084.49422.49422,0,0,1-.8335.5313,11.15535,11.15535,0,0,1-1.5444-4.5586c-.1299-1.5664-.1455-2.8994-.1597-4.2109C165.9736,397.9912,165.9663,397.3555,165.9443,396.6797Z" transform="translate(-91.63461 -268.07773)"/><path class="cls-1" d="M161.9395,396.665a.4946.4946,0,1,1,.9892,0l.0215,10.4698a.4939.4939,0,1,1-.9878,0Z" transform="translate(-91.63461 -268.07773)"/><path class="cls-12" d="M135.5293,289.7549a.49549.49549,0,0,1,.8726-.4697c2.7265,5.0556,8.3906,9.5029,14.9199,13.0459a79.59822,79.59822,0,0,0,24.8901,8.4951.49484.49484,0,1,1-.1352.9804,80.6308,80.6308,0,0,1-25.2281-8.6035C144.1685,299.5801,138.3584,295.001,135.5293,289.7549Z" transform="translate(-91.63461 -268.07773)"/><path class="cls-12" d="M141.0864,285.4199a.4956.4956,0,1,1,0-.9912,70.0899,70.0899,0,0,1,22.1773,3.6328,80.548,80.548,0,0,1,20.9756,10.7022,51.67581,51.67581,0,0,1,14.9716,15.4961,47.69089,47.69089,0,0,1,6.4454,21.8398.49551.49551,0,0,1-.9888.0664,46.72658,46.72658,0,0,0-6.3052-21.3984,50.70857,50.70857,0,0,0-14.6929-15.1934A79.58852,79.58852,0,0,0,162.9531,289,69.11762,69.11762,0,0,0,141.0864,285.4199Z" transform="translate(-91.63461 -268.07773)"/><path class="cls-12" d="M144.7075,280.9092a.49475.49475,0,1,1-.4145-.8985c20.3549-9.3759,33.6079-.0449,45.0371,8.003,2.8242,1.9883,5.5361,3.8974,8.1977,5.4092a.49458.49458,0,0,1-.4882.8603c-2.712-1.5391-5.4395-3.46-8.2798-5.46C177.5469,280.9287,164.5439,271.7734,144.7075,280.9092Z" transform="translate(-91.63461 -268.07773)"/><path class="cls-12" d="M131.44873,298.0801a.495.495,0,0,1,.98877-.0508A29.24677,29.24677,0,0,1,130.52,308.2158a34.98054,34.98054,0,0,1-5.00879,9.709,19.72132,19.72132,0,0,0-3.88818,10.8623.49445.49445,0,0,1-.98877-.0156,20.81448,20.81448,0,0,1,4.09765-11.459,33.97382,33.97382,0,0,0,4.854-9.4229A28.27977,28.27977,0,0,0,131.44873,298.0801Z" transform="translate(-91.63461 -268.07773)"/></svg>