<svg xmlns="http://www.w3.org/2000/svg" viewBox="0 0 459.12058 412.27817"><defs><style>.cls-1{fill:#303030;}.cls-2{fill:#fcc;}.cls-3,.cls-7{fill:none;}.cls-11,.cls-3,.cls-5,.cls-6{stroke:#303030;}.cls-11,.cls-3,.cls-5,.cls-6,.cls-7{stroke-linecap:round;stroke-linejoin:round;stroke-width:1.5px;}.cls-4{fill:#f55571;}.cls-5{fill:#ff95fb;}.cls-6,.cls-8{fill:#fff;}.cls-7{stroke:#fff;}.cls-12,.cls-9{fill:#d48983;}.cls-10,.cls-11{fill:#00826f;}.cls-12{opacity:0.4;}.cls-13{fill:#ffc4b0;}</style></defs><g id="Character_3" data-name="Character 3"><g id="Character"><path class="cls-1" d="M386.3097,124.6797l-37.8274-1.7082c-.4351,6.7431-.7842,11.1265-5.6194,15.7847-4.2168,4.0623-8.4744,5.5323-12.9641,9.2907-11.3005,9.8322-3.3638,25.9669,9.8105,27.9051,14.9082,2.1932,31.0679-4.0688,38.7344-19.3417C383.4144,146.7084,386.8749,135.7449,386.3097,124.6797Z" transform="translate(-13.38397 -36.58647)"/><g id="Arm"><path class="cls-2" d="M283.7115,179.7184c.3751-.7877,1.4299-.6927,2.4726-.3309,1.296.4496,3.1135,1.1242,3.853,1.3789.7393.2548.8169-.2274.4442-.4784-.9511-.6401-4.8921-3.1959-5.833-3.9588s-2.2173-1.795-1.5902-2.9669c.4768-.8911,1.512-.7038,2.9665.2152,2.6907,1.7002,5.666,3.5787,6.2573,3.9521.5913.3733.9172.0682.3609-.4175-.5561-.4858-4.9704-4.2323-6.1457-5.2626-1.1753-1.0304-2.3205-1.9541-1.5766-3.0306.6619-.9578,2.0192-.2527,2.869.2983.9618.6238,2.5377,1.846,3.9079,2.8673,1.288.96,2.0886,1.4972,2.5495,1.8111.4608.314.9662.6021,1.1448.3959.1785-.2061.0861-.3296-.3444-.8043-2.0552-2.267-2.4212-2.625-4.2957-4.5892a6.768,6.768,0,0,1-1.9578-2.6143,1.21317,1.21317,0,0,1,1.3909-1.3981c1.2994.2693,2.1307,1.2825,3.4168,2.4168,1.5745,1.3884,4.1755,3.9551,6.1011,5.5578,1.0547.8778,1.5504.8692,1.8048.7371.5379-.2793-.0291-1.7281-.3018-2.3179a8.33975,8.33975,0,0,1-.9832-2.8119c-.0538-.7205.4788-1.7515,1.33-1.6589a1.17206,1.17206,0,0,1,.5542.2492,11.07961,11.07961,0,0,1,1.991,2.6695q1.035,1.5066,1.9513,3.0905a48.69858,48.69858,0,0,0,2.7225,4.3833,12.32545,12.32545,0,0,0,4.2579,3.3389,102.11972,102.11972,0,0,0,14.6176,5.3725c3.9786-7.0928,7.809-15.1899,10.2741-20.1611,2.5627-5.1681,4.6127-7.2746,6.6678-8.4296a32.73645,32.73645,0,0,1,5.8531-2.4834c4.1045,4.3112,5.074,15.5027-.4007,28.2479a105.625,105.625,0,0,1-7.1791,13.1151c-2.0599,3.1072-6.4521,11.5061-15.5844,7.5029-10.2811-4.5068-17.3168-10.727-20.4835-12.3777-3.1666-1.6507-6.7731-2.7785-10.2197-4.1724-1.4607-.5907-3.8638-1.8114-5.281-2.4763-2.5526-1.1974-5.6254-2.6063-6.4098-2.992C284.214,181.2564,283.3365,180.5061,283.7115,179.7184Z" transform="translate(-13.38397 -36.58647)"/><path class="cls-3" d="M300.6025,177.2179a6.07529,6.07529,0,0,0,2.6179,6.2941" transform="translate(-13.38397 -36.58647)"/><path class="cls-4" d="M309.9294,196.5654a4.82827,4.82827,0,0,0,2.7602-.3818,6.35075,6.35075,0,0,0,.9499-.5283,10.37421,10.37421,0,0,0,4.0221-6.9651,11.16625,11.16625,0,0,0-.7872-6.4665.77859.77859,0,0,0-.0667-.1284,5.6142,5.6142,0,0,0-4.0513-3.298,4.77723,4.77723,0,0,0-2.1315.1531,14.22351,14.22351,0,0,0,1.8018,1.1761c.0403.0018.0723.0074.1127.0093a3.55637,3.55637,0,0,1,1.8773.9453,5.442,5.442,0,0,1,1.2347,1.7225,9.84143,9.84143,0,0,1,.6716,5.6696c-.4777,3.0021-2.0424,5.4195-3.9126,6.3644a3.64407,3.64407,0,0,1-2.2602.3975c-1.7598-.2774-3.0835-1.9113-3.6358-4.1425-.4885-.2575-.9863-.4911-1.5087-.7139C305.4973,193.6328,307.364,196.1608,309.9294,196.5654Z" transform="translate(-13.38397 -36.58647)"/></g><g id="Legs"><g id="Leg"><path class="cls-2" d="M350.2384,207.0878c.8567,18.057,8.2718,42.2569,32.9342,51.2298,10.2746,16.2204,9.9774,29.1813,26.1185,60.5298,10.0782,19.5734,21.7511,44.787,30.738,60.1531,2.7289,7.9696,22.296,8.5073,16.5707-13.0526-6.2625-31.1225-8.9163-39.0839-20.4247-64.7308-14.2781-31.8194-14.7873-74.782-44.429-99.9893Z" transform="translate(-13.38397 -36.58647)"/><path class="cls-5" d="M439.9873,391.926c.3536,3.3785-.0034,7.419.9023,10.693.9057,3.2739,2.111,6.2309,5.3803,7.153a11.37831,11.37831,0,0,0,5.353-.0709,30.01655,30.01655,0,0,0,14.2064-6.8491,11.73879,11.73879,0,0,0,3.0458-4.71c1.0244-2.9291-.3312-5.9267-1.4349-8.8269-.9983-2.6234-2.7328-5.7518-3.8697-8.3181-2.3359-5.2732-1.6004-4.9796-6.9707-15.0491.0851,1.2784.974,3.6259-.231,5.0419-.6694.7866-2.3134-2.0586-4.5616-3.0834a10.70745,10.70745,0,0,0-6.7923-.4963c-3.545,1.0502-5.9826,2.4452-7.5659,5.3032-1.4703,2.6539-.3425,4.9847.452,7.5969C439.4514,385.4081,439.4623,386.8805,439.9873,391.926Z" transform="translate(-13.38397 -36.58647)"/><path class="cls-1" d="M456.3688,370.9898c-.1711.2011-.4069.1628-.6993-.0199,1.5172,2.126,4.0118,8.1224,4.4783,7.13.7091-1.5088-1.8264-7.8667-3.548-12.152C456.6849,367.2263,457.5738,369.5738,456.3688,370.9898Z" transform="translate(-13.38397 -36.58647)"/><path class="cls-6" d="M471.5359,398.652c.5428,1.6213.6982,6.5112-7.3628,11.4309-6.4044,3.9087-12.6991,4.9803-16.658,3.8025-2.7325-.8221-4.6835-4.8639-6.1156-9.4556l.0436-.0392c.8695,2.5323,2.1648,4.6266,4.8265,5.3784a11.33185,11.33185,0,0,0,5.3574-.0675,29.98836,29.98836,0,0,0,14.2013-6.8467,11.69538,11.69538,0,0,0,3.044-4.7102c1.0278-2.9334-.3274-5.9314-1.435-8.8249q-.1797-.4827-.3961-.9798A74.45439,74.45439,0,0,1,471.5359,398.652Z" transform="translate(-13.38397 -36.58647)"/></g><g id="Leg-2" data-name="Leg"><path class="cls-2" d="M351.943,206.0071c-7.3588,34.4212-6.6939,77.8289-.3381,112.3708,7.7806,42.2853,15.3389,69.6279,15.3389,69.6279,1.4023,7.6704,24.6489,15.4792,19.6431-3.244,0,0,.7492-22.5705.98-35.4369.2916-16.2649-5.57-27.2938-5.1179-37.1648.5326-11.629,1.3224-59.7574,1.3224-59.7574s12.5863-30.2042-.2372-46.3956Z" transform="translate(-13.38397 -36.58647)"/><path class="cls-5" d="M386.8065,385.4497c2.3591.4272,4.0819.8137,3.8027,5.3812-.2793,4.5674,1.2681,9.6376,1.823,12.5556.5548,2.9179.6726,4.8701-6.5318,6.8212-7.2044,1.951-9.5485-.1264-14.8753,3.5231-5.3269,3.6496-13.1804,3.9824-23.1421,4.3614-9.9618.379-14.8725-2.2161-16.2989-3.7942-1.4265-1.578.3168-7.2726,4.1894-9.2813,3.8727-2.0086,9.5529-3.6552,14.3323-7.2046,5.6319-4.1826,10.4021-10.6223,12.8817-13.6563,2.4795-3.034,10.149,2.0454,12.7103,5.8848,2.5614,3.8394,4.0755,4.6355,8.2793,3.7163C386.9706,392.4982,386.9136,389.6324,386.8065,385.4497Z" transform="translate(-13.38397 -36.58647)"/><path class="cls-1" d="M371.2957,397.1321c-2.5233,2.7902,5.3644.6797,12.145-3.2667l.0019-.0012c-3.7987.7315-5.2964-.1536-7.7447-3.8236C376.1622,391.9917,373.8191,394.342,371.2957,397.1321Z" transform="translate(-13.38397 -36.58647)"/><path class="cls-6" d="M392.2515,413.3258c-1.8301,2.4406-6.71,3.0172-10.7637,3.3824-4.0535.3651-7.9274-.2949-14.3699,2.3152a56.00236,56.00236,0,0,1-18.9427,4.4863c-6.4023.3571-13.6086-1.3782-16.0151-3.7045-.8536-.8252-1.13-2.6524-1.1039-6.3767l.0822-.0236a2.12979,2.12979,0,0,0,.4436.8924c1.4319,1.5754,6.3356,4.1714,16.3021,3.7931,9.9573-.3778,14.7662-2.6795,20.8758-4.7646,7.5424-2.5742,9.9387-1.1635,17.1364-3.1202,5.773-1.5643,6.8485-3.1239,6.7611-5.1889C392.6574,405.0167,394.0819,410.8851,392.2515,413.3258Z" transform="translate(-13.38397 -36.58647)"/></g><path class="cls-1" d="M394.1183,197.0441c8.789,11.3981,20.1624,19.5324,28.4427,50.6758,7.0727,26.6017,9.3759,35.8364,15.2085,50.3551,6.0485,15.056,11.6367,25.9912,14.4939,40.26,0,0-1.2795,7.5588-14.9565,13.6707-9.9507,4.4467-16.6525-.3732-16.6525-.3732-10.0224-16.8712-28.7322-50.9264-35.7999-68.4133.2893,17.4651.4903,28.4409,2.9125,43.9846,1.43,9.177,2.2746,24.4287,2.2746,24.4287-1.7506,2.1185-4.0314,5.9778-16.3916,7.2832-14.5382,1.5355-16.8941-4.8859-16.8941-4.8859s-11.8956-47.7742-13.0963-67.5761c-1.2008-19.8019-3.4455-57.6761,4.5799-85.0082Z" transform="translate(-13.38397 -36.58647)"/><path class="cls-7" d="M363.6594,208.8074c-.3678,10.2403.1848,14.2656.7713,23.0942a45.61389,45.61389,0,0,0,6.3464,18.4098c4.3297,7.1973,6.8053,13.8505,12.2282,27.7871" transform="translate(-13.38397 -36.58647)"/></g><g id="Head"><ellipse class="cls-1" cx="367.3855" cy="123.46762" rx="18.916" ry="18.06657" transform="translate(-19.86483 -15.29669) rotate(-3.29033)"/><path class="cls-2" d="M375.2205,111.1381c.496,11.8642,6.7319,14.0798,6.7319,14.0798a21.12932,21.12932,0,0,0-1.5132,4.9265,7.9491,7.9491,0,0,1,5.3076-3.6051c2.2127-.3064,4.6861.8385,5.3782,2.8646.6843,2.0031-.5507,4.3021-2.4583,5.3757a8.07332,8.07332,0,0,1-7.0998.1989l-.0033-.0016a11.61041,11.61041,0,0,1-5.2875,5.7337l1.3178,7.9836,5.5952,1.087a24.34045,24.34045,0,0,1-14.0073,5.4904c-8.5563.492-10.7641-3.437-10.7641-3.437l5.3461-1.9161.3293-6.4116c-3.7489-.1575-14.7816-2.9071-13.7922-17.1958a20.45248,20.45248,0,0,1,2.1767-7.8683l.0006.0002C357.5285,108.9988,368.0829,108.3948,375.2205,111.1381Z" transform="translate(-13.38397 -36.58647)"/><path class="cls-1" d="M372.4211,131.598a.5592.5592,0,1,1-.5592-.5593A.55918.55918,0,0,1,372.4211,131.598Z" transform="translate(-13.38397 -36.58647)"/><path class="cls-1" d="M376.4738,109.9762c2.9246,1.0766-1.5064,5.913-1.5064,5.913l-6.8931-.8548.0441-4.1278-1.7212,3.7696s-9.9918-.5068-13.4543,2.1329C355.0788,111.0143,364.3241,105.5034,376.4738,109.9762Z" transform="translate(-13.38397 -36.58647)"/><path class="cls-3" d="M388.3907,129.462a4.08134,4.08134,0,0,0-3.0513-.0375,3.89327,3.89327,0,0,0-2.4684,2.7574" transform="translate(-13.38397 -36.58647)"/><path class="cls-3" d="M386.3485,131.0145a3.01328,3.01328,0,0,0-3.0053.0242" transform="translate(-13.38397 -36.58647)"/><path class="cls-1" d="M371.8619,142.3306a18.39837,18.39837,0,0,1-7.7688,1.1763l-.1082,2.1056A11.96,11.96,0,0,0,371.8619,142.3306Z" transform="translate(-13.38397 -36.58647)"/><path class="cls-3" d="M365.2076,121.6335a14.86455,14.86455,0,0,1-1.7774,4.759c-.5169.7666-1.2054,1.3347-.813,2.2238a2.80218,2.80218,0,0,0,2.2397,1.4565" transform="translate(-13.38397 -36.58647)"/><path class="cls-1" d="M366.2308,133.4766c-1.1394.1996-2.5093.5917-2.8006,1.6411a3.1259,3.1259,0,0,0-1.6623-1.3844,4.39308,4.39308,0,0,1,2.2185-.7463A5.64287,5.64287,0,0,1,366.2308,133.4766Z" transform="translate(-13.38397 -36.58647)"/><path class="cls-5" d="M368.1998,133.7925a4.40776,4.40776,0,0,1-3.9915,2.0049c-.517-.031-.5745-.3464-.7781-.6797.0275-.4907.7128-1.4911,2.8006-1.6411A4.08848,4.08848,0,0,0,368.1998,133.7925Z" transform="translate(-13.38397 -36.58647)"/><path class="cls-8" d="M366.9032,133.6599s-.0379.4425-.7172.5858a6.19093,6.19093,0,0,1-2.6763-.1184,1.5422,1.5422,0,0,1-.6991-.8778,3.14971,3.14971,0,0,1,1.5099-.2819C364.9452,133.0877,366.6859,133.6203,366.9032,133.6599Z" transform="translate(-13.38397 -36.58647)"/><path class="cls-3" d="M360.6589,133.9021c1.1525-.083,2.1733-.8621,3.3275-.9151a8.6357,8.6357,0,0,1,2.6194.6018,2.62173,2.62173,0,0,0,2.5494-.3653" transform="translate(-13.38397 -36.58647)"/><path class="cls-3" d="M361.6673,133.7775a3.50915,3.50915,0,0,1,1.8859,1.5458.75137.75137,0,0,0,.6551.4741,4.56347,4.56347,0,0,0,4.0296-2.0764" transform="translate(-13.38397 -36.58647)"/><path class="cls-8" d="M353.1833,124.9126a3.74228,3.74228,0,0,1,3.4758-2.1394c1.4758.0394,3.5041.9533,3.6701,3.0407C359.5664,127.8154,354.8593,127.9384,353.1833,124.9126Z" transform="translate(-13.38397 -36.58647)"/><path class="cls-1" d="M354.8443,126.074a2.04872,2.04872,0,0,0,2.6594,1.1103,2.01541,2.01541,0,0,0,1.2217-2.5886,2.04872,2.04872,0,0,0-2.6594-1.1103A2.01541,2.01541,0,0,0,354.8443,126.074Z" transform="translate(-13.38397 -36.58647)"/><polygon class="cls-8" points="345.489 87.966 343.401 88.748 345.675 89.094 345.489 87.966"/><path class="cls-3" d="M360.3292,125.8139a4.25987,4.25987,0,0,0-3.4306-2.6032,3.79027,3.79027,0,0,0-3.7259,1.2004" transform="translate(-13.38397 -36.58647)"/><path class="cls-3" d="M351.8543,123.4131a1.5751,1.5751,0,0,0,1.3177.9677" transform="translate(-13.38397 -36.58647)"/><path class="cls-3" d="M359.2456,118.5782a7.2455,7.2455,0,0,0-5.6678,1.6322" transform="translate(-13.38397 -36.58647)"/><path class="cls-8" d="M375.0486,125.0408a3.74191,3.74191,0,0,0-3.5203-2.0652c-1.4747.0706-3.4832,1.0274-3.6049,3.1178C368.7286,128.0783,373.4372,128.1014,375.0486,125.0408Z" transform="translate(-13.38397 -36.58647)"/><path class="cls-1" d="M369.6795,126.2388a2.0486,2.0486,0,0,0,2.6818,1.055,2.01536,2.01536,0,0,0,1.1678-2.6133,2.04873,2.04873,0,0,0-2.6818-1.0551A2.0155,2.0155,0,0,0,369.6795,126.2388Z" transform="translate(-13.38397 -36.58647)"/><polygon class="cls-8" points="360.292 88.047 358.22 88.873 360.501 89.171 360.292 88.047"/><path class="cls-3" d="M367.9235,126.0934a4.26006,4.26006,0,0,1,3.3745-2.6754,3.79039,3.79039,0,0,1,3.7506,1.1211" transform="translate(-13.38397 -36.58647)"/><path class="cls-3" d="M376.3455,123.5134a1.57509,1.57509,0,0,1-1.2969.9954" transform="translate(-13.38397 -36.58647)"/><path class="cls-3" d="M369.2396,118.5023c2.5783-.385,4.2395-.0768,6.1815,1.5785" transform="translate(-13.38397 -36.58647)"/></g><g id="Chest"><path id="Chest-2" data-name="Chest" class="cls-6" d="M344.7314,186.5006c1.0257,8.4592-1.0718,13.1423,3.5081,14.9449,0,0,8.1325,2.5749,23.2912.8868,15.1032-1.6819,22.5876-5.2882,22.5876-5.2882,4.567-3.6025,1.1558-8.2971.4972-16.0326,0,0,3.9423-32.1677-2.5259-33.6747l-8.9005,2.4444c-7.4476,5.6096-20.89,7.3085-24.7714,2.0534l-9.5954,3.0931C343.6596,162.6164,335.0809,174.635,344.7314,186.5006Z" transform="translate(-13.38397 -36.58647)"/></g><g id="Arm-2" data-name="Arm"><g id="Arm-3" data-name="Arm"><path class="cls-2" d="M423.4912,97.9166c.0143,3.2273,1.6159,21.8373,1.7151,26.0504.1171,4.9718-1.5323,8.6218-3.0152,11.8414-2.2993,4.9926-9.4587,14.189-15.3441,23.1761-4.3834,6.6936-7.7511,9.6434-11.0091,17.384-3.8954-3.2056-8.0281-7.8969-9.0557-15.1277-1.2485-8.7845,1.4015-13.1759,1.4015-13.1759l4.6652-4.4743a39.83785,39.83785,0,0,0,4.2744-4.8154c4.9758-6.6205,10.0298-14.558,10.0298-14.558s3.6446-23.7239,3.7088-25.9479a9.41326,9.41326,0,0,0-1.0182-5.2324,50.72535,50.72535,0,0,0-2.8028-4.5817q-1.0434-1.5912-1.9613-3.26a11.53724,11.53724,0,0,1-1.5513-3.0997,1.22084,1.22084,0,0,1,.0275-.632c.312-.8349,1.5199-.8479,2.1646-.461a8.67731,8.67731,0,0,1,2.1548,2.2291c.3457.4348,1.0259,1.3769,1.6345.7146a1.67587,1.67587,0,0,0,.2867-1.2561c-.2145-3.5414-1.9568-6.7837-2.9654-10.1852-.2382-.803-.3711-1.8259.291-2.3389.8509-.6594,1.8962.1015,2.4315.7752a11.14288,11.14288,0,0,1,1.4032,2.6062q.47295,1.1046.9459,2.2091a12.95078,12.95078,0,0,0,.8469,1.8853,23.88437,23.88437,0,0,0-.4367-3.6851c-.3149-1.6793-.7052-3.3476-1.1507-4.9973a1.93136,1.93136,0,0,1,.4333-1.68,1.90624,1.90624,0,0,1,2.2159-.6242,3.112,3.112,0,0,1,1.2396,1.2242,1.14748,1.14748,0,0,1,1.2929-.9544,3.09547,3.09547,0,0,1,2.1571,1.6343,7.204,7.204,0,0,1,.5861,1.6413c.5566,2.176.818,4.4199,1.3924,6.5912a1.06577,1.06577,0,0,0,.1852.427c.3009.3561.646.0782.7223-.2806a20.90624,20.90624,0,0,0,.4562-4.1369,3.87407,3.87407,0,0,1,.1218-1.1771,1.16994,1.16994,0,0,1,.7941-.8117c.663-.1455,1.2188.5048,1.5224,1.1119,1.2946,2.5885.7653,5.5674.6892,8.3565-.0446,1.629-.0333,4.4346-.1671,6.069C424.4877,90.2068,423.4769,94.6892,423.4912,97.9166Z" transform="translate(-13.38397 -36.58647)"/><path class="cls-3" d="M413.7728,85.4952a6.32367,6.32367,0,0,1,4.6285,5.3781" transform="translate(-13.38397 -36.58647)"/><path class="cls-3" d="M414.975,66.9847c-.4844,1.0693.0769,2.682.2414,3.8443.3315,2.3423.7782,4.7913,1.1097,7.1336" transform="translate(-13.38397 -36.58647)"/></g></g></g></g><g id="Character_2" data-name="Character 2"><g id="Character-2" data-name="Character"><g id="Legs-2" data-name="Legs"><g id="Leg-3" data-name="Leg"><path class="cls-9" d="M153.0452,222.3215s-35.4778,75.0225-46.4317,91.7328c-5.756,8.781-9.9707,15.8374-16.53,25.5076C80.4466,353.7692,71.748,365.5255,67.103,372.106c-6.0006.7259-15.6076-3.6547-20.3801-11.7535,7.6255-18.711,17.9667-44.4782,28.421-59.9194l19.9026-87.3305C112.2923,216.2016,153.0452,222.3215,153.0452,222.3215Z" transform="translate(-13.38397 -36.58647)"/><path class="cls-6" d="M47.8923,357.4817l1.3401-3.2869c-2.3042-.554-5.5312,1.7722-4.3963,6.8804-2.7118,6.1816-3.4608,10.3881-5.1886,13.7962-1.4688,7.8359,10.2086,21.804,19.6971,9.2794,0,0,3.2408-4.2738,7.5692-10.2245,5.0732-.8112,6.153-4.9479,4.3455-7.6296l-2.146,2.9865C60.9534,369.0021,52.1903,364.5096,47.8923,357.4817Z" transform="translate(-13.38397 -36.58647)"/><path class="cls-4" d="M65.7325,375.5459l-2.6472,3.598c-2.3685,2.5524-4.5882,2.8861-9.8819,3.7634-1.4219.2357-2.4397,1.3114-3.3789,2.7216-.2319-2.3379-3.7776-4.5528-7.2956-4.8753h-.0003c.7564-1.3784,1.0962-2.5736.5886-3.6588a13.093,13.093,0,0,1-1.0898-8.5493l1.7136-4.8245s-3.1147.6809-4.8701,5.3935a39.57347,39.57347,0,0,1-5.4851,10.7794c-6.4744,9.2908-18.7402,17.8522-15.5496,30.9329,3.6971,15.3447,17.3926,14.2323,21.2569,10.9699,5.2043-3.1593,6.2256-7.6094,9.0849-15.3763,2.9419-7.9917,5.866-13.3024,9.7478-18.0429,3.8821-4.7404,5.8023-5.3251,7.5911-8.5461A5.68212,5.68212,0,0,0,65.7325,375.5459Z" transform="translate(-13.38397 -36.58647)"/><path class="cls-3" d="M26.3558,405.2961a23.442,23.442,0,0,0,12.8128,5.9569" transform="translate(-13.38397 -36.58647)"/><path class="cls-3" d="M28.8977,404.7745c3.9074-.0762,9.7395-.5236,13.6328-.1829" transform="translate(-13.38397 -36.58647)"/><path class="cls-3" d="M37.62,408.921c-2.8435-3.83-4.9794-6.5429-8.1445-10.1118" transform="translate(-13.38397 -36.58647)"/><path class="cls-3" d="M32.0313,398.2755a69.28479,69.28479,0,0,1,13.5019-.0549" transform="translate(-13.38397 -36.58647)"/><path class="cls-3" d="M41.0922,401.2096a83.93081,83.93081,0,0,0-7.9118-9.6607" transform="translate(-13.38397 -36.58647)"/><path class="cls-3" d="M36.0387,391.0004c4.1876.1196,8.6935-.4591,12.8168.2812" transform="translate(-13.38397 -36.58647)"/><path class="cls-3" d="M40.9981,383.4195a43.508,43.508,0,0,0,7.3185,4.5603" transform="translate(-13.38397 -36.58647)"/><path class="cls-3" d="M44.3754,395.1741c-2.4991-3.7082-3.9107-7.5046-6.3524-10.5526" transform="translate(-13.38397 -36.58647)"/><path class="cls-3" d="M37.2856,373.0773a14.57042,14.57042,0,0,0-.3566,5.4429c.0607,1.9654-.9147,3.4627-1.9027,5.156-2.6277,4.5037-5.0012,8.6645-8.0632,13.3863a12.92426,12.92426,0,0,1-4.9053,4.8599,7.2319,7.2319,0,0,1-4.0661.6522" transform="translate(-13.38397 -36.58647)"/><path class="cls-3" d="M59.7671,386.0622c-1.5612,1.1656-4.8779,1.7486-5.9221,2.5915a5.12516,5.12516,0,0,0-1.1643,1.5839q-4.2495,7.70445-8.2009,15.5685a18.08616,18.08616,0,0,0-1.5812,3.8855c-.6151,2.5948-.082,5.3076.4517,7.9203" transform="translate(-13.38397 -36.58647)"/><path class="cls-6" d="M44.9898,414.8568c-3.7433,11.7192-12.0722,16.1186-20.0494,13.6178-7.9769-2.5008-11.2149-11.8892-10.7656-16.8695.4311-4.9449,3.0842-10.1748,5.6205-14.1408a18.15225,18.15225,0,0,0-1.961,13.3576c3.702,15.347,17.3903,14.2368,21.2608,10.9801A14.46224,14.46224,0,0,0,44.9898,414.8568Z" transform="translate(-13.38397 -36.58647)"/></g><g id="Leg-4" data-name="Leg"><path class="cls-9" d="M135.3535,336.4731c-.3772-10.9265.9927-16.9395-2.2252-30.8663-5.5573-24.052-17.6636-61.1642-38.0818-92.5042l69.7272,8.2574a589.34008,589.34008,0,0,1,3.9223,94.7791c-.9367,21.3378-4.6277,43.6604-6.2614,64.2414-5.0541,5.5995-17.7912,4.7724-22.3637.8555C138.353,368.1149,135.8779,351.6625,135.3535,336.4731Z" transform="translate(-13.38397 -36.58647)"/><path class="cls-6" d="M140.0709,381.236l-.5372-4.0453c-2.2655.6955-4.1619,4.5479-.5858,8.368.8109,6.7014,1.1543,10.5543,1.4009,14.3675,2.7226,7.493,19.8827,13.5761,21.6782-2.034,0,0,.6155-5.3281,1.3138-12.6533,3.9546-3.2797,2.3131-7.0076-.6075-8.3965l-.2987,3.5381C155.267,384.2904,147.3468,385.0992,140.0709,381.236Z" transform="translate(-13.38397 -36.58647)"/><path class="cls-4" d="M199.9671,417.1681c-.0868-1.13-1.4947-3.9461-8.6009-6.5405a38.02191,38.02191,0,0,1-10.4018-5.3671c-4.1969-2.9845-11.5103-10.0495-13.1727-11.7192-2.1643-2.174-8.0267-2.4016-11.2302,1.4265a5.18322,5.18322,0,0,0-2.9799-.8809,6.15359,6.15359,0,0,0-2.7203,1.2154,34.68364,34.68364,0,0,0-3.1843,2.3645c-1.6607,1.3222-3.9504,3.2342-5.8148,2.2193-1.6888-.9194-1.9533-5.5425-1.9533-5.5425l-.2964-2.9685a3.18578,3.18578,0,0,0-2.8876,1.2586c-1.3391,2.5193-.6432,5.0049-2.179,10.168a31.59849,31.59849,0,0,0-.9209,8.3611c2.3189,2.4595,7.1485,3.9312,12.9879,4.4156,5.8396.4845,12.2257.9083,17.3533,2.8943a63.73886,63.73886,0,0,0,13.2205,3.5486,56.59743,56.59743,0,0,0,16.3008-.4217C198.9166,420.571,200.0536,418.298,199.9671,417.1681Z" transform="translate(-13.38397 -36.58647)"/><path class="cls-3" d="M173.336,410.815c2.4638-2.6325,8.2107-5.1453,12.2233-3.3814" transform="translate(-13.38397 -36.58647)"/><path class="cls-3" d="M179.0383,403.7893a11.31047,11.31047,0,0,0-4.8422,4.2603" transform="translate(-13.38397 -36.58647)"/><path class="cls-3" d="M180.9644,405.2606c-2.5242-.3439-6.1771.0555-12.3229.5169" transform="translate(-13.38397 -36.58647)"/><path class="cls-3" d="M174.349,399.9903a10.18828,10.18828,0,0,0-4.6436,3.9932" transform="translate(-13.38397 -36.58647)"/><path class="cls-3" d="M176.2751,401.4615c-2.5241-.3438-6.177.0555-12.3229.5169" transform="translate(-13.38397 -36.58647)"/><path class="cls-3" d="M169.8152,395.6666c-2.0699.8949-3.4566,2.6915-4.9976,4.7849" transform="translate(-13.38397 -36.58647)"/><path class="cls-3" d="M171.5859,397.6625c-2.5242-.3439-6.177.0555-12.3229.5169" transform="translate(-13.38397 -36.58647)"/><path class="cls-3" d="M135.3467,399.3833a7.57168,7.57168,0,0,0,3.0774,4.9733,8.0757,8.0757,0,0,0,5.9549,1.0804c3.1885-.6776,5.835-3.2662,9.0905-3.4334,2.3681-.1217,4.5871,1.0723,6.6122,2.3058,3.7423,2.2792,9.5597,6.425,10.2405,7.7128.6808,1.2877.9767,5.1439,1.2619,8.8607" transform="translate(-13.38397 -36.58647)"/><path class="cls-6" d="M199.4292,425.5714c-5.5645,2.9519-14.3692,3.3173-21.6897,2.9225-7.3291-.3941-13.0642-4.2713-17.1166-5.2013-5.5617-1.2794-10.4052-.8389-15.0595-1.5244-4.6536-.677-10.0591-1.6065-11.3924-3.4862-1.3329-1.8711-1.1091-3.8961-.5463-7.119,2.3172,2.4591,7.1525,3.9321,12.989,4.4149,5.8365.4829,12.2286.9058,17.353,2.891a63.97431,63.97431,0,0,0,13.2159,3.553,56.76022,56.76022,0,0,0,16.306-.4239c5.4275-1.0283,6.5633-3.2957,6.4766-4.4265C200.7595,418.4641,202.1694,424.1116,199.4292,425.5714Z" transform="translate(-13.38397 -36.58647)"/></g><path class="cls-1" d="M93.214,210.8792s-16.2563,72.9507-18.7256,83.0337-12.4797,23.7626-18.6892,38.5292c5.3138,9.2107,17.2488,19.0879,28.5665,20.1168,0,0,12.3465-15.615,22.2237-31.4717s18.314-35.9977,18.314-35.9977,6.803,20.7584,7.2084,29.6067c.4053,8.8484-.592,26.0134,2.1343,45.6501,10.9574,3.3804,24.4291,2.8735,34.0761-1.154,1.9006-29.528,2.2911-53.5502,2.5859-69.1891.2948-15.639-1.7573-52.7224-5.2583-73.5867Z" transform="translate(-13.38397 -36.58647)"/><path class="cls-10" d="M61.2689,321.0872c-.6878,1.3096-2.0957,4.0672-2.0957,4.0672a37.97654,37.97654,0,0,0,11.7144,13.9722,54.7535,54.7535,0,0,0,17.8379,7.7451l2.3537-3.1594s2.6572,3.4508-.6519,6.2872c-3.3092,2.8364-1.2606,4.9062-5.988,7.4168-4.7274,2.5107-15.4427-2.847-20.6428-6.1561-5.2001-3.3092-13.0692-11.5033-12.6014-16.0731.4679-4.5697,3.1467-3.9394,3.9346-6.6183C55.9176,325.89,56.6928,320.0663,61.2689,321.0872Z" transform="translate(-13.38397 -36.58647)"/><path class="cls-11" d="M58.1225,338.7754a53.21192,53.21192,0,0,0,29.8074,7.4314" transform="translate(-13.38397 -36.58647)"/><path class="cls-10" d="M133.0275,349.0518c.1792,1.4677.3456,3.904.3456,3.904a35.52294,35.52294,0,0,0,16.9794,4.7375,49.12079,49.12079,0,0,0,18.3063-3.9328l.2376-4.1079s2.8666,1.3017,1.8033,5.5206.853,5.6239-1.5227,10.3863c-2.3756,4.7623-11.7508,5.8855-17.7378,6.1429s-15.3833-1.1332-17.5497-5.1501c-2.1664-4.017-.9175-5.9814-1.7777-8.6298C131.2515,355.2741,129.9947,350.0565,133.0275,349.0518Z" transform="translate(-13.38397 -36.58647)"/><path class="cls-11" d="M139.975,364.7021a50.89412,50.89412,0,0,0,27.9065-10.9416" transform="translate(-13.38397 -36.58647)"/></g><g id="Head-2" data-name="Head"><path class="cls-1" d="M143.1614,102.1311c-2.7798,8.7462,1.7063,20.6824,10.8637,23.5929s19.5184-4.3067,22.2983-13.0529c2.7798-8.7462-2.3903-18.1959-11.5477-21.1065C155.6183,88.6541,145.9412,93.3849,143.1614,102.1311Z" transform="translate(-13.38397 -36.58647)"/><path class="cls-12" d="M143.1614,102.1311c-2.7798,8.7462,1.7063,20.6824,10.8637,23.5929s19.5184-4.3067,22.2983-13.0529c2.7798-8.7462-2.3903-18.1959-11.5477-21.1065C155.6183,88.6541,145.9412,93.3849,143.1614,102.1311Z" transform="translate(-13.38397 -36.58647)"/><path class="cls-9" d="M145.1638,119.5924a7.56738,7.56738,0,0,0,.5699,5.6401l-3.4431,10.5519-5.508.2038c.2685,3.4248,4.7542,17.2754,13.7362,19.7459,8.982,2.4706,13.2304-11.3212,13.2304-11.3212l-4.9406-3.139,1.4085-6.4147a11.12831,11.12831,0,0,0,7.1003-.7789c2.5291-1.3797,4.5262-3.495,6.0428-7.5433,1.4376-3.8373,1.0519-7.6601,1.2054-9.0756.1534-1.4154,1.1982-2.3033,1.9937-5.5038a18.50908,18.50908,0,0,0-.292-9.1597c-2.5443.4459-7.4387-7.0916-15.6914-7.5552-5.5172.8674-8.1755,2.7615-9.7094,5.4599.5347,2.8076,1.0943,5.7996-.0861,9.2577-.7784,2.397-1.3371,2.3255-1.9321.9252a7.45692,7.45692,0,0,0-4.2858-4.2199c-2.5651-.776-4.7303.2022-5.6276,1.9581-1.0638,2.0816-.0725,4.1271,1.4897,5.4015a6.81415,6.81415,0,0,0,5.8828,1.4095S145.6921,117.6714,145.1638,119.5924Z" transform="translate(-13.38397 -36.58647)"/><path class="cls-3" d="M143.5346,105.3102a5.56776,5.56776,0,0,1,.131,1.8305" transform="translate(-13.38397 -36.58647)"/><path class="cls-3" d="M141.1236,105.6355a2.59579,2.59579,0,0,1,.4982,1.6534" transform="translate(-13.38397 -36.58647)"/><path class="cls-1" d="M160.2171,134.8592c-4.1093-1.2362-8.5316-3.4098-10.8659-5.823.2827,1.9667,2.6871,5.6159,10.2185,8.7714Z" transform="translate(-13.38397 -36.58647)"/><path class="cls-8" d="M168.4188,114.1434a2.74254,2.74254,0,0,1,2.8291-1.2795c1.1758.0981,2.7938.6487,2.8319,2.3217C173.3806,116.7481,169.6193,116.6334,168.4188,114.1434Z" transform="translate(-13.38397 -36.58647)"/><path class="cls-1" d="M171.7897,115.8881a1.49267,1.49267,0,0,1-2.0734-.3312,1.4684,1.4684,0,0,1,.2351-2.0722,1.49256,1.49256,0,0,1,2.0733.3312A1.46839,1.46839,0,0,1,171.7897,115.8881Z" transform="translate(-13.38397 -36.58647)"/><polygon class="cls-8" points="156.493 76.815 157.487 78.1 155.945 77.442 156.493 76.815"/><path class="cls-3" d="M174.3169,114.9133a3.3138,3.3138,0,0,0-2.984-1.9078,3.3774,3.3774,0,0,0-2.9141,1.1379" transform="translate(-13.38397 -36.58647)"/><path class="cls-3" d="M170.2803,107.0549c2.0251.0248,4.8652,1.1824,5.7599,2.8129" transform="translate(-13.38397 -36.58647)"/><path class="cls-8" d="M155.9191,110.9892a2.74252,2.74252,0,0,1,2.8823-1.1547c1.1703.1494,2.7628.7701,2.7277,2.4432C160.7624,113.8081,157.0097,113.5293,155.9191,110.9892Z" transform="translate(-13.38397 -36.58647)"/><path class="cls-1" d="M159.2942,112.8396a1.49253,1.49253,0,0,1-2.0654-.3776,1.46839,1.46839,0,0,1,.2815-2.0664,1.49283,1.49283,0,0,1,2.0655.3776A1.46839,1.46839,0,0,1,159.2942,112.8396Z" transform="translate(-13.38397 -36.58647)"/><polygon class="cls-8" points="144.053 73.724 145.018 75.031 143.492 74.339 144.053 73.724"/><path class="cls-3" d="M161.7779,112.0161a3.31381,3.31381,0,0,0-2.8978-2.0365,3.37725,3.37725,0,0,0-2.961,1.0096" transform="translate(-13.38397 -36.58647)"/><path class="cls-3" d="M155.6113,104.4426a7.5731,7.5731,0,0,1,6.9616.3994" transform="translate(-13.38397 -36.58647)"/><path class="cls-3" d="M166.3364,109.8865a23.19571,23.19571,0,0,0,.5959,7.6194c.231,1.4125-.3284,3.5829-3.4749,2.8189" transform="translate(-13.38397 -36.58647)"/><path class="cls-3" d="M141.6916,109.3518a3.86353,3.86353,0,0,1,2.8517.4584,3.68531,3.68531,0,0,1,1.8561,2.9706" transform="translate(-13.38397 -36.58647)"/><path class="cls-3" d="M143.3451,111.1298a2.85215,2.85215,0,0,1,2.7988.5086" transform="translate(-13.38397 -36.58647)"/><path class="cls-3" d="M164.2009,125.0405c-2.4918.0297-5.9317-1.1494-7.2551-3.6155" transform="translate(-13.38397 -36.58647)"/><path class="cls-1" d="M155.8186,96.579c.5403,2.3078-2.9107,5.0538-4.9521,4.1236l-4.4644-4.2968c.2163-4.2465,2.4276-5.5263,3.9129-6.3309,1.8952-1.0266,4.4012-.8012,6.0038-2.2425a3.725,3.725,0,0,0,1.0651-3.7133,4.37087,4.37087,0,0,1,3.6357,2.8024,7.62456,7.62456,0,0,1,5.8897-2.2276c2.1479.2849,4.1172,2.2872,3.8032,4.431a3.7301,3.7301,0,0,1,3.6423-.1173,6.32961,6.32961,0,0,1,3.3444,2.8321,3.90541,3.90541,0,0,1-.3225,4.2115,3.61214,3.61214,0,0,1,2.1447,3.9639,9.99286,9.99286,0,0,0-.4127,1.762,2.14629,2.14629,0,0,0,1.6169,1.9851.46488.46488,0,0,1,.0945.8645,4.49758,4.49758,0,0,1-3.2634.1322,8.1594,8.1594,0,0,1-3.7482-3.0537,2.77393,2.77393,0,0,1-2.4394,1.1667c-3.1688.0931-6.0893-2.1631-7.4525-5.0254a5.06616,5.06616,0,0,1-4.1758.5867A15.00712,15.00712,0,0,1,155.8186,96.579Z" transform="translate(-13.38397 -36.58647)"/></g><g id="Arm-4" data-name="Arm"><path class="cls-9" d="M221.2702,216.0115c3.4905.8299,8.3866,2.8751,12.6059,4.5317,1.7881.7021,4.9386,1.637,6.7505,2.237,3.2633,1.0807,7.1644,2.4107,8.182,2.7271.8691.27,2.2749.3418,2.6035-.6699.3287-1.0116-.6846-1.8121-1.9108-2.3663-1.524-.6889-3.6984-1.616-4.5664-2.0107-.868-.3944-.5324-.8863.008-.7959,1.3786.2311,7.0098,1.274,8.4823,1.3878s3.4677.2707,3.8954-1.2923c.3253-1.1885-.7479-1.8909-2.806-2.2972-3.807-.7517-8.0157-1.5841-8.8521-1.7496-.8365-.1654-.869-.7087.0307-.6722.8995.0365,7.9482.4225,9.8524.4961,1.9042.0737,3.6924.2166,3.9367-1.36.2174-1.4029-1.5751-1.917-2.7893-2.1419-1.3744-.2545-3.794-.4944-5.8632-.7396-1.9449-.2304-3.104-.4263-3.7752-.5349-.6711-.1085-1.36-.2774-1.3452-.6097.0149-.3321.2002-.3639.9794-.4231,3.7199-.2829,4.3442-.2928,7.6503-.4592,1.9261-.0971,2.8312-.0703,3.925-.6719a1.47916,1.47916,0,0,0-.0586-2.4039c-1.3759-.8513-2.9612-.6517-5.0506-.7264-2.5579-.0915-7.0122-.001-10.0606-.1973-1.6695-.1076-2.101-.5308-2.2154-.8612-.2418-.6982,1.4749-1.505,2.2109-1.7983a10.16945,10.16945,0,0,0,3.2282-1.6642c.6518-.5925,1.045-1.9517.214-2.5835a1.43036,1.43036,0,0,0-.6995-.2442,13.509,13.509,0,0,0-4.0007.6931q-2.17935.4653-4.3186,1.0988a59.38066,59.38066,0,0,1-6.0854,1.5963c-2.1914.4117-5.1835,1.0463-6.7363.5401a234.8472,234.8472,0,0,1-24.0852-10.021c-4.2303-8.9677-8.5697-22.0607-11.1413-28.3182a20.72278,20.72278,0,0,0-10.3633-11.3609c-5.3618,4.8913-13.1311,15.1206-7.5663,31.0914a144.31709,144.31709,0,0,0,8.084,17.1725c3.1189,5.7538,6.4565,8.2241,13.6876,9.8039C200.5382,211.9935,217.7797,215.1816,221.2702,216.0115Z" transform="translate(-13.38397 -36.58647)"/><path class="cls-3" d="M238.5597,208.4598a7.40744,7.40744,0,0,1-7.5951,3.3753" transform="translate(-13.38397 -36.58647)"/><path class="cls-4" d="M178.7242,150.7117c8.9604,3.9936,9.6133,7.0329,12.1317,13.4751s10.3264,25.7644,10.3264,25.7644,7.0015,3.5494,10.6921,5.149c3.6906,1.5997,4.7506,2.4588,5.2016,3.7945l-4.6942,15.6391c-1.3689,1.864-4.2875,1.1746-9.2717.1446-7.0759-1.4623-14.8323-3.3095-17.8125-4.7371-2.9801-1.4275-5.4209-3.7505-9.2976-10.5322a105.81474,105.81474,0,0,1-6.0809-11.4286C167.9823,183.5512,167.3021,158.3154,178.7242,150.7117Z" transform="translate(-13.38397 -36.58647)"/><path class="cls-4" d="M223.4271,201.3371a13.523,13.523,0,0,0-4.1682,6.3705,17.88165,17.88165,0,0,0-.392,7.9635l-6.4851-1.1373c-2.0309-5.4873.95-13.3913,4.6942-15.6391Z" transform="translate(-13.38397 -36.58647)"/><path class="cls-3" d="M212.3818,214.5338c-2.0309-5.4873.95-13.3913,4.6942-15.6391" transform="translate(-13.38397 -36.58647)"/></g><g id="Chest-3" data-name="Chest"><path class="cls-6" d="M138.6796,135.918s-9.0174-1.4853-14.2748-7.3573c-7.4158,7.1853-15.4276,16.4532-19.1577,28.156-3.7301,11.7027-5.6945,22.9561-7.9829,31.605s-5.9016,29.5233-5.9016,29.5233,12.0642,18.2704,43.7785,18.3129c29.2884.0392,32.4361-8.2204,32.4361-8.2204s1.015-23.0695,1.7058-31.1813c.6908-8.1117,6.2735-23.7856,8.4443-31.7358s.0891-12.7466.0891-12.7466l-15.7422-7.8708a11.51684,11.51684,0,0,1-9.9367,3.0281C145.7631,146.5067,141.3147,141.3746,138.6796,135.918Z" transform="translate(-13.38397 -36.58647)"/><g id="Jacket"><path class="cls-10" d="M134.5092,189.2359c5.9038-23.5535,8.8322-32.9015,9.5491-40.4716-2.7717-3.2903-3.3367-7.9326-2.3201-13.5444,0,0-10.872-3.0164-18.1476-9.3205-18.3264,11.3315-22.264,38.7434-24.9082,50.8575-2.6442,12.1142-7.0807,24.7353-7.3856,30.1624a9.79861,9.79861,0,0,0,.7772,3.9859c-.6641,1.2211-2.2279,4.3765-1.894,6.4727.1705,1.0696,2.1014,13.7747,32.2266,19.6856C126.8444,210.7856,132.6271,196.7447,134.5092,189.2359Z" transform="translate(-13.38397 -36.58647)"/><path class="cls-10" d="M178.7242,150.7117c-7.2855-3.2232-19.2261-9.4758-19.2261-9.4758,1.0043,2.4698.5127,5.0069-.2796,11.3987.946,13.6084-1.5521,35.4926-9.0193,85.897,12.4722-1.4651,18.9801-5.8109,19.0744-7.4899a52.88684,52.88684,0,0,0-.6893-7.1613l-.0047-.0008a11.50251,11.50251,0,0,0,2.0222-2.5102c2.5561-4.7431.5437-16.7289.4245-21.5274a64.85492,64.85492,0,0,1,5.2662-25.0093C184.0183,156.4055,178.7242,150.7117,178.7242,150.7117Z" transform="translate(-13.38397 -36.58647)"/><path class="cls-3" d="M123.5684,230.6047c-1.684-.351-26.1276-4.7357-31.6342-20.0589" transform="translate(-13.38397 -36.58647)"/><path class="cls-3" d="M168.5846,223.8808c-2.7574,2.7083-8.2212,6.3338-17.3923,7.9178" transform="translate(-13.38397 -36.58647)"/><path class="cls-1" d="M144.0583,148.7643c1.2067-2.8468,4.2307-6.8032,2.9575-9.9999-1.2731-3.1967-2.4364-3.7956-3.361-7.1607l.9252-2.8355a1.65064,1.65064,0,0,0-2.4252.4757,54.67857,54.67857,0,0,0-3.3011,5.0333S137.0578,143.9181,144.0583,148.7643Z" transform="translate(-13.38397 -36.58647)"/><path class="cls-1" d="M159.2185,152.6346l-.4099-11.3607,1.3195-6.0094a20.45107,20.45107,0,0,1,1.8604,4.8332,16.77553,16.77553,0,0,1-.2897,6.5517A31.17907,31.17907,0,0,1,159.2185,152.6346Z" transform="translate(-13.38397 -36.58647)"/></g></g><g id="Arm-5" data-name="Arm"><path class="cls-9" d="M102.6564,66.1773c-1.0857,3.2914-8.8981,21.7663-10.3977,26.0363a19.16419,19.16419,0,0,0-.6072,12.2429c.6023,2.303,4.7074,18.4822,7.7354,29.6142,2.2553,8.291,4.6749,15.3148,4.9709,29.3663,5.0423-1.981,9.5251-7.5307,12.9745-14.5744,4.1907-8.5573,5.5375-21.4061,5.5375-21.4061l-3.9971-5.1194c-2.717-9.0587-8.2592-23.8762-8.2592-23.8762s4.1517-25.439,4.8242-27.7317a10.10884,10.10884,0,0,1,2.7766-5.0059,54.43885,54.43885,0,0,1,4.3832-3.7492q1.5936-1.27875,3.085-2.6784a12.38994,12.38994,0,0,0,2.6132-2.651,1.31108,1.31108,0,0,0,.1816-.6546c-.0415-.9562-1.2708-1.3704-2.0577-1.1892a9.31993,9.31993,0,0,0-2.9409,1.5617c-.6056.401-2.1107,1.2723-2.5102.7252-.189-.2588-.2822-.8051.5094-2.1187,1.4455-2.3988,3.8419-5.7064,5.11-7.6807,1.0359-1.6129,2.0148-2.7026,2.0928-4.184a1.35606,1.35606,0,0,0-1.78-1.3006c-1.0249.5094-1.4778,1.2051-2.5577,2.6052-1.8534,2.4031-2.1872,2.8681-4.3446,5.5222-.4519.5558-.5726.6789-.8306.5165-.258-.1625-.0252-.7697.2439-1.3319s.7273-1.5378,1.5704-3.1232c.8968-1.6865,1.9809-3.6344,2.5075-4.8026.4653-1.0321,1.015-2.651-.1553-3.2205-1.3151-.6401-2.1422.7815-3.082,2.2542-.9399,1.4728-4.3335,6.9836-4.7762,7.6803s-.8349.3881-.5223-.3284c.3126-.7164,1.8854-4.3215,3.3091-7.5819.7697-1.7625.8017-2.938-.2635-3.3142-1.4008-.4948-2.3255,1.09-3.0095,2.2585-.684,1.1686-2.8418,5.9553-3.3884,7.1143-.2143.4544-.7602.4501-.6036-.4099.1565-.8601.5946-2.9824.8724-4.4904.2234-1.2132.1502-2.3949-.7836-2.6761-.9338-.2813-1.6145.8151-1.8653,1.6108-.2936.9319-1.331,4.5653-2.2227,7.5881-.4951,1.6785-1.4378,4.5401-1.8436,6.2539C104.1975,57.9726,103.7421,62.8859,102.6564,66.1773Z" transform="translate(-13.38397 -36.58647)"/><path class="cls-3" d="M116.7045,56.7168a6.791,6.791,0,0,0-6.5121,3.9565" transform="translate(-13.38397 -36.58647)"/><path class="cls-4" d="M123.5905,125.8994c-1.4784-2.1892-3.9296-4.3811-4.2955-6.1077-.3659-1.7265-5.1657-19.9058-5.4062-21.5691-.2405-1.6632.5808-6.7106,1.1679-9.8819.587-3.1714,1.4332-8.3089-.9791-8.8076L99.0581,74.8909s-2.5916-1.2025-4.8776,6.319c-2.286,7.5216-5.439,11.795-5.1291,19.6899.3099,7.895,3.0927,17.7023,5.693,26.9407s9.2625,28.8622,7.4554,41.3948C117.6511,159.6732,124.598,142.4904,123.5905,125.8994Z" transform="translate(-13.38397 -36.58647)"/><path class="cls-4" d="M101.5001,68.552a16.605,16.605,0,0,0,6.2249,4.3832,11.14754,11.14754,0,0,0,7.5061.2469l-1.1535,6.351c-3.8278,2.9145-12.5879.3925-15.0195-4.6422Z" transform="translate(-13.38397 -36.58647)"/><path class="cls-3" d="M114.0776,79.5331c-3.8278,2.9145-12.5879.3925-15.0195-4.6422" transform="translate(-13.38397 -36.58647)"/></g></g></g><g id="Character_1" data-name="Character 1"><g id="Character-3" data-name="Character"><g id="Legs-3" data-name="Legs"><g id="Leg-5" data-name="Leg"><path class="cls-13" d="M243.9022,224.6845c1.9847,19.4014,9.1901,33.4838,14.3857,53.687,3.844,14.9476,6.3343,34.9672,7.9713,49.7946,1.0888,9.862,1.346,21.2067,2.9354,39.3924,1.362,15.5846,4.7806,39.8668,4.7806,39.8668.7485,16.9148,19.8555,5.0603,19.7954-2.7689,0,0,1.8664-35.0266,4.1296-78.139,1.6016-30.5157,3.0281-85.167-9.647-101.8329Z" transform="translate(-13.38397 -36.58647)"/><path class="cls-10" d="M329.0919,426.8722c-.1075-1.0146-1.4481-3.5123-7.911-5.6618a34.23487,34.23487,0,0,1-9.5012-4.5588c-3.8548-2.5765-11.5717-7.7144-15.4337-12.4449-2.6396-3.2332-7.8021.4618-7.7558,4.0866a4.666,4.666,0,0,0-2.7047-.7151,5.541,5.541,0,0,0-2.4166,1.1648c-1.3735.9663-1.1932,1.0838-2.5669,2.0502a4.28956,4.28956,0,0,1-4.7969.4401c-1.0186-.7134-2.0299-3.808-2.0299-3.808l-.371-2.4238a2.72484,2.72484,0,0,0-2.0674,1.4402c-1.1394,2.3022-.4483,4.521-1.6958,9.2077a28.44566,28.44566,0,0,0-.6107,7.5485c2.151,2.153,6.5358,3.3516,11.8036,3.6352,5.2681.2837,11.0264.4986,15.6928,2.1521a57.38487,57.38487,0,0,0,11.9904,2.8488,50.95716,50.95716,0,0,0,14.659-.8046C328.2353,429.9621,329.1992,427.8869,329.0919,426.8722Z" transform="translate(-13.38397 -36.58647)"/><path class="cls-3" d="M303.3929,420.7109c3.1812-3.2104,7.2791-4.3077,8.8093-4.16" transform="translate(-13.38397 -36.58647)"/><path class="cls-3" d="M298.9883,418.0097c3.1811-3.2104,7.2791-4.3077,8.8093-4.16" transform="translate(-13.38397 -36.58647)"/><path class="cls-3" d="M295.143,415.3085c3.1812-3.2104,7.2791-4.3077,8.8094-4.16" transform="translate(-13.38397 -36.58647)"/><path class="cls-3" d="M291.3159,412.1964c3.1811-3.2104,7.2791-4.3077,8.8093-4.16" transform="translate(-13.38397 -36.58647)"/><path class="cls-6" d="M328.8094,435.1697c-3.8283,2.699-11.9101,3.7702-19.426,2.475-6.5122-1.1222-12.1206-3.7696-15.7322-4.7541-4.64-1.2649-9.3887-.5862-13.5953-1.0818-4.2056-.4879-8.7374-.9579-9.9863-2.6148-1.2484-1.6491-1.262-3.0806-.8396-5.9959,2.1495,2.1527,6.5395,3.3522,11.8046,3.6346,5.2652.2823,11.0501.4376,15.6925,2.1491,13.5185,4.9838,18.0685,4.4934,26.4694,2.6482,4.8577-1.067,6.0014-3.7392,5.8938-4.7546C329.8388,428.018,331.094,433.559,328.8094,435.1697Z" transform="translate(-13.38397 -36.58647)"/><path class="cls-6" d="M317.8576,420.0014c-3.9041-.5763-12.0571,3.6079-13.5546,11.469,12.6359,3.9511,26.1774.683,24.7874-4.5951C328.5774,424.9274,323.5743,420.8452,317.8576,420.0014Z" transform="translate(-13.38397 -36.58647)"/></g><g id="Leg-6" data-name="Leg"><path class="cls-13" d="M239.4086,224.3037c-9.1766,13.7586-21.1875,75.8196-22.7709,106.3182-2.2383,43.1136-4.1342,77.2919-4.1342,77.2919-.8747,7.7805,15.5946,6.8699,18.8367,3.1118,0,0,8.094-27.5876,11.6079-42.8318,3.6691-15.9169,2.7971-27.7721,5.8507-37.2125,3.4918-10.7957,8.122-35.4709,13.5015-49.9369,7.2735-19.5592,16.0127-34.1909,20.022-53.517Z" transform="translate(-13.38397 -36.58647)"/><path class="cls-10" d="M206.5091,423.1933c-2.346,3.8345-4.5386,5.2714-6.5424,9.2282a6.6303,6.6303,0,0,0,1.2925,7.703,11.26173,11.26173,0,0,0,4.7346,2.3767,29.705,29.705,0,0,0,15.6002.4563,8.80467,8.80467,0,0,0,5.0326-3.3361c1.3931-1.9472,2.8097-3.8781,4.2145-5.817.4971-.6862,1.7593-1.252,2.0196-3.287.1862-3.511.0042-4.5673.2399-7.522.4606-5.7736,1.9521-16.8392-.332-16.9048l-1.4284,4.935c-.9464.386-.8967-.3155-2.4047-2.2401a10.59668,10.59668,0,0,0-5.7405-3.5307c-3.5925-.6927-7.5245-.3537-9.4078.9292-2.3661,1.6119-1.7608,3.4023-3.0318,6.8299C209.4462,416.5443,208.4624,420.0007,206.5091,423.1933Z" transform="translate(-13.38397 -36.58647)"/><path class="cls-3" d="M208.5555,424.2652a20.81875,20.81875,0,0,1,14.2912,2.5568" transform="translate(-13.38397 -36.58647)"/><path class="cls-3" d="M210.0745,420.2341a20.81875,20.81875,0,0,1,14.2912,2.5568" transform="translate(-13.38397 -36.58647)"/><path class="cls-3" d="M211.1909,416.3647a20.81877,20.81877,0,0,1,14.2912,2.5569" transform="translate(-13.38397 -36.58647)"/><path class="cls-3" d="M212.1206,412.7009a20.81877,20.81877,0,0,1,14.2912,2.5569" transform="translate(-13.38397 -36.58647)"/><path class="cls-6" d="M232.4623,435.8206c-.0386,1.5901-1.0177,2.3857-1.9551,3.6707-.8009,1.0979-1.8375,2.4873-2.2096,2.9848a13.08041,13.08041,0,0,1-8.8658,5.2953c-7.4837,1.1215-16.0119-.6278-18.953-3.4662-2.0258-1.9672-1.7915-5.2663-.9574-9.9523h0c-.7409,5.587,2.961,6.9798,6.4758,8.1505a27.499,27.499,0,0,0,15.5946.4562,9.12821,9.12821,0,0,0,4.82-2.7507c1.2423-1.5799,2.2458-3.3807,3.5467-5.1889,1.2631-1.7556,2.7569-2.5685,2.9022-4.5026C232.7031,431.3396,232.494,434.5168,232.4623,435.8206Z" transform="translate(-13.38397 -36.58647)"/><path class="cls-6" d="M199.4452,437.3233a6.6646,6.6646,0,0,1,1.582-5.7786c2.6218-3.1207,6.975-4.398,12.1721-3.6535,7.6505,1.096,13.1444,5.391,13.2125,12.3177a9.12859,9.12859,0,0,1-4.82,2.7507,27.4995,27.4995,0,0,1-15.5945-.4562C203.2147,441.5766,200.2091,440.5027,199.4452,437.3233Z" transform="translate(-13.38397 -36.58647)"/></g><g id="Pants"><path class="cls-1" d="M271.0564,388.9015s13.4824,3.0448,24.0429-1.6926c.0004-.007,6.1816-78.6289,3.2771-115.3445-1.7863-22.5798-6.4559-40.2983-10.1232-48.463-9.23,3.7996-39.2603,2.5791-49.4097-.9768-6.2947,11.4544-11.5384,28.5249-14.4778,42.6333-9.3275,44.7695-11.3508,120.9747-11.3508,120.9748a35.13425,35.13425,0,0,0,25.1513,3.2023l22.6275-92.0275C260.7985,297.2391,271.0564,388.9015,271.0564,388.9015Z" transform="translate(-13.38397 -36.58647)"/><path class="cls-4" d="M238.8435,223.4971l.6341-7.6521s12.2213,4.4676,24.2409,4.4676a69.77036,69.77036,0,0,0,23.9582-4.5609l.5765,7.6497s-8.3637,5.2575-24.5415,5.4833C247.5338,229.1106,238.8435,223.4971,238.8435,223.4971Z" transform="translate(-13.38397 -36.58647)"/><path class="cls-1" d="M244.8267,226.4515a2.41051,2.41051,0,0,0,.863,1.875,3.21987,3.21987,0,0,0,2.0216.6344.78643.78643,0,0,0,.8939-.785,74.40456,74.40456,0,0,1,1.3706-9.146,1.95133,1.95133,0,0,0,.0801-.7757.89844.89844,0,0,0-.5223-.6556,3.67133,3.67133,0,0,0-2.5244-.3639.87027.87027,0,0,0-.4758.2351,2.25214,2.25214,0,0,0-.4012.9038,36.78306,36.78306,0,0,0-.8362,3.6033A26.55755,26.55755,0,0,0,244.8267,226.4515Z" transform="translate(-13.38397 -36.58647)"/><path class="cls-1" d="M283.9683,225.7171a2.41061,2.41061,0,0,1-.8629,1.875,3.22032,3.22032,0,0,1-2.0217.6344.78635.78635,0,0,1-.8938-.785,74.42374,74.42374,0,0,0-1.3707-9.146,1.95314,1.95314,0,0,1-.0801-.7757.89854.89854,0,0,1,.5224-.6556,3.671,3.671,0,0,1,2.5243-.3639.87027.87027,0,0,1,.4758.2351,2.25077,2.25077,0,0,1,.4012.9038,36.81877,36.81877,0,0,1,.8363,3.6033A26.55748,26.55748,0,0,1,283.9683,225.7171Z" transform="translate(-13.38397 -36.58647)"/><path class="cls-6" d="M270.0329,383.5571c6.5333,3.2586,19.035,3.0861,25.7168-1.0407l-.6067,6.7282c-4.8884,4.2697-18.2313,4.6872-24.5024,1.0093Z" transform="translate(-13.38397 -36.58647)"/><path class="cls-6" d="M239.4389,385.25c-7.1745,2.3526-20.0765.5003-26.4518-4.4906l-.2407,6.7536c4.5028,4.8914,18.2428,7.0998,25.2004,4.2961Z" transform="translate(-13.38397 -36.58647)"/><path class="cls-7" d="M270.5732,269.3026c-5.0374,6.7398-7.8723,22.6391-9.9549,31.5739" transform="translate(-13.38397 -36.58647)"/></g></g><g id="Head-3" data-name="Head"><path class="cls-1" d="M286.7113,144.5217a65.74908,65.74908,0,0,0-5.6106-17.2398c3.1364-7.0568-6.3547-12.519-15.8663-12.2842a22.64056,22.64056,0,0,0-15.0609,6.9664l-.0285.007c-2.7835.134-7.1723,4.4648-6.6161,12.387.5563,7.9221-.2256,11.3705,0,16.7523.2391,5.7057-.5863,8.292-.5863,8.292,18.8406,4.8631,31.187,2.598,37.356.5277a29.45348,29.45348,0,0,0,1.7197-10.7884,20.33049,20.33049,0,0,1,2.0782,9.2725S288.0045,153.0154,286.7113,144.5217Z" transform="translate(-13.38397 -36.58647)"/><path class="cls-13" d="M254.5333,122.1978c.9439,6.2367-4.4984,13.8651-4.4984,13.8651a21.30535,21.30535,0,0,1,1.5448,4.9606,8.01429,8.01429,0,0,0-5.365-3.6136c-2.2319-.3003-4.7209.8636-5.4107,2.9089-.6821,2.0221.572,4.3349,2.4993,5.4098a8.13916,8.13916,0,0,0,7.1584.1728l.0032-.0016a11.70586,11.70586,0,0,0,5.353,5.7597l-.9724,9.2555-2.6877.5209,18.6578,11.6732.7939-10.161-3.0824-.9839-.4161-7.5333c3.7788-.1735,14.8905-2.9885,13.8372-17.3896a20.619,20.619,0,0,0-2.2252-7.9238l-.0006.0002C276.7409,124.2882,272.3616,118.8467,254.5333,122.1978Z" transform="translate(-13.38397 -36.58647)"/><path class="cls-3" d="M243.5289,140.6638a4.11477,4.11477,0,0,1,3.076-.0498,3.92546,3.92546,0,0,1,2.4992,2.7702" transform="translate(-13.38397 -36.58647)"/><path class="cls-3" d="M245.5937,142.2209a3.03809,3.03809,0,0,1,3.0299.0127" transform="translate(-13.38397 -36.58647)"/><path class="cls-1" d="M260.2766,153.2603a17.78757,17.78757,0,0,0,7.8375,1.1706l.1164,2.1072A12.057,12.057,0,0,1,260.2766,153.2603Z" transform="translate(-13.38397 -36.58647)"/><path class="cls-3" d="M266.3348,130.0723a13.39039,13.39039,0,0,0,2.0301,6.7594,3.67032,3.67032,0,0,1,.4818,1.1394,2.2084,2.2084,0,0,1-.5573,1.7189,6.0614,6.0614,0,0,1-1.4485,1.1604" transform="translate(-13.38397 -36.58647)"/><path class="cls-8" d="M277.2239,135.0744a3.73735,3.73735,0,0,0-3.2803-2.4202c-1.4722-.0844-3.5676.6555-3.9075,2.7192C270.6279,137.4293,275.3026,137.9457,277.2239,135.0744Z" transform="translate(-13.38397 -36.58647)"/><path class="cls-1" d="M275.3772,136.074a2.04632,2.04632,0,0,1-2.7398.8826,2.01317,2.01317,0,0,1-.9993-2.6788,2.0462,2.0462,0,0,1,2.7398-.8825A2.01309,2.01309,0,0,1,275.3772,136.074Z" transform="translate(-13.38397 -36.58647)"/><polygon class="cls-8" points="258.111 97.636 260.124 98.589 257.832 98.743 258.111 97.636"/><path class="cls-3" d="M270.0362,135.3734a4.25465,4.25465,0,0,1,3.6323-2.3039,3.78587,3.78587,0,0,1,3.608,1.5066" transform="translate(-13.38397 -36.58647)"/><path class="cls-3" d="M278.6722,133.6932a1.57325,1.57325,0,0,1-1.3925.8528" transform="translate(-13.38397 -36.58647)"/><path class="cls-3" d="M271.7704,128.357a7.23687,7.23687,0,0,1,5.8819.3301" transform="translate(-13.38397 -36.58647)"/><path class="cls-8" d="M256.1235,135.3029a3.73744,3.73744,0,0,1,3.2486-2.4627c1.471-.1035,3.5757.609,3.9425,2.6681C262.7496,137.5718,258.082,138.1489,256.1235,135.3029Z" transform="translate(-13.38397 -36.58647)"/><path class="cls-1" d="M261.3584,135.8754a2.04634,2.04634,0,0,1-2.5358,1.3621,2.013,2.013,0,0,1-1.4659-2.4547,2.04629,2.04629,0,0,1,2.5358-1.3621A2.01315,2.01315,0,0,1,261.3584,135.8754Z" transform="translate(-13.38397 -36.58647)"/><polygon class="cls-8" points="243.822 98.167 245.974 98.743 243.747 99.307 243.822 98.167"/><path class="cls-3" d="M263.3145,135.5084a4.25476,4.25476,0,0,0-3.662-2.2565,3.78586,3.78586,0,0,0-3.5881,1.5534" transform="translate(-13.38397 -36.58647)"/><path class="cls-3" d="M254.6573,133.9406a1.57332,1.57332,0,0,0,1.4036.8346" transform="translate(-13.38397 -36.58647)"/><path class="cls-3" d="M261.9271,128.2106c-2.5753-.3846-4.7036-.1579-6.3519,1.0736" transform="translate(-13.38397 -36.58647)"/><path class="cls-1" d="M265.2344,144.0523c1.1645.062,2.5829.2889,3.0014,1.304a3.1513,3.1513,0,0,1,1.4964-1.5864,4.4283,4.4283,0,0,0-2.3106-.4789A5.69044,5.69044,0,0,0,265.2344,144.0523Z" transform="translate(-13.38397 -36.58647)"/><path class="cls-8" d="M263.3018,144.6064a4.4439,4.4439,0,0,0,4.2373,1.5243c.5137-.0935.5332-.4162.6967-.7744-.0868-.4878-.8937-1.4062-3.0014-1.304A4.12231,4.12231,0,0,1,263.3018,144.6064Z" transform="translate(-13.38397 -36.58647)"/><path class="cls-3" d="M270.8626,143.8048c-1.1635.0562-2.2794-.6002-3.441-.5138a8.70814,8.70814,0,0,0-2.549.9189,2.64315,2.64315,0,0,1-2.5958-.0575" transform="translate(-13.38397 -36.58647)"/><path class="cls-3" d="M269.8382,143.8019a3.5386,3.5386,0,0,0-1.7007,1.7751.75721.75721,0,0,1-.5984.5537,4.60065,4.60065,0,0,1-4.284-1.5912" transform="translate(-13.38397 -36.58647)"/><path class="cls-4" d="M252.031,146.6062a2.10655,2.10655,0,1,1-2.1065-2.1065A2.10657,2.10657,0,0,1,252.031,146.6062Z" transform="translate(-13.38397 -36.58647)"/><path class="cls-3" d="M265.3901,135.4614a5.36575,5.36575,0,1,1-5.3657-5.3658A5.36569,5.36569,0,0,1,265.3901,135.4614Z" transform="translate(-13.38397 -36.58647)"/><path class="cls-3" d="M280.7676,135.4614a5.3657,5.3657,0,1,1-5.3657-5.3658A5.36569,5.36569,0,0,1,280.7676,135.4614Z" transform="translate(-13.38397 -36.58647)"/><path class="cls-3" d="M265.3901,135.4614a3.20934,3.20934,0,0,1,4.646-.088" transform="translate(-13.38397 -36.58647)"/><line class="cls-3" x1="241.27463" y1="98.87493" x2="235.23963" y2="100.90563"/></g><g id="Chest-4" data-name="Chest"><path id="Chest-5" data-name="Chest" class="cls-10" d="M287.4098,166.7256l-13.4088-4.9672c-1.6394-3.875-3.4948-4.3677-5.7424-4.6557l.2685,4.8615c1.177,4.1203-1.0438,8.7489-1.0438,8.7489s-9.8052-6.6765-12.6378-9.7981l.398-3.7879s-4.0631-.6705-5.6965,5.0075l-11.5264,3.8869a64.80767,64.80767,0,0,0-3.6394,24.6078c.4292,8.6149.5986,13.7293.6655,19.2187a8.53626,8.53626,0,0,0,6.1587,8.1051c4.9561,1.4358,13.0113,3.0137,24.4779,3.0137,9.9813,0,16.092-1.3566,19.7768-2.8173a8.47984,8.47984,0,0,0,5.3026-7.8642c.0353-7.0842.0835-17.2938-.0438-21.998A82.98539,82.98539,0,0,0,287.4098,166.7256Z" transform="translate(-13.38397 -36.58647)"/><path class="cls-3" d="M267.4833,175.8412a254.58743,254.58743,0,0,1-1.1485,43.943" transform="translate(-13.38397 -36.58647)"/><path class="cls-7" d="M259.5004,173.9634c5.3614,3.289,12.4291,1.8373,15.1106-1.3072" transform="translate(-13.38397 -36.58647)"/><path class="cls-3" d="M264.448,172.0554l-3.1308-2.4934-4.4751,7.323s-7.4267-5.8661-6.8899-13.7472" transform="translate(-13.38397 -36.58647)"/><path class="cls-3" d="M269.6597,172.0023l1.6936-3.0389a47.88639,47.88639,0,0,1,5.2952,6.4463c1.5655-5.2952-2.2102-12.6163-2.2102-12.6163" transform="translate(-13.38397 -36.58647)"/></g><g id="Arm-6" data-name="Arm"><path class="cls-13" d="M203.34,234.7863c-2.6089,3.077-2.8055,5.1847-6.3363,8.8235-1.8215,1.8772-3.58,6.7928-5.1081,8.4047a1.83992,1.83992,0,0,1-2.7399-.1432c-1.3712,3.2838-2.9317,3.9637-4.5898,2.2524-1.2132,1.8609-3.1905.5718-2.888-2.5254a1.67329,1.67329,0,0,1-2.6458.2343,4.01659,4.01659,0,0,1-.4198-3.2167c.9538-4.0992,3.1346-7.7614,5.3799-11.2321-.5212-.1645-2.3612,2.4187-3.0287,3.0844-.7082.7062-1.4027,1.3924-2.3371,1.2543a1.65714,1.65714,0,0,1-1.5784-1.7488,6.5964,6.5964,0,0,1,1.0066-1.7205,28.12468,28.12468,0,0,1,3.2815-4.6846c3.5798-3.8446,7.0575-5.9141,11.5356-8.66a15.38171,15.38171,0,0,0,4.4696-3.9162c1.4814-1.9183,2.7857-3.973,4.1337-5.9851,3.0178-4.5067,7.3895-9.541,10.3404-14.092,0,0,8.3935-15.0934,13.4715-23.5606,3.5557-5.9291,7.8949-8.1001,12.4576-9.8944l-.1907,24.7091s-4.7477,6.4384-8.5872,11.7727c-4.7766,6.6364-5.8316,8.3253-10.2248,13.5664C214.005,223.1597,205.9489,231.7092,203.34,234.7863Z" transform="translate(-13.38397 -36.58647)"/><path class="cls-3" d="M187.6337,240.0425c-2.7182,3.7553-5.7923,9.2112-5.9558,11.5558" transform="translate(-13.38397 -36.58647)"/><path class="cls-3" d="M190.2356,241.9707c-4.8891,7.6803-4.6897,10.65-5.6697,12.153" transform="translate(-13.38397 -36.58647)"/><path class="cls-3" d="M193.465,243.2268a54.55257,54.55257,0,0,0-4.3093,8.6445" transform="translate(-13.38397 -36.58647)"/><path class="cls-10" d="M238.0206,166.0215c4.5916,6.3336,1.6929,32.4666,1.6929,32.4666s-5.7418,9.6341-12.8088,15.6069c-2.907,2.4568-11.7651,10.2356-14.3388,12.4978a.64291.64291,0,0,1-1.0256-.2674,16.20689,16.20689,0,0,0-10.9319-10.1034.63761.63761,0,0,1-.3505-.9774c1.8648-2.6319,8.2727-11.6887,10.7759-15.3919,3.9729-5.8776,7.761-14.1663,9.6443-17.1951C227.7819,171.2323,230.2084,168.742,238.0206,166.0215Z" transform="translate(-13.38397 -36.58647)"/><path class="cls-3" d="M187.9894,235.1365c-1.7929,1.9113-2.8884,1.0229-4.9612,2.9258" transform="translate(-13.38397 -36.58647)"/><path class="cls-3" d="M236.3466,181.237c-1.6894,6.826-1.9888,12.8058-1.4529,23.6857" transform="translate(-13.38397 -36.58647)"/></g><g id="Arm-7" data-name="Arm"><path class="cls-13" d="M322.461,234.7863c2.6089,3.077,2.8055,5.1847,6.3362,8.8235,1.8216,1.8772,3.5801,6.7928,5.1082,8.4047a1.83992,1.83992,0,0,0,2.7399-.1432c1.3712,3.2838,2.9317,3.9637,4.5898,2.2524,1.2132,1.8609,3.1904.5718,2.888-2.5254a1.67329,1.67329,0,0,0,2.6458.2343,4.01659,4.01659,0,0,0,.4198-3.2167c-.9538-4.0992-3.1346-7.7614-5.3799-11.2321.2606-.0823.8509.5224,1.4594,1.2308.6086.7085,1.2355,1.5207,1.5693,1.8536.7082.7062,1.4027,1.3924,2.337,1.2543a1.65716,1.65716,0,0,0,1.5785-1.7488,6.59919,6.59919,0,0,0-1.0066-1.7205,28.11934,28.11934,0,0,0-3.2816-4.6846c-3.5797-3.8446-7.0574-5.9141-11.5355-8.66a15.38171,15.38171,0,0,1-4.4696-3.9162c-1.4814-1.9183-2.7857-3.973-4.1338-5.9851-3.0177-4.5067-7.3894-9.541-10.3403-14.092,0,0-8.3935-15.0934-13.4715-23.5606a25.24589,25.24589,0,0,0-13.1043-10.6291l.8373,25.4438s4.7478,6.4384,8.5873,11.7727c4.7766,6.6364,5.8316,8.3253,10.2248,13.5664C311.796,223.1597,319.8521,231.7092,322.461,234.7863Z" transform="translate(-13.38397 -36.58647)"/><path class="cls-3" d="M338.1673,240.0425c2.7181,3.7553,5.7923,9.2112,5.9558,11.5558" transform="translate(-13.38397 -36.58647)"/><path class="cls-3" d="M335.5654,241.9707c4.8891,7.6803,4.6897,10.65,5.6697,12.153" transform="translate(-13.38397 -36.58647)"/><path class="cls-3" d="M332.336,243.2268a54.55257,54.55257,0,0,1,4.3093,8.6445" transform="translate(-13.38397 -36.58647)"/><path class="cls-10" d="M287.4098,166.7256c-4.5916,6.3336-1.3223,31.7625-1.3223,31.7625s5.7418,9.6341,12.8088,15.6069c2.9069,2.4568,11.7651,10.2356,14.3388,12.4978a.64292.64292,0,0,0,1.0256-.2674,16.20689,16.20689,0,0,1,10.9319-10.1034.63766.63766,0,0,0,.3505-.9774c-1.8649-2.6319-8.2728-11.6887-10.7759-15.3919-3.9729-5.8776-7.761-14.1663-9.6443-17.1951C298.0191,171.2323,295.9549,169.2712,287.4098,166.7256Z" transform="translate(-13.38397 -36.58647)"/><path class="cls-3" d="M337.8116,235.1365c1.7929,1.9113,2.8884,1.0229,4.9611,2.9258" transform="translate(-13.38397 -36.58647)"/><path class="cls-3" d="M289.4544,181.237c1.6894,6.826,1.9888,12.8058,1.4529,23.6857" transform="translate(-13.38397 -36.58647)"/></g></g></g><g id="Banner"><g id="Banner-2" data-name="Banner"><path class="cls-6" d="M409.2945,319.9518c-95.8967,1.514-191.1548,1.5139-287.051,0a2.99939,2.99939,0,0,1-2.9979-2.4275,249.24707,249.24707,0,0,1,.0002-74.716,2.999,2.999,0,0,1,2.9978-2.4275c95.8962-1.5141,191.1543-1.5141,287.051,0a2.99923,2.99923,0,0,1,2.9979,2.4275,249.28908,249.28908,0,0,1-.0001,74.7159A2.99923,2.99923,0,0,1,409.2945,319.9518Z" transform="translate(-13.38397 -36.58647)"/><path class="cls-10" d="M184.0909,266.9397l-4.5188,15.7728-5.5498-18.2978-6.2904.059-5.1833,18.3249-4.7924-15.6112a3.66141,3.66141,0,0,0-3.5347-2.5867l-.0504.0005a3.6614,3.6614,0,0,0-3.4448,4.8014l7.6568,23.3638a4.28212,4.28212,0,0,0,4.1093,2.9484l.0337-.0004a4.28191,4.28191,0,0,0,4.0816-3.1213l4.3709-15.5237,4.6926,15.445a4.28186,4.28186,0,0,0,4.1376,3.0371h0a4.282,4.282,0,0,0,4.0514-3.0199l7.2492-23.5044a3.66135,3.66135,0,0,0-3.533-4.7403h0A3.66149,3.66149,0,0,0,184.0909,266.9397Z" transform="translate(-13.38397 -36.58647)"/><path class="cls-10" d="M219.9883,268.1998l.0051-.1767a3.233,3.233,0,0,0-3.1384-3.3248l-13.3897-.3866v.0001l-3.0127-.0868a3.233,3.233,0,0,0-3.3248,3.1384l-.7133,24.7138a3.23313,3.23313,0,0,0,3.1387,3.325l4.4913.1292,12.1748.3518a3.233,3.233,0,0,0,3.325-3.1381l.0051-.1766a3.23289,3.23289,0,0,0-3.1382-3.3252l-12.0272-.3476.1737-6.0239,10.4445.3009a3.233,3.233,0,0,0,3.3248-3.1385h0a3.23307,3.23307,0,0,0-3.1383-3.3248l-10.4445-.3018.1559-5.4086,11.7633.3393A3.23307,3.23307,0,0,0,219.9883,268.1998Z" transform="translate(-13.38397 -36.58647)"/><path class="cls-10" d="M243.0731,288.949l-10.0295-.1106.269-24.4139-7.874-.0867-.3435,31.1884,7.8739.0863h0l10.0294.1106a3.38725,3.38725,0,0,0,3.4244-3.3499h0A3.38723,3.38723,0,0,0,243.0731,288.949Z" transform="translate(-13.38397 -36.58647)"/><path class="cls-10" d="M269.9253,288.7556a10.18228,10.18228,0,0,1-3.901.4845,9.03892,9.03892,0,0,1-3.4157-.8127,7.65436,7.65436,0,0,1-2.6081-1.9834,8.57422,8.57422,0,0,1-1.6331-2.9679,11.2803,11.2803,0,0,1,.3803-7.4693,8.60405,8.60405,0,0,1,1.9262-2.7871,7.436,7.436,0,0,1,2.7952-1.6857,9.34071,9.34071,0,0,1,3.4798-.4392,9.59515,9.59515,0,0,1,3.7865.8977q.318.1572.6137.3344a3.6051,3.6051,0,0,0,4.3002-.3291l.115-.1039a3.5242,3.5242,0,0,0-.618-5.6887q-.61305-.3408-1.2644-.6377a17.95317,17.95317,0,0,0-6.5749-1.5023,17.11059,17.11059,0,0,0-6.587.8977,16.802,16.802,0,0,0-5.4444,3.1144,15.18857,15.18857,0,0,0-3.7729,4.8958,16.9012,16.9012,0,0,0-.6503,12.7624,15.35145,15.35145,0,0,0,3.2542,5.2975,16.22307,16.22307,0,0,0,5.1213,3.6532,17.65839,17.65839,0,0,0,6.5289,1.5433,18.25347,18.25347,0,0,0,6.8023-.7981q.66015-.2241,1.2928-.4962a3.52426,3.52426,0,0,0,1.1909-5.5954l-.116-.1284a3.56217,3.56217,0,0,0-4.1843-.7887A8.5297,8.5297,0,0,1,269.9253,288.7556Z" transform="translate(-13.38397 -36.58647)"/><path class="cls-10" d="M313.6591,273.6568a15.7224,15.7224,0,0,0-8.766-8.567,18.843,18.843,0,0,0-13.2859-.0158,15.79119,15.79119,0,0,0-10.0479,14.8787,16.0368,16.0368,0,0,0,1.2682,6.4024,15.8211,15.8211,0,0,0,3.5353,5.1735,16.32124,16.32124,0,0,0,5.2965,3.4379,18.49845,18.49845,0,0,0,13.2192.0376,15.69156,15.69156,0,0,0,5.2616-3.4251,16.5531,16.5531,0,0,0,3.519-17.9222Zm-7.8662,11.1644a7.71766,7.71766,0,0,1-2.9952,3.208,8.83154,8.83154,0,0,1-4.577,1.1383,9.44806,9.44806,0,0,1-3.5618-.6427,7.5875,7.5875,0,0,1-2.7252-1.851,8.02024,8.02024,0,0,1-1.7348-2.9055,11.43822,11.43822,0,0,1-.5888-3.8053,10.39457,10.39457,0,0,1,1.0614-4.7941,7.572,7.572,0,0,1,2.9952-3.1858,8.96333,8.96333,0,0,1,4.5762-1.1165,9.18439,9.18439,0,0,1,3.5626.6644,7.8787,7.8787,0,0,1,2.7252,1.8728,8.06565,8.06565,0,0,1,1.7339,2.8837,10.97014,10.97014,0,0,1,.5897,3.696A10.495,10.495,0,0,1,305.7929,284.8212Z" transform="translate(-13.38397 -36.58647)"/><path class="cls-10" d="M352.1257,291.4318l-.5138-27.2923-5.6743.1068-10.2785,16.2456-10.9214-15.846-5.6743.1068.5145,27.292a3.89324,3.89324,0,0,0,3.966,3.8191l.0438-.0009a3.89315,3.89315,0,0,0,3.819-3.9657l-.2269-12.058,6.0616,8.8018,5.1017-.0957,5.7704-9.0378.2272,12.0709a3.893,3.893,0,0,0,3.9655,3.8192h0A3.89321,3.89321,0,0,0,352.1257,291.4318Z" transform="translate(-13.38397 -36.58647)"/><path class="cls-10" d="M377.8157,289.0747l-12.0318-.1132.0566-6.0265,10.4481.098a3.23327,3.23327,0,0,0,3.2635-3.2029h0a3.23327,3.23327,0,0,0-3.2029-3.2635l-10.4478-.098.0508-5.4111,11.7669.1104a3.23342,3.23342,0,0,0,3.2636-3.2029l.0016-.1757a3.23334,3.23334,0,0,0-3.2028-3.2636l-13.3948-.126v.0001l-3.0136-.0282a3.23336,3.23336,0,0,0-3.2636,3.2029l-.2316,24.7222a3.23336,3.23336,0,0,0,3.2027,3.2635l4.6409.0438v-.0002l12.0319.1127a3.23347,3.23347,0,0,0,3.2635-3.2029l.0016-.1754A3.23325,3.23325,0,0,0,377.8157,289.0747Z" transform="translate(-13.38397 -36.58647)"/><path class="cls-4" d="M144.5872,286.0904l-10.874,5.8623a3.50033,3.50033,0,1,0,3.3223,6.1621l10.874-5.8623a3.50033,3.50033,0,0,0-3.3223-6.1621Zm-1.2539-6.4414a3.49989,3.49989,0,0,0,.2393-6.9913l-12.3243-.8584a3.49971,3.49971,0,0,0-.4863,6.9825l12.3242.8584C143.1692,279.646,143.2513,279.649,143.3333,279.649Zm260.4111,12.3037-10.874-5.8623a3.50033,3.50033,0,0,0-3.3223,6.1621l10.8741,5.8623a3.5003,3.5003,0,1,0,3.3222-6.1621Zm-13.2636-11.8741c.082,0,.164-.0029.247-.0087l12.3233-.8584a3.49971,3.49971,0,0,0-.4864-6.9825l-12.3232.8584a3.49984,3.49984,0,0,0,.2393,6.9912Z" transform="translate(-13.38397 -36.58647)"/><path class="cls-13" d="M348.7531,239.9736a6.604,6.604,0,0,0-1.0067-1.7204l-4.4783.3614c.6086.7085,1.2356,1.5207,1.5695,1.8536.7082.7062,1.4025,1.3924,2.337,1.2543A1.65739,1.65739,0,0,0,348.7531,239.9736Z" transform="translate(-13.38397 -36.58647)"/><path class="cls-13" d="M177.048,239.9736a6.60122,6.60122,0,0,1,1.0066-1.7204l4.4783.3614c-.6086.7085-1.2355,1.5207-1.5694,1.8536-.7082.7062-1.4026,1.3924-2.337,1.2543A1.65732,1.65732,0,0,1,177.048,239.9736Z" transform="translate(-13.38397 -36.58647)"/></g></g></svg>