<svg xmlns="http://www.w3.org/2000/svg" viewBox="0 0 488 448.9613"><defs><style>.cls-1{fill:#c2c2c2;}.cls-2,.cls-9{fill:#fff;}.cls-10,.cls-11,.cls-13,.cls-2,.cls-3,.cls-4,.cls-7,.cls-8{stroke:#263238;}.cls-11,.cls-2,.cls-3,.cls-4,.cls-7,.cls-8{stroke-linecap:round;stroke-linejoin:round;}.cls-11,.cls-12,.cls-3{fill:none;}.cls-4,.cls-5{fill:#263238;}.cls-13,.cls-6,.cls-7{fill:#92e3a9;}.cls-8{fill:#bababa;}.cls-9{opacity:0.3;}.cls-10{fill:gray;}.cls-10,.cls-12,.cls-13{stroke-miterlimit:10;}.cls-11,.cls-12{stroke-width:2px;}.cls-12{stroke:gray;}.cls-13{stroke-width:0.97273px;}</style></defs><g id="Plants"><path class="cls-1" d="M367.22689,163.3472c3.2087,1.4019,11.0593,1.2253,11.065,1.2252.0815-.002-1.6872-5.1387-1.8356-5.4503-1.7229-3.6028-7.1692-9.5516-11.6014-8.953a5.2926,5.2926,0,0,0-4.2472,6.6326C361.34379,159.8722,364.49349,162.1527,367.22689,163.3472Z" transform="translate(-9.5 -19.8724)"/><path class="cls-1" d="M446.62579,165.0739c.069.0435,1.4275-5.2166,1.4754-5.5585.5506-3.9552-.71019-11.9216-4.7374-13.867a5.29236,5.29236,0,0,0-7.2012,3.1888c-1.0797,2.9669.2893,6.6069,1.9099,9.111C439.97559,160.8877,446.62059,165.0708,446.62579,165.0739Z" transform="translate(-9.5 -19.8724)"/><path class="cls-1" d="M470.05539,136.6277c-4.4465-.4785-9.7299,5.6151-11.355,9.2631-.14.3156-1.7695,5.4984-1.6873,5.4978l.09491-.0012c-.84161.9554-1.73271,1.9896-2.68381,3.1392-1.7391,2.1367-3.685,4.5671-5.6243,7.3548a93.95592,93.95592,0,0,0-5.8311,9.2901,69.03979,69.03979,0,0,0-4.98179,11.2141c-.01521.0458-.02511.0956-.04021.1416.0229-1.3098-.035-4.9748-.0716-5.2557-.51319-3.9603-3.8327-11.3111-8.2305-12.1244a5.293,5.293,0,0,0-6.1041,4.9776c-.2578,3.1465,2.0236,6.2962,4.2485,8.2831,2.5085,2.2408,9.4723,4.4112,10.0273,4.582a93.73582,93.73582,0,0,0-2.9419,12.1493c-.427,2.3924-.78249,4.8156-1.1087,7.2493-.0163-1.1333-.03979-2.1462-.0583-2.2877-.51349-3.9605-3.8332-11.3109-8.23049-12.1238a5.29255,5.29255,0,0,0-6.10421,4.9772c-.2581,3.1468,2.0237,6.296,4.2485,8.2833,2.2571,2.0159,8.157,3.9857,9.7252,4.4858-.115.9352-.24049,1.8676-.352,2.8028-.5367,4.488-1.0523,8.9695-1.6929,13.349-.2247,1.5437-.5035,3.0554-.7762,4.569-.016-1.0064-.03739-1.854-.0539-1.9827-.51349-3.9609-3.8329-11.3111-8.2309-12.1238a5.292,5.292,0,0,0-6.1041,4.9777c-.2578,3.1458,2.0242,6.2957,4.2487,8.2827,2.1537,1.9239,7.5833,3.7907,9.444,4.3942-.3267,1.5412-.6504,3.0861-1.0361,4.5653-.2866,1.0041-.4923,1.9905-.8356,2.9831q-.47924,1.48485-.9488,2.9399c-.672,1.8467-1.3536,3.7561-2.0545,5.5413-.4775,1.2452-.95619,2.4226-1.4345,3.6103.2422-1.5334.65231-4.5465.658-4.8019a20.54753,20.54753,0,0,0-2.7556-9.9971,6.25379,6.25379,0,0,0-.0734-1.1706,5.29253,5.29253,0,0,0-6.4713-4.4894c-4.3216,1.1506-7.0625,8.7362-7.26739,12.7244-.01241.2352.14209,2.8025.26579,4.4207-.2174-.9402-.4177-1.8552-.65379-2.8201-.45311-1.9114-.96141-3.8054-1.50111-5.8458q-.44265-1.46355-.8948-2.9567c-.27709-.9937-.69709-2.0078-1.0436-3.0233-.8553-2.3368-1.8347-4.6635-2.8738-6.9857,1.6728-.4011,7.5924-1.9098,9.9696-3.7341,2.3662-1.8155,4.876-4.7865,4.8534-7.9432a5.29226,5.29226,0,0,0-5.716-5.4184c-4.4461.4829-8.3045,7.5655-9.1112,11.4768-.0507.2441-.314,3.1153-.4279,4.6956-.6359-1.3913-1.263-2.7825-1.9515-4.1689-1.987-4.002-4.12309-7.991-6.2363-11.9801-.6483-1.2216-1.2785-2.4462-1.9154-3.6702.5969-.136,7.6723-1.7778,10.3344-3.8207,2.3663-1.8153,4.8764-4.7863,4.8539-7.9432a5.29252,5.29252,0,0,0-5.7161-5.4183c-4.4461.483-8.3045,7.5659-9.11159,11.4766-.06061.2947-.43381,4.4271-.47731,5.4826-1.4-2.6958-2.7706-5.395-4.0134-8.1111a93.15518,93.15518,0,0,1-4.36529-11.2731c.278-.0628,7.66989-1.7427,10.39719-3.8348,2.3664-1.8156,4.8764-4.7865,4.8534-7.9434a5.292,5.292,0,0,0-5.7157-5.4185c-4.4464.4828-8.3044,7.5656-9.1115,11.4764-.0531.2571-.3408,3.407-.4423,4.9069-.1396.0149-.1139.0122-.2534.0273a68.14925,68.14925,0,0,1-2.2749-11.9435c-.2493-2.2211-.3639-4.3582-.4279-6.4396,1.4087-.1714,7.8385-1.0275,10.5009-2.6397,2.5515-1.5448,5.3724-4.2217,5.6968-7.362a5.29254,5.29254,0,0,0-5.0865-6.0135c-4.47209-.008-9.0847,6.6081-10.3166,10.4067-.067.2063-.5151,2.3819-.8198,3.9709-.0142-.9396-.0469-1.9093-.0431-2.8102.006-3.3818.2201-6.4781.4317-9.2191.1329-1.5577.2843-2.9635.4391-4.2773,1.2947-.8897,6.4669-4.5409,8.0578-7.1505,1.5526-2.5464,2.8225-6.2225,1.6633-9.1588a5.293,5.293,0,0,0-7.2854-2.9934c-3.9729,2.0539-5.0177,10.0509-4.3605,13.9905.057.3402,1.5571,5.5621,1.6255,5.5163,0,0,.0634-.0429.0782-.0536-.1747,1.2612-.3475,2.6159-.50629,4.0989-.27191,2.7416-.55431,5.8421-.63381,9.2373a93.96181,93.96181,0,0,0,.2613,10.9651,69.02693,69.02693,0,0,0,2.0312,12.1016c.0128.0469.0322.0936.0448.1402-.7032-1.1051-2.7738-4.1297-2.9592-4.3442-2.6129-3.02-9.4368-7.3194-13.5531-5.5718a5.29284,5.29284,0,0,0-2.3454,7.5194c1.5209,2.7664,5.16121,4.1344,8.1127,4.5647,3.3287.4852,10.3344-1.5463,10.8914-1.7102a93.62248,93.62248,0,0,0,4.2488,11.7562c.96331,2.2313,2.0032,4.4487,3.07431,6.6583-.63891-.9362-1.21731-1.7683-1.31051-1.8762-2.6133-3.0203-9.4374-7.3193-13.5536-5.5715a5.29207,5.29207,0,0,0-2.3451,7.5188c1.5204,2.767,5.16121,4.135,8.1129,4.5652,2.9949.4361,9.0024-1.1754,10.5864-1.6234.4198.8431.829,1.6903,1.2521,2.5318,2.0289,4.0391,4.07081,8.0616,5.9523,12.0675.6642,1.4119,1.2657,2.8261,1.87351,4.2395-.56871-.8309-1.05431-1.5262-1.13941-1.6244-2.6128-3.0198-9.4365-7.3195-13.553-5.5714a5.2925,5.2925,0,0,0-2.3452,7.5191c1.5209,2.7664,5.1612,4.1344,8.1129,4.5645,2.8581.4166,8.4162-1.0213,10.3011-1.5445.5778,1.4656,1.1603,2.9327,1.6544,4.3792.31521.9956.688,1.932.9488,2.9491q.4194,1.5027.83041,2.9756c.45809,1.9109.94309,3.8795,1.34329,5.7551.28871,1.302.5391,2.5483.7953,3.8029-.6441-1.4127-1.9644-4.1519-2.1007-4.3683-2.1248-3.3811-8.2185-8.6646-12.5528-7.5605a5.29249,5.29249,0,0,0-3.4569,7.0768c1.0841,2.9651,4.4754,4.8688,7.3276,5.7412,3.1405.9601,10.0938.0828,10.9617-.0326.41651,2.0773.8022,4.1023,1.1351,6.0185.5746,3.2578,1.04,6.2549,1.41941,8.9283h2.88459c-.4553-2.7996-1.0125-5.9606-1.699-9.4148-.41459-2.1114-.8998-4.3594-1.41959-6.6629a57.61337,57.61337,0,0,0,6.11529-2.8753c2.2891,2.4783,8.1541,5.3797,8.9139,5.7488-.7986,1.9625-1.5941,3.8641-2.3733,5.6462-1.2005,2.7632-2.3536,5.2848-3.4256,7.558h3.0974c.8804-2.0028,1.81131-4.1845,2.769-6.5268.81931-1.9899,1.6549-4.1325,2.4917-6.3408.8414.1761,7.7249,1.5743,10.93261.8499,2.90919-.6574,6.43269-2.3033,7.73509-5.1793a5.29206,5.29206,0,0,0-2.9205-7.3146c-4.2391-1.4244-10.7102,3.3905-13.0812,6.6037-.14.1897-1.4275,2.4157-2.2172,3.834.3374-.904.6751-1.778,1.0106-2.7128.6766-1.844,1.2976-3.7045,1.9729-5.7038q.43847-1.465.8849-2.96c.3169-.9814.5266-2.0589.7972-3.0975.5759-2.4206,1.0426-4.9016,1.4569-7.4118,1.6165.5886,7.38631,2.5956,10.37531,2.3858,2.97509-.2091,6.70769-1.3021,8.43029-3.9477a5.29293,5.29293,0,0,0-1.7785-7.6731c-3.9747-2.0496-11.1,1.7292-13.9311,4.5464-.1765.1754-1.9802,2.4251-2.9474,3.68.2376-1.5107.4822-3.0174.6722-4.5534.5506-4.434.9697-8.9397,1.4077-13.4323.1333-1.3767.2831-2.7459.4275-4.1179.5724.2156,7.3796,2.7497,10.7271,2.5144,2.9754-.2085,6.7077-1.3021,8.4305-3.9477a5.29245,5.29245,0,0,0-1.7787-7.6725c-3.9745-2.0499-11.1004,1.729-13.9305,4.5458-.2133.2124-2.8042,3.4531-3.4228,4.3095.3191-3.0206.6654-6.0284,1.1268-8.9791a93.25613,93.25613,0,0,1,2.5781-11.8108c.2664.1012,7.35881,2.7779,10.7874,2.537,2.9755-.2087,6.7076-1.3018,8.4306-3.9478a5.29246,5.29246,0,0,0-1.7784-7.6726c-3.9751-2.05-11.1001,1.7289-13.9305,4.5459-.1861.1849-2.1616,2.6512-3.0746,3.8468-.1248-.0648-.1021-.053-.2269-.1175a68.153,68.153,0,0,1,4.6903-11.2145c1.0176-1.9902,2.1007-3.8352,3.19591-5.6072,1.26969.6341,7.10459,3.4671,10.21439,3.5916,2.9804.119,6.81-.5574,8.8129-2.9975a5.2928,5.2928,0,0,0-.925-7.8219c-3.7256-2.4742-11.2228.4996-14.3454,2.9885-.1698.1354-1.74389,1.7024-2.8746,2.86.5066-.7918,1.0143-1.6186,1.5142-2.3679,1.8709-2.8172,3.7573-5.2819,5.446-7.4514.9704-1.2256,1.8716-2.3146,2.726-3.325,1.5707-.0278,7.89851-.2202,10.6654-1.5185,2.6994-1.2679,5.7868-3.6331,6.4397-6.722A5.29238,5.29238,0,0,0,470.05539,136.6277Z" transform="translate(-9.5 -19.8724)"/><path class="cls-1" d="M23.2569,235.8891c3.2087,1.402,11.0593,1.2253,11.065,1.2252.0815-.002-1.6872-5.1387-1.8356-5.4503-1.7229-3.6027-7.1692-9.5516-11.6014-8.953a5.2926,5.2926,0,0,0-4.2472,6.6326C17.3738,232.4142,20.5235,234.6947,23.2569,235.8891Z" transform="translate(-9.5 -19.8724)"/><path class="cls-1" d="M102.6558,237.6158c.069.0435,1.4275-5.2166,1.4754-5.5584.5506-3.9553-.7102-11.9216-4.7374-13.8671a5.29236,5.29236,0,0,0-7.2012,3.1888c-1.0797,2.9669.2893,6.6069,1.9099,9.111C96.0056,233.4296,102.6506,237.6128,102.6558,237.6158Z" transform="translate(-9.5 -19.8724)"/><path class="cls-1" d="M126.0854,209.1697c-4.4465-.4786-9.7299,5.615-11.355,9.263-.14.3156-1.7695,5.4985-1.6873,5.4978l.0949-.0012c-.8416.9554-1.7327,1.9896-2.6838,3.1392-1.7391,2.1368-3.685,4.5671-5.6243,7.3548a93.95406,93.95406,0,0,0-5.8311,9.2901,69.038,69.038,0,0,0-4.9818,11.2142c-.0152.0458-.0251.0955-.0402.1415.0229-1.3098-.035-4.9748-.0716-5.2557-.5132-3.9603-3.8327-11.3111-8.2305-12.1244a5.293,5.293,0,0,0-6.1041,4.9777c-.2578,3.1464,2.0236,6.2961,4.2485,8.2831,2.5085,2.2407,9.4723,4.4111,10.0273,4.5819a93.73582,93.73582,0,0,0-2.9419,12.1493c-.427,2.3924-.7825,4.8156-1.1087,7.2494-.0163-1.1334-.0398-2.1463-.0583-2.2878-.5135-3.9605-3.8332-11.3109-8.2305-12.1238a5.29255,5.29255,0,0,0-6.1042,4.9773c-.2581,3.1467,2.0237,6.2959,4.2485,8.2832,2.2571,2.0159,8.157,3.9857,9.7252,4.4858-.115.9352-.2405,1.8676-.352,2.8028-.5367,4.488-1.0523,8.9695-1.6929,13.349-.2247,1.5437-.5035,3.0555-.7762,4.569-.016-1.0063-.0374-1.854-.0539-1.9827-.5135-3.9608-3.8329-11.3111-8.2309-12.1238a5.292,5.292,0,0,0-6.1041,4.9777c-.2578,3.1458,2.0242,6.2957,4.2487,8.2827,2.1537,1.9239,7.5833,3.7907,9.444,4.3942-.3267,1.5413-.6504,3.0861-1.0361,4.5653-.2866,1.0041-.4923,1.9906-.8356,2.9831q-.47925,1.48485-.9488,2.9399c-.672,1.8467-1.3536,3.7561-2.0545,5.5413-.4775,1.2452-.9562,2.4226-1.4345,3.6103.2422-1.5334.6523-4.5464.658-4.8019a20.54689,20.54689,0,0,0-2.7556-9.997,6.25432,6.25432,0,0,0-.0734-1.1707,5.2926,5.2926,0,0,0-6.4713-4.4894c-4.3216,1.1506-7.0625,8.7362-7.2674,12.7244-.0124.2352.1421,2.8025.2658,4.4207-.2174-.9402-.4177-1.8552-.6538-2.8201-.4531-1.9113-.9614-3.8054-1.5011-5.8458q-.44265-1.46355-.8948-2.9567c-.2771-.9937-.6971-2.0078-1.0436-3.0233-.8553-2.3368-1.8347-4.6635-2.8738-6.9857,1.6728-.4011,7.5924-1.9098,9.9696-3.7341,2.3662-1.8155,4.876-4.7865,4.8534-7.9432a5.29231,5.29231,0,0,0-5.716-5.4184c-4.4461.4829-8.3045,7.5655-9.1112,11.4768-.0507.2441-.314,3.1154-.4279,4.6956-.6359-1.3913-1.263-2.7825-1.9515-4.1689-1.987-4.002-4.1231-7.991-6.2363-11.9801-.6483-1.2215-1.2785-2.4461-1.9154-3.6702.5969-.1359,7.6723-1.7778,10.3344-3.8207,2.3663-1.8153,4.8764-4.7863,4.8539-7.9432a5.29252,5.29252,0,0,0-5.7161-5.4183c-4.4461.483-8.3045,7.5659-9.1116,11.4766-.0606.2947-.4338,4.4271-.4773,5.4826-1.4-2.6958-2.7706-5.395-4.0134-8.1111a93.15526,93.15526,0,0,1-4.3653-11.2731c.278-.0628,7.6699-1.7427,10.3972-3.8348,2.3664-1.8156,4.8764-4.7865,4.8534-7.9433a5.29205,5.29205,0,0,0-5.7157-5.4186c-4.4464.4828-8.3044,7.5656-9.1115,11.4765-.0531.257-.3408,3.4069-.4423,4.9068-.1396.0149-.1139.0122-.2534.0273a68.14752,68.14752,0,0,1-2.2749-11.9435c-.2493-2.2211-.3639-4.3582-.4279-6.4396,1.4087-.1714,7.8385-1.0275,10.5009-2.6397,2.5515-1.5448,5.3724-4.2217,5.6968-7.3619a5.29263,5.29263,0,0,0-5.0865-6.0136c-4.4721-.008-9.0847,6.6081-10.3166,10.4067-.067.2063-.5151,2.3819-.8198,3.9709-.0142-.9396-.0469-1.9092-.0431-2.8102.006-3.3818.2201-6.4781.4317-9.2191.1329-1.5577.2843-2.9635.4391-4.2773,1.2947-.8897,6.4669-4.5409,8.0578-7.1505,1.5526-2.5464,2.8225-6.2224,1.6633-9.1588a5.29293,5.29293,0,0,0-7.2854-2.9933c-3.9729,2.0538-5.0177,10.0508-4.3605,13.9904.057.3402,1.5571,5.5621,1.6255,5.5163,0,0,.0634-.0429.0782-.0536-.1747,1.2612-.3475,2.6159-.5063,4.099-.2719,2.7415-.5543,5.842-.6338,9.2372a93.96179,93.96179,0,0,0,.2613,10.9652,69.02741,69.02741,0,0,0,2.0312,12.1015c.0128.0469.0322.0936.0448.1402-.7032-1.1051-2.7738-4.1297-2.9592-4.3441-2.6129-3.02-9.4368-7.3195-13.5531-5.5719a5.29284,5.29284,0,0,0-2.3454,7.5194c1.5209,2.7664,5.1612,4.1344,8.1127,4.5647,3.3287.4852,10.3344-1.5463,10.8914-1.7102a93.61679,93.61679,0,0,0,4.2488,11.7562c.9633,2.2313,2.0032,4.4487,3.0743,6.6583-.6389-.9362-1.2173-1.7683-1.3105-1.8762-2.6133-3.0203-9.4374-7.3193-13.5536-5.5715a5.29207,5.29207,0,0,0-2.3451,7.5188c1.5204,2.767,5.1612,4.1351,8.1129,4.5652,2.9949.4361,9.0024-1.1754,10.5864-1.6234.4198.8431.829,1.6903,1.2521,2.5318,2.0289,4.0391,4.0708,8.0616,5.9523,12.0675.6642,1.4119,1.2657,2.8262,1.8735,4.2395-.5687-.8309-1.0543-1.5262-1.1394-1.6243-2.6128-3.0199-9.4365-7.3195-13.553-5.5715a5.29258,5.29258,0,0,0-2.3452,7.5192c1.5209,2.7663,5.1612,4.1343,8.1129,4.5644,2.8581.4166,8.4162-1.0213,10.3011-1.5445.5778,1.4656,1.1603,2.9327,1.6544,4.3792.3152.9956.688,1.932.9488,2.9491q.4194,1.5027.8304,2.9756c.4581,1.9109.9431,3.8796,1.3433,5.7551.2887,1.302.5391,2.5484.7953,3.8029-.6441-1.4127-1.9644-4.1519-2.1007-4.3683-2.1248-3.3811-8.2185-8.6646-12.5528-7.5604a5.29236,5.29236,0,0,0-3.4569,7.0767c1.0841,2.9651,4.4754,4.8688,7.3276,5.7413,3.1405.96,10.0938.0827,10.9617-.0327.4165,2.0773.8022,4.1023,1.1351,6.0185.5746,3.2578,1.04,6.2549,1.4195,8.9284h2.8845c-.4553-2.7997-1.0125-5.9607-1.699-9.4149-.4146-2.1114-.8998-4.3594-1.4196-6.6629a57.61221,57.61221,0,0,0,6.1153-2.8753c2.2891,2.4783,8.1541,5.3797,8.9139,5.7488-.7986,1.9625-1.5941,3.8641-2.3733,5.6463-1.2005,2.7631-2.3536,5.2847-3.4256,7.558h3.0974c.8804-2.0029,1.8113-4.1846,2.769-6.5269.8193-1.9899,1.6549-4.1324,2.4917-6.3408.8414.1761,7.7249,1.5743,10.9326.8499,2.9092-.6574,6.4327-2.3033,7.7351-5.1793a5.2921,5.2921,0,0,0-2.9205-7.3146c-4.2391-1.4243-10.7102,3.3905-13.0812,6.6037-.14.1897-1.4275,2.4157-2.2172,3.834.3374-.9039.6751-1.778,1.0106-2.7128.6766-1.844,1.2976-3.7045,1.9729-5.7037q.43845-1.4652.8849-2.9601c.3169-.9814.5266-2.0589.7972-3.0975.5759-2.4206,1.0426-4.9016,1.4569-7.4118,1.6165.5886,7.3863,2.5956,10.3753,2.3858,2.9751-.2091,6.7077-1.3021,8.4303-3.9477a5.29293,5.29293,0,0,0-1.7785-7.6731c-3.9747-2.0496-11.1,1.7292-13.9311,4.5464-.1765.1754-1.9802,2.4251-2.9474,3.68.2376-1.5107.4822-3.0173.6722-4.5534.5506-4.434.9697-8.9397,1.4077-13.4323.1333-1.3767.2831-2.7459.4275-4.1178.5724.2155,7.3796,2.7496,10.7271,2.5143,2.9754-.2085,6.7077-1.302,8.4305-3.9476a5.29243,5.29243,0,0,0-1.7787-7.6725c-3.9745-2.05-11.1004,1.7289-13.9305,4.5457-.2133.2124-2.8042,3.4531-3.4228,4.3095.3191-3.0206.6654-6.0284,1.1268-8.9791a93.25993,93.25993,0,0,1,2.5781-11.8108c.2664.1012,7.3589,2.7779,10.7874,2.537,2.9755-.2087,6.7076-1.3017,8.4306-3.9477a5.29257,5.29257,0,0,0-1.7784-7.6727c-3.9751-2.05-11.1001,1.7289-13.9305,4.5459-.1861.1849-2.1616,2.6512-3.0746,3.8469-.1248-.0649-.1021-.0531-.2269-.1176a68.1566,68.1566,0,0,1,4.6903-11.2145c1.0176-1.9902,2.1007-3.8352,3.1959-5.6072,1.2697.6341,7.1046,3.4672,10.2144,3.5916,2.9804.119,6.81-.5574,8.8129-2.9975a5.29281,5.29281,0,0,0-.925-7.8219c-3.7256-2.4741-11.2228.4997-14.3454,2.9885-.1698.1355-1.7439,1.7024-2.8746,2.86.5066-.7917,1.0143-1.6186,1.5142-2.3679,1.8709-2.8172,3.7573-5.2819,5.446-7.4514.9704-1.2256,1.8716-2.3146,2.726-3.325,1.5707-.0277,7.8985-.2202,10.6654-1.5185,2.6994-1.2678,5.7868-3.6331,6.4397-6.722A5.29225,5.29225,0,0,0,126.0854,209.1697Z" transform="translate(-9.5 -19.8724)"/></g><g id="Devie"><path class="cls-2" d="M56.7643,172.5962H431.72759a10.4558,10.4558,0,0,1,10.4558,10.4558V429.5536a0,0,0,0,1,0,0H46.3086a0,0,0,0,1,0,0V183.0519A10.4557,10.4557,0,0,1,56.7643,172.5962Z"/><rect class="cls-3" x="62.3684" y="192.671" width="363.75519" height="205.566"/><rect class="cls-4" x="109.1205" y="417.1836" width="272.06589" height="13.4049"/><rect class="cls-2" x="109.1205" y="423.6377" width="272.06589" height="6.9508"/><path class="cls-4" d="M23.7945,458.4045s4.4682,5.4612,17.8731,9.9292h425.972s9.9293-2.4826,14.3977-9.4328Z" transform="translate(-9.5 -19.8724)"/><path class="cls-2" d="M15.2805,428.7506H471.6053a1.8947,1.8947,0,0,1,1.8947,1.8947v6.6496a1.8947,1.8947,0,0,1-1.8947,1.8947H15.2803a1.8947,1.8947,0,0,1-1.8947-1.8947v-6.6494A1.8949,1.8949,0,0,1,15.2805,428.7506Z"/><path class="cls-2" d="M257.13589,200.2395a3.47525,3.47525,0,1,0-3.4753,3.4752A3.4753,3.4753,0,0,0,257.13589,200.2395Z" transform="translate(-9.5 -19.8724)"/><line class="cls-3" x1="0.5" y1="448.4613" x2="487.5" y2="448.4613"/></g><g id="Sign"><path class="cls-4" d="M285.22239,251.1235a10.429,10.429,0,0,0,2.8649-9.3841l-6.54429,6.5443a1.98244,1.98244,0,0,1-2.80361,0l-5.4413-5.4414a1.98251,1.98251,0,0,1,0-2.8035l6.5443-6.5443A10.44073,10.44073,0,0,0,268.111,247.5269L251.21129,264.012l-1.6306-1.6307,2.6584-2.6584a.72764.72764,0,0,0,0-1.0291l-2.05809-2.0581a.72766.72766,0,0,0-1.02911,0l-1.0291,1.0291-2.2296-2.2297.8575-.8576a.97021.97021,0,0,0,0-1.3721l-18.4375-18.4375a4.72987,4.72987,0,0,0-6.689,0l-1.8866,1.8866a4.72987,4.72987,0,0,0,0,6.689l18.4375,18.4375a.97021.97021,0,0,0,1.3721,0l.8576-.8576,2.2296,2.2297-1.0291,1.0291a.72783.72783,0,0,0,0,1.0291l2.0582,2.0581a.72764.72764,0,0,0,1.0291,0l2.65841-2.6584,1.603,1.603-14.01021,13.6665a10.44082,10.44082,0,0,0-14.0324,11.7315l6.5443-6.5443a1.98243,1.98243,0,0,1,2.8036,0l5.4413,5.4414a1.98243,1.98243,0,0,1,0,2.8036l-6.5443,6.5442a10.44073,10.44073,0,0,0,11.7315-14.0323L254.898,272.158l19.10159,19.1016a3.91013,3.91013,0,0,0,.8791,4.1806l4.6094,4.6094,5.5312-5.5312-4.6094-4.6094a3.90991,3.90991,0,0,0-4.1806-.879l-19.074-19.074,16.8996-16.4851A10.44016,10.44016,0,0,0,285.22239,251.1235Z" transform="translate(-9.5 -19.8724)"/><path class="cls-5" d="M226.332,326.5918c0,1.9785.78569,3.1729,2.57619,3.1729,1.75981,0,2.5449-1.1944,2.5449-3.1729V309.7832h2.2935v16.6826c0,3.3301-1.53959,5.5606-4.93259,5.5606-3.36141,0-4.90091-2.2305-4.90091-5.5606V309.7832H226.332Z" transform="translate(-9.5 -19.8724)"/><path class="cls-5" d="M238.33149,331.7754h-2.1992V309.7832h3.1104l5.0898,15.8975V309.7832h2.168v21.9922h-2.5449l-5.6241-17.7822Z" transform="translate(-9.5 -19.8724)"/><path class="cls-5" d="M254.165,309.7832c3.42389,0,4.99519,2.0733,4.99519,5.4668v11.0898c0,3.3624-1.5713,5.4356-4.99519,5.4356h-5.15281V309.7832Zm-.03221,19.7617c1.7598,0,2.6084-1.0996,2.6084-3.1103V315.124c0-2.0107-.8486-3.1103-2.6396-3.1103h-2.6387v17.5312Z" transform="translate(-9.5 -19.8724)"/><path class="cls-5" d="M269.27539,319.5225v2.1992h-5.3731v7.8232H270.5v2.2305h-9.04791V309.7832H270.5v2.2305h-6.59771v7.5088Z" transform="translate(-9.5 -19.8724)"/><path class="cls-5" d="M277.66109,309.7832c3.4561,0,4.9014,1.7588,4.9014,5.0264v1.791c0,2.4189-.8486,3.9267-2.7334,4.5244,2.0107.5967,2.7647,2.2305,2.7647,4.5869v3.4248a5.50948,5.50948,0,0,0,.4394,2.6387h-2.4824a5.7684,5.7684,0,0,1-.4082-2.6709v-3.4561c0-2.4814-1.1621-3.2666-3.2041-3.2666H275.21v9.3936h-2.45021V309.7832Zm-.6289,10.3672c1.9483,0,3.1104-.6279,3.1104-3.0156v-2.1055c0-1.9785-.7227-3.0156-2.5449-3.0156H275.21v8.1367Z" transform="translate(-9.5 -19.8724)"/><path class="cls-5" d="M195.2817,359.9978v1.9795H192.957v-2.1055c0-1.9795-.7856-3.1729-2.5766-3.1729-1.7593,0-2.5762,1.1934-2.5762,3.1729v11.625c0,1.9785.8169,3.1728,2.5762,3.1728,1.791,0,2.5766-1.1943,2.5766-3.1728v-2.8594h2.3247v2.7334c0,3.3301-1.5708,5.5293-4.9638,5.5293-3.3618,0-4.9326-2.1992-4.9326-5.5293v-11.373c0-3.3301,1.5708-5.5303,4.9326-5.5303C193.7109,354.4675,195.2817,356.6677,195.2817,359.9978Z" transform="translate(-9.5 -19.8724)"/><path class="cls-5" d="M197.3223,359.9978c0-3.3623,1.665-5.5303,5.02679-5.5303,3.3931,0,5.0581,2.168,5.0581,5.5303v11.373c0,3.3301-1.665,5.5293-5.0581,5.5293-3.3618,0-5.02679-2.1992-5.02679-5.5293Zm2.41889,11.499c0,2.0107.8482,3.1728,2.6079,3.1728,1.7905,0,2.6074-1.1621,2.6074-3.1728v-11.625c0-1.9795-.8169-3.1729-2.6074-3.1729-1.7597,0-2.6079,1.1934-2.6079,3.1729Z" transform="translate(-9.5 -19.8724)"/><path class="cls-5" d="M211.89749,376.6804h-2.1993V354.6882h3.1104l5.0898,15.8975V354.6882h2.168v21.9922h-2.5449l-5.624-17.7822Z" transform="translate(-9.5 -19.8724)"/><path class="cls-5" d="M232.09769,359.9665v.5967h-2.3252v-.7227c0-1.9794-.7539-3.1416-2.5132-3.1416s-2.5137,1.1622-2.5137,3.1104c0,4.9326,7.3833,5.4033,7.3833,11.5928,0,3.33-1.602,5.498-4.96389,5.498-3.36181,0-4.93261-2.168-4.93261-5.498v-1.2569h2.2935v1.3828c0,1.9795.8169,3.1416,2.5762,3.1416,1.7592,0,2.5761-1.1621,2.5761-3.1416,0-4.9013-7.3515-5.373-7.3515-11.5615,0-3.3935,1.5708-5.499,4.8696-5.499C230.52689,354.4675,232.09769,356.6355,232.09769,359.9665Z" transform="translate(-9.5 -19.8724)"/><path class="cls-5" d="M237.46829,376.6804V356.9187H233.415v-2.2305h10.55669v2.2305h-4.0528v19.7617Z" transform="translate(-9.5 -19.8724)"/><path class="cls-5" d="M250.56739,354.6882c3.456,0,4.9014,1.7588,4.9014,5.0264v1.791c0,2.4189-.8487,3.9267-2.7334,4.5244,2.0107.5967,2.76461,2.2305,2.76461,4.5869v3.4248a5.49882,5.49882,0,0,0,.44039,2.6387H253.458a5.75478,5.75478,0,0,1-.40821-2.6709v-3.4561c0-2.4814-1.1631-3.2666-3.2051-3.2666h-1.7275v9.3936h-2.4507V354.6882Zm-.6279,10.3672c1.9472,0,3.1103-.6279,3.1103-3.0156v-2.1055c0-1.9785-.7227-3.0156-2.5449-3.0156h-2.3877v8.1367Z" transform="translate(-9.5 -19.8724)"/><path class="cls-5" d="M260.36819,371.4968c0,1.9785.7851,3.1728,2.5761,3.1728,1.7588,0,2.545-1.1943,2.545-3.1728V354.6882h2.2929v16.6826c0,3.3301-1.539,5.5606-4.9326,5.5606-3.3613,0-4.9014-2.2305-4.9014-5.5606V354.6882h2.42Z" transform="translate(-9.5 -19.8724)"/><path class="cls-5" d="M279.90819,359.9978v1.9795H277.583v-2.1055c0-1.9795-.78511-3.1729-2.57621-3.1729-1.75879,0-2.5761,1.1934-2.5761,3.1729v11.625c0,1.9785.81731,3.1728,2.5761,3.1728,1.7911,0,2.57621-1.1943,2.57621-3.1728v-2.8594h2.32519v2.7334c0,3.3301-1.5713,5.5293-4.9639,5.5293-3.36229,0-4.9326-2.1992-4.9326-5.5293v-11.373c0-3.3301,1.57031-5.5303,4.9326-5.5303C278.33689,354.4675,279.90819,356.6677,279.90819,359.9978Z" transform="translate(-9.5 -19.8724)"/><path class="cls-5" d="M285.34079,376.6804V356.9187h-4.0527v-2.2305h10.5566v2.2305H287.792v19.7617Z" transform="translate(-9.5 -19.8724)"/><path class="cls-5" d="M295.99019,354.6882v21.9922H293.54V354.6882Z" transform="translate(-9.5 -19.8724)"/><path class="cls-5" d="M298.31449,359.9978c0-3.3623,1.665-5.5303,5.0263-5.5303,3.3936,0,5.0586,2.168,5.0586,5.5303v11.373c0,3.3301-1.665,5.5293-5.0586,5.5293-3.3613,0-5.0263-2.1992-5.0263-5.5293Zm2.4189,11.499c0,2.0107.84861,3.1728,2.6074,3.1728,1.791,0,2.6084-1.1621,2.6084-3.1728v-11.625c0-1.9795-.8174-3.1729-2.6084-3.1729-1.75879,0-2.6074,1.1934-2.6074,3.1729Z" transform="translate(-9.5 -19.8724)"/><path class="cls-5" d="M312.89059,376.6804h-2.1992V354.6882h3.1104l5.0898,15.8975V354.6882h2.167v21.9922h-2.5449l-5.6231-17.7822Z" transform="translate(-9.5 -19.8724)"/><rect class="cls-6" x="162.2192" y="317.7431" width="159.5183" height="9.5077"/><polygon class="cls-5" points="224.609 317.743 213.986 317.743 208.541 327.251 219.164 327.251 224.609 317.743"/><polygon class="cls-5" points="321.737 327.251 321.737 318.669 316.823 327.251 321.737 327.251"/><polygon class="cls-5" points="246.265 317.743 235.642 317.743 230.197 327.251 240.82 327.251 246.265 317.743"/><polygon class="cls-5" points="202.952 317.743 192.329 317.743 186.884 327.251 197.507 327.251 202.952 317.743"/><polygon class="cls-5" points="165.228 327.251 175.851 327.251 181.296 317.743 170.673 317.743 165.228 327.251"/><polygon class="cls-5" points="311.234 317.743 300.611 317.743 295.167 327.251 305.79 327.251 311.234 317.743"/><polygon class="cls-5" points="267.922 317.743 257.299 317.743 251.854 327.251 262.477 327.251 267.922 317.743"/><polygon class="cls-5" points="289.578 317.743 278.955 317.743 273.51 327.251 284.133 327.251 289.578 317.743"/></g><g id="Cone"><path class="cls-7" d="M99.2415,357.7514,71.9231,462.1185h60.9231L105.5277,357.7514A3.22476,3.22476,0,0,0,99.2415,357.7514Z" transform="translate(-9.5 -19.8724)"/><polygon class="cls-4" points="62.423 442.246 112.065 442.246 87.244 347.421 62.423 442.246"/><rect class="cls-7" x="49.5" y="439.955" width="84" height="8.5063" rx="4"/><rect class="cls-4" x="49.5" y="439.9549" width="57.9888" height="8.5064" rx="4"/><polygon class="cls-2" points="73.321 400.613 112.449 400.613 107.717 382.537 78.052 382.537 73.321 400.613"/><polygon class="cls-8" points="73.321 400.613 101.167 400.613 96.436 382.537 78.052 382.537 73.321 400.613"/></g><g id="Lamp"><polygon class="cls-9" points="318.063 172.23 282.913 114.339 205.224 115.189 170.606 172.23 318.063 172.23"/><path class="cls-10" d="M179.6896,192.4686H66.2643a10.4556,10.4556,0,0,0-10.4557,10.4557V400.814Z" transform="translate(-9.5 -19.8724)"/><path class="cls-10" d="M327.80229,192.4686h113.4254a10.45567,10.45567,0,0,1,10.4557,10.4557V400.814Z" transform="translate(-9.5 -19.8724)"/><circle class="cls-2" cx="253.87607" cy="132.67032" r="8.76589" transform="translate(-28.95351 198.50333) rotate(-45)"/><line class="cls-11" x1="244.62609" y1="41.9718" x2="244.62609" y2="1"/><line class="cls-12" x1="244.62609" y1="69.0287" x2="244.62609" y2="41.9718"/><polygon class="cls-13" points="231.044 69.029 203.968 115.925 284.731 115.925 257.655 69.029 231.044 69.029"/><polygon class="cls-4" points="233.758 69.029 212.206 115.925 276.493 115.925 254.941 69.029 233.758 69.029"/><line class="cls-3" x1="203.96819" y1="115.9252" x2="30.5" y2="407.7456"/><line class="cls-3" x1="284.92179" y1="115.9252" x2="455.96819" y2="405.0287"/><polyline class="cls-3" points="62.368 354.436 62.368 192.671 157.807 192.671"/><polyline class="cls-3" points="330.411 192.671 426.124 192.671 426.124 355.254"/></g></svg>