<svg xmlns="http://www.w3.org/2000/svg" viewBox="0 0 445.02919 186.02381"><defs><style>.cls-1{fill:#263238;}.cls-2{fill:#fff;}.cls-3{fill:#ff725e;}.cls-4{fill:#ae7461;}.cls-5{fill:#6f4439;}.cls-6{fill:#455a64;}.cls-7{opacity:0.3;}.cls-8{fill:#e0e0e0;}.cls-9{opacity:0.6;}</style></defs><g id="Floor"><path class="cls-1" d="M472.51459,458.0789c0,.1438-99.6312.2604-222.5039.2604-122.91549,0-222.52529-.1166-222.52529-.2604s99.6098-.2604,222.52529-.2604C372.88339,457.8185,472.51459,457.9351,472.51459,458.0789Z" transform="translate(-27.4854 -280.40309)"/></g><g id="Speech_Bubble" data-name="Speech Bubble"><path class="cls-2" d="M101.569,369.0495l-6.49-.7831a24.93017,24.93017,0,1,1,6.4186-6.2113l.011-.009Z" transform="translate(-27.4854 -280.40309)"/><path class="cls-1" d="M101.569,369.0495s-.0121-.166-.0208-.4727c-.0079-.3238-.0189-.7732-.0329-1.3538-.0227-1.1976-.0555-2.9339-.0979-5.1761l.1486.0701-.0108.0089a.09135.09135,0,0,1-.1285-.0125.09323.09323,0,0,1-.0032-.1118,24.84839,24.84839,0,0,0,4.3665-11.0905,25.43187,25.43187,0,0,0-.2083-7.856,24.755,24.755,0,0,0-3.215-8.3156,25.23532,25.23532,0,0,0-6.7196-7.1881,24.1483,24.1483,0,0,0-9.753-4.2142,25.249,25.249,0,0,0-11.2833.4874,24.15914,24.15914,0,0,0-10.2775,5.8503,25.34428,25.34428,0,0,0-3.8892,4.6829c-.5016.8712-1.0175,1.7351-1.4461,2.6328l-.5889,1.3694-.2898.683-.2201.7064a25.18033,25.18033,0,0,0-1.0221,11.3613,24.08621,24.08621,0,0,0,3.8404,10.011,25.27711,25.27711,0,0,0,6.9898,7.0385,24.8574,24.8574,0,0,0,8.2456,3.5378q1.04565.18375,2.0568.3613c.6762.1026,1.3513.1169,2.0085.1788a22.39994,22.39994,0,0,0,3.8091-.0717,24.8423,24.8423,0,0,0,11.2024-3.9738.0917.0917,0,0,1,.0601-.0144c2.0644.2717,3.6708.4831,4.7826.6294.5375.0737.9549.131,1.2571.1724.2852.0403.4395.0695.4395.0695s-.1333-.0057-.4103-.0332c-.298-.0309-.71-.0738-1.2405-.1289-1.1275-.1238-2.7563-.3029-4.8497-.5329l.0597-.0143a24.77168,24.77168,0,0,1-11.2713,4.1124,22.56236,22.56236,0,0,1-3.8541.0968c-.6659-.0583-1.3502-.0696-2.0359-.1697q-1.0257-.17475-2.0865-.3554a25.12474,25.12474,0,0,1-8.3798-3.5525,25.601,25.601,0,0,1-7.1212-7.1252,24.454,24.454,0,0,1-3.9278-10.1737,25.57168,25.57168,0,0,1,1.0255-11.5645l.224-.7193.2942-.6958.5989-1.3946c.4356-.9143.9599-1.7946,1.4709-2.6814a25.75352,25.75352,0,0,1,3.9585-4.7691,24.56861,24.56861,0,0,1,10.4673-5.9522,25.64052,25.64052,0,0,1,11.4842-.4817,24.51488,24.51488,0,0,1,9.9102,4.3071,25.55947,25.55947,0,0,1,6.8016,7.3221,25.02328,25.02328,0,0,1,3.2257,8.4503,25.61,25.61,0,0,1,.1657,7.9565,24.79662,24.79662,0,0,1-4.5064,11.158l-.1318-.1242.0109-.0089a.091.091,0,0,1,.1281.0121.09564.09564,0,0,1,.0208.0581c-.0036,2.267-.0063,4.0227-.0083,5.2336-.0041.5713-.0073,1.0134-.0097,1.332C101.5785,368.9076,101.569,369.0495,101.569,369.0495Z" transform="translate(-27.4854 -280.40309)"/><polygon class="cls-3" points="42.798 68.678 45.916 65.34 52.329 70.662 64.148 58.488 67.255 61.614 52.08 76.902 42.798 68.678"/></g><g id="Character"><path class="cls-1" d="M141.3676,292.7381a6.67938,6.67938,0,0,1,4.1471-4.2509c.791-.2697,1.7145-.4446,2.1702-1.1452a5.3858,5.3858,0,0,0,.458-1.722,3.38468,3.38468,0,0,1,4.31589-2.255,4.00945,4.00945,0,0,0,1.2758.4286c1.8255.0505,2.0967-3.4588,3.9217-3.3895a3.83225,3.83225,0,0,0-.9955,2.0626,1.73823,1.73823,0,0,0,1.115,1.8329c1.94121.5298,2.87021-3.2311,4.8671-2.9813,1.0763.1349,1.8674,1.4675,2.9265,1.2327a3.66881,3.66881,0,0,0,1.0802-.6292,2.78407,2.78407,0,0,1,3.7083.8508c.6355,1.0236.7357,2.605,1.896,2.9303a2.60266,2.60266,0,0,0,2.0569-.666A7.24288,7.24288,0,0,1,175,288.2373a4.36048,4.36048,0,0,1,3.89059,4.6305,9.31739,9.31739,0,0,1,3.3908,1.2089,3.24183,3.24183,0,0,1,1.52661,3.0692,2.95922,2.95922,0,0,0-.11451.8123,1.63039,1.63039,0,0,0,.3847.7915,14.97017,14.97017,0,0,1,2.0927,2.7145c.4725,1.0447.26011,2.5472-.8095,2.9602-.24939.0963-.5522.145-.6892.3746a.75816.75816,0,0,0-.0191.588,7.79332,7.79332,0,0,0,1.2256,2.1335,3.29059,3.29059,0,0,1,.7147,2.3032c-.1402.8123-1.0482,1.5137-1.7933,1.161q1.2798,1.50435,2.5596,3.0086c.5074.5964,1.0492,1.3516.7972,2.093-.3304.9714-1.7566,1.0294-2.63.4912-.8734-.5385-1.4792-1.442-2.3666-1.9568a6.115,6.115,0,0,1-1.0817-.6344c-.2463-.2213-.4449-.5328-.7669-.6101-.64769-.1552-1.04369.8354-.6904,1.3998a3.51914,3.51914,0,0,0,1.6508,1.0677c.6035.2817,1.231.7936,1.1768,1.4572-.026.3205-.2132.6125-.2307.9336-.0604,1.1107,1.6342,1.3345,2.2671,2.249a2.68217,2.68217,0,0,1-.01029,2.3718c-.32821.9483-1.31241,2.0656-2.10791,1.4541-.276-.2121-.3923-.5755-.6423-.818a2.51939,2.51939,0,0,0-1.1113-.4756,5.21611,5.21611,0,0,1-2.5137-1.6262c1.2178.5674,2.6245,1.4169,2.613,2.7604a5.57833,5.57833,0,0,1-.4461,1.6158c-.3386,1.0488-.3112,2.1871-.6353,3.2405a2.571,2.571,0,0,1-2.297,2.0292,2.4792,2.4792,0,0,1-2.6497,4.0368,2.16885,2.16885,0,0,0-.8714-.2429,1.76952,1.76952,0,0,0-.8597.4472,5.36658,5.36658,0,0,1-5.5784.4073q.36645-.372.73281-.7443a12.4918,12.4918,0,0,1-5.71271.971c-1.9299-.2842-3.8299-1.7978-3.85-3.7485-.0086-.8454.2718-1.8542-.3558-2.4209a2.09318,2.09318,0,0,0-1.6691-.2794q-3.6333.4236-7.26639.847a6.46185,6.46185,0,0,1-3.4941-.2384,2.22869,2.22869,0,0,1-1.2243-2.9058,6.34173,6.34173,0,0,0-3.285-1.2747c-1.3329-.1159-2.6706.194-4.0075.1386a3.61766,3.61766,0,0,1-3.3151-1.852c-.5106-1.2368.691-2.9731,1.9439-2.5031-1.0479-1.7268-4.3224-.2656-5.4751-1.9243-.9364-1.3471.5579-3.015.9715-4.6029-.4432-.4101-1.1189-.4818-1.5741-.8787-.955-.8327-.378-2.4133.4103-3.4053.7882-.9918,1.7994-2.1008,1.5061-3.3332-.3002-1.2611-1.9035-2.0697-1.7852-3.3606a1.43289,1.43289,0,0,1,1.488-1.2487c-.1904-2.4874,4.4972-2.8356,4.6979-5.322a.89944.89944,0,0,0-.1131-.5703.95742.95742,0,0,0-.3989-.3105,10.10458,10.10458,0,0,0-2.3725-.4784c-.7933-.1647-1.6412-.6747-1.7134-1.4816-.072-.8068,1.2288-1.4146,1.5698-.6799a1.78148,1.78148,0,0,1,2.7487-.5813,1.9257,1.9257,0,0,1,2.0697-1.2565,5.62048,5.62048,0,0,1,2.4089,1.0094" transform="translate(-27.4854 -280.40309)"/><path class="cls-3" d="M162.47959,310.9239c-2.1689-2.6249-5.58759-3.8907-8.9418-4.4765a8.70981,8.70981,0,0,0-4.23719.0644,3.65681,3.65681,0,0,0-2.6205,3.0592l1.268,2.0245c1.4739,3.4976,5.53059,4.9781,8.39049,7.4731,1.2437,1.0852,2.5303,2.4961,4.1766,2.3799a3.54534,3.54534,0,0,0,2.2416-1.1886C165.10169,317.7908,164.64869,313.5488,162.47959,310.9239Z" transform="translate(-27.4854 -280.40309)"/><path class="cls-1" d="M170.83229,326.2995a7.61169,7.61169,0,0,0-5.2021-8.2576c.3986-2.198-1.317-4.3367-3.381-5.1914a14.89713,14.89713,0,0,0-6.6135-.6012,10.2465,10.2465,0,0,0-14.06-.9414c-4.1781-2.1782-9.4416-.045-12.8031,3.2567a12.0449,12.0449,0,0,1-2.6128,2.236,19.58194,19.58194,0,0,1-2.3719.8802c-4.3473,1.6321-6.8387,6.6478-6.3931,11.2699a8.5044,8.5044,0,0,1,.082,2.2186,11.53292,11.53292,0,0,1-1.1435,2.677,7.351,7.351,0,0,0,.0909,6.1196c.7797,1.6099,2.1785,3.012,2.2831,4.7978.0527.8953-.2371,1.7965-.0949,2.6819.4119,2.5659,3.9976,3.4891,4.7594,5.9738.1554.5069.1781,1.0445.2923,1.5623a4.53617,4.53617,0,0,0,1.7434,2.6622,6.499,6.499,0,0,1,1.9581,1.5357,7.35211,7.35211,0,0,1,.5524,1.8142c.4457,1.4878,6.1157,5.1038,7.6652,5.2108l34.78489-18.2833a7.34265,7.34265,0,0,0,2.0142-8.2584,2.68828,2.68828,0,0,1-.3611-1.4466,3.1444,3.1444,0,0,1,.6154-1.1216c1.586-2.3939.21141-5.599-1.3762-7.9919a3.48917,3.48917,0,0,1-.54839-1.0674A4.38869,4.38869,0,0,1,170.83229,326.2995Z" transform="translate(-27.4854 -280.40309)"/><path class="cls-4" d="M160.941,331.6758c-3.18811-6.1816-10.8118-11.1581-18.5069-10.8854a25.98084,25.98084,0,0,0-9.9936,2.6152,15.91662,15.91662,0,0,0-7.245,6.0975c-1.6674,1.4729-5.2212,11.631-1.8527,18.7736,3.7419,7.9351,8.6237,17.4754,12.685,22.6969,8.1665,10.4991,17.79209,7.1047,17.79209,7.1047-.0085-.0182,4.2892,8.8833,4.2892,8.8833l12.0183,10.1785,10.7092-17.4604,2.3346-3.7726Z" transform="translate(-27.4854 -280.40309)"/><path class="cls-5" d="M151.387,360.1584a2.57766,2.57766,0,0,0-1.4918-1.0456,2.63333,2.63333,0,0,0-2.9565,1.2216c-.5824,1.0215-.2015,2.0971.5154,3.1649h0c.8132.437,1.4947.9296,2.3581.6025a3.86112,3.86112,0,0,0,.394-.1745,2.87712,2.87712,0,0,0,1.4148-1.5337A2.56536,2.56536,0,0,0,151.387,360.1584Z" transform="translate(-27.4854 -280.40309)"/><path class="cls-1" d="M132.0741,356.1578a1.68477,1.68477,0,0,0,2.2432.705,1.61148,1.61148,0,0,0,.7882-2.1685,1.68542,1.68542,0,0,0-2.2417-.7065A1.61221,1.61221,0,0,0,132.0741,356.1578Z" transform="translate(-27.4854 -280.40309)"/><path class="cls-1" d="M128.417,351.2376c.2892.0918.9513-1.3512,2.5415-2.2224,1.5758-.8924,3.1915-.7175,3.2565-1.0069.0374-.133-.3407-.3772-1.0514-.4673a4.62618,4.62618,0,0,0-2.7382.5681,4.44362,4.44362,0,0,0-1.8904,2.0091C128.2533,350.7619,128.2798,351.2011,128.417,351.2376Z" transform="translate(-27.4854 -280.40309)"/><path class="cls-1" d="M144.6165,358.6581a12.036,12.036,0,0,0-2.8354.9557c-.4283.1813-.8567.3123-1.0774.0734a2.35527,2.35527,0,0,1-.3915-1.3507q-.2388-1.78725-.5021-3.7486c-.7569-5.313-1.5428-9.5922-1.7564-9.5595-.214.0322.2259,4.3655.9828,9.6786q.2952,1.95705.5627,3.7388a2.67807,2.67807,0,0,0,.6666,1.7073,1.16209,1.16209,0,0,0,.9934.2254,3.141,3.141,0,0,0,.7414-.2836A11.78466,11.78466,0,0,0,144.6165,358.6581Z" transform="translate(-27.4854 -280.40309)"/><path class="cls-5" d="M153.81989,378.0783a33.55286,33.55286,0,0,0,13.1975-12.6261s.366,10.37-11.7431,15.6381Z" transform="translate(-27.4854 -280.40309)"/><path class="cls-1" d="M126.2742,347.9004c.4804.2409,1.5534-.6886,3.0394-1.3531,1.4639-.7122,2.8686-.9392,2.9886-1.4604.0451-.2471-.3183-.5394-1.0255-.6583a5.1551,5.1551,0,0,0-4.8571,2.2669C126.0596,347.3122,126.0546,347.7764,126.2742,347.9004Z" transform="translate(-27.4854 -280.40309)"/><path class="cls-1" d="M149.6995,347.1031a1.68463,1.68463,0,0,1-.6874,2.2487,1.611,1.611,0,0,1-2.234-.5761,1.68515,1.68515,0,0,1,.6851-2.2484A1.61252,1.61252,0,0,1,149.6995,347.1031Z" transform="translate(-27.4854 -280.40309)"/><path class="cls-1" d="M150.48619,339.891c-.0878.2902-1.65239.0204-3.27009.8392-1.6272.7949-2.3965,2.2266-2.6719,2.1162-.1307-.0441-.1183-.4943.2089-1.1312a4.6258,4.6258,0,0,1,2.017-1.9371,4.44221,4.44221,0,0,1,2.726-.4229C150.1864,339.4869,150.53379,339.7566,150.48619,339.891Z" transform="translate(-27.4854 -280.40309)"/><path class="cls-1" d="M147.1249,333.6287c-.134.528-1.5756.7754-3.0871,1.5132-1.5341.6906-2.6506,1.6431-3.1367,1.4059-.2226-.1222-.2073-.5914.1734-1.2195a5.1881,5.1881,0,0,1,2.1933-1.8588,5.12813,5.12813,0,0,1,2.8212-.4931C146.8102,333.0872,147.1752,333.3783,147.1249,333.6287Z" transform="translate(-27.4854 -280.40309)"/><path class="cls-4" d="M165.09589,343.6009c-.4701-.858-.59289-3.4237.1807-4.0221,2.0658-1.5973,6.2386-3.66,9.4385,2.0579,4.3738,7.8162-4.3759,10.5953-4.51509,10.379C170.09139,351.8467,166.71889,346.5635,165.09589,343.6009Z" transform="translate(-27.4854 -280.40309)"/><path class="cls-5" d="M170.75849,347.9537c.0204-.0442.18951.0192.47851-.004a1.56076,1.56076,0,0,0,1.02979-.5488c.6564-.7651.6178-2.4651-.13279-3.8951a5.15351,5.15351,0,0,0-1.472-1.7369,1.80148,1.80148,0,0,0-1.609-.4715.79515.79515,0,0,0-.59521.8223c.0175.2778.1551.4059.1208.4421-.01059.0321-.2409-.0367-.3584-.3944a.99393.99393,0,0,1,.0335-.6625,1.17842,1.17842,0,0,1,.6416-.6203,2.19248,2.19248,0,0,1,2.1004.4161,5.296,5.296,0,0,1,1.6911,1.9146c.8316,1.603.85,3.5279-.0974,4.4872a1.67231,1.67231,0,0,1-1.361.4897C170.87829,348.1351,170.73939,347.9829,170.75849,347.9537Z" transform="translate(-27.4854 -280.40309)"/><path class="cls-1" d="M121.6617,349.3447a5.20949,5.20949,0,0,0,.1848-5.581c1.2236-.2655,1.5462-2.2065,1.659-3.4534.1127-1.247.6114-2.1195-.0383-3.1897a1.41392,1.41392,0,0,1-.2721-.6802c-.0064-.3886.3128-.6919.582-.9721a6.00056,6.00056,0,0,0,1.4525-5.5579,12.69328,12.69328,0,0,0,5.8663-2.0706,4.85069,4.85069,0,0,0,7.0205-4.2701,4.3473,4.3473,0,0,0,3.5845.4773,12.8768,12.8768,0,0,0,3.3524-1.6132,5.137,5.137,0,0,0,5.76629,3.4675,1.24778,1.24778,0,0,1,.9685.0308c.2838.1991.31191.5981.3598.9414a4.04366,4.04366,0,0,0,4.8539,3.2051,3.01467,3.01467,0,0,0,2.5149,4.0077c.3802.0156.867.018,1.0047.3728a.85262.85262,0,0,1,.0117.4291,5.86391,5.86391,0,0,0,.18891,3.2741,2.16443,2.16443,0,0,0,2.70939,1.244,2.8689,2.8689,0,0,0-.0519,2.2674,1.2554,1.2554,0,0,0,1.9368.4078c.2131-.2533,3.6984-3.1711,3.7419-3.4992.5624-4.2358-4.0626-6.0301-6.338-9.6469a27.77672,27.77672,0,0,0-9.2237-8.7355,20.31148,20.31148,0,0,0-4.86709-2.2491,27.04768,27.04768,0,0,0-6.0623-.8037,24.694,24.694,0,0,0-7.9465.4617c-4.7843,1.3303-8.3385,5.2892-11.2845,9.2869a21.04683,21.04683,0,0,0-2.8806,4.8583,19.06641,19.06641,0,0,0-1.0118,6.6661,23.74178,23.74178,0,0,0,1.5785,9.5965" transform="translate(-27.4854 -280.40309)"/><path class="cls-6" d="M118.6124,347.4456a3.42141,3.42141,0,0,1-.0393-1.0747c.023-.3525.0911-.7856.0995-1.2971a4.17281,4.17281,0,0,0-.3648-1.7087,13.03805,13.03805,0,0,0-1.0999-1.9234,9.83734,9.83734,0,0,1-1.2173-2.3654,7.45711,7.45711,0,0,1-.3246-3.04,7.32782,7.32782,0,0,1,.356-1.6415,10.95911,10.95911,0,0,1,.7344-1.6032,5.557,5.557,0,0,0,.6285-1.6839,7.25222,7.25222,0,0,0-.0666-1.8864,12.01826,12.01826,0,0,1,2.0014-8.092,10.67757,10.67757,0,0,1,1.5007-1.7474,9.62311,9.62311,0,0,1,1.936-1.3654,11.0189,11.0189,0,0,1,1.1041-.496c.381-.138.7681-.2539,1.1492-.3827a5.76865,5.76865,0,0,0,2.1-1.1485c.627-.524,1.1775-1.1554,1.8044-1.7341a15.72015,15.72015,0,0,1,4.3005-2.8972,13.63351,13.63351,0,0,1,2.5364-.8385,8.83122,8.83122,0,0,1,5.384.4417c.1685.076.3369.1521.5031.227l-.1522.0192a10.392,10.392,0,0,1,14.24759.9584l-.1054-.0448a28.39318,28.39318,0,0,1,3.5501-.0556,9.447,9.447,0,0,1,3.3497.7788,6.1443,6.1443,0,0,1,2.5079,2.1511,4.22947,4.22947,0,0,1,.7046,3.0666l-.0788-.1277a7.41688,7.41688,0,0,1,4.0183,3.0418,7.59625,7.59625,0,0,1,1.3217,4.3509,7.36388,7.36388,0,0,1-.0955,1.0634,9.63414,9.63414,0,0,0-.1568.9975,1.91154,1.91154,0,0,0,.1425.9231,5.45107,5.45107,0,0,0,.4688.8032,14.69018,14.69018,0,0,1,1.5501,3.0272,7.11775,7.11775,0,0,1,.4702,2.6926,4.39763,4.39763,0,0,1-.5232,1.9441c-.2588.4896-.5608.79-.6802,1.0446a2.05233,2.05233,0,0,0-.1563.3937,1.042,1.042,0,0,1,.1256-.4093c.1123-.2649.4081-.5763.65121-1.0609a4.37486,4.37486,0,0,0,.48359-1.9157,7.0649,7.0649,0,0,0-.4921-2.6451,14.69061,14.69061,0,0,0-1.55949-2.9849,5.56354,5.56354,0,0,1-.488-.8248,2.08087,2.08087,0,0,1-.16181-.9987,9.66276,9.66276,0,0,1,.1527-1.0166,7.18046,7.18046,0,0,0,.0868-1.0362,7.41779,7.41779,0,0,0-1.3096-4.234,7.21179,7.21179,0,0,0-3.9112-2.9405l-.0972-.0283.0182-.0995a4.00388,4.00388,0,0,0-.67989-2.898,5.911,5.911,0,0,0-2.41461-2.0592,9.21549,9.21549,0,0,0-3.2637-.749,28.28545,28.28545,0,0,0-3.5182.0621l-.0639.0039-.0417-.0488a10.1371,10.1371,0,0,0-13.872-.9242l-.0654.0581-.0871-.0391c-.1607-.0722-.3231-.1455-.4858-.2189a8.56845,8.56845,0,0,0-5.2209-.4264,13.383,13.383,0,0,0-2.4831.8193,15.49579,15.49579,0,0,0-4.2301,2.8437c-.6164.5667-1.1714,1.2023-1.8181,1.7415a6.172,6.172,0,0,1-1.0367.7161,7.36067,7.36067,0,0,1-1.148.4752c-.387.1299-.7726.2446-1.1448.3787a10.84385,10.84385,0,0,0-1.0737.4798,9.38708,9.38708,0,0,0-1.8871,1.3245,10.45272,10.45272,0,0,0-1.4702,1.7031,11.82091,11.82091,0,0,0-1.9896,7.9343,7.40042,7.40042,0,0,1,.0571,1.9395,5.72846,5.72846,0,0,1-.6565,1.7413,10.82726,10.82726,0,0,0-.7322,1.5746,7.17615,7.17615,0,0,0-.357,1.5997,7.32622,7.32622,0,0,0,.2976,2.9766,9.77063,9.77063,0,0,0,1.1821,2.3424,12.91615,12.91615,0,0,1,1.0884,1.9522,4.225,4.225,0,0,1,.348,1.7505c-.0171.5197-.094.9504-.1255,1.3003a5.285,5.285,0,0,0-.0309.7975C118.604,347.353,118.6195,347.4447,118.6124,347.4456Z" transform="translate(-27.4854 -280.40309)"/><path class="cls-6" d="M136.9428,311.601c-.0027.0243-.2728-.0053-.7571.0165a6.0222,6.0222,0,0,0-1.9864.4379,5.65717,5.65717,0,0,0-2.3764,1.7898,5.84173,5.84173,0,0,0-1.1851,3.415,4.952,4.952,0,0,0,.0961,1.1026,1.11842,1.11842,0,0,0,.5101.7964l.338.1623-.3662.0838a3.70743,3.70743,0,0,0-2.2712,1.6193,3.57645,3.57645,0,0,0-.5366,2.1832,3.91826,3.91826,0,0,0,.4016,1.4624c.1614.3205.281.4796.2645.4918-.0062.005-.0413-.0304-.1033-.1034a2.48932,2.48932,0,0,1-.2409-.3449,3.7405,3.7405,0,0,1,.0214-3.8093,3.9001,3.9001,0,0,1,2.4063-1.7551l-.0282.2462a1.36845,1.36845,0,0,1-.6566-.9717,5.131,5.131,0,0,1-.1049-1.168,5.99653,5.99653,0,0,1,1.2584-3.5631,5.71643,5.71643,0,0,1,2.5037-1.8152,5.605,5.605,0,0,1,2.0539-.3652,3.94276,3.94276,0,0,1,.5655.0441A.55859.55859,0,0,1,136.9428,311.601Z" transform="translate(-27.4854 -280.40309)"/><path class="cls-6" d="M154.62749,313.6436a1.34365,1.34365,0,0,1-.1209.4309,5.79436,5.79436,0,0,1-.5508,1.1041,4.27877,4.27877,0,0,1-1.3101,1.328,3.19885,3.19885,0,0,1-2.2735.478l.1594-.1217c-.0175.1462-.0355.2961-.0537.4486-.0265.151-.0657.3024-.0987.456a5.423,5.423,0,0,1-1.29469,2.2959,5.55307,5.55307,0,0,1-1.7435,1.2596,4.92167,4.92167,0,0,1-1.3925.3954,1.76553,1.76553,0,0,1-.5297.0054,7.76228,7.76228,0,0,0,1.84-.5729,5.66891,5.66891,0,0,0,1.6428-1.2562,5.34469,5.34469,0,0,0,1.2165-2.1964c.031-.1452.0686-.2884.094-.4311.018-.1437.0356-.2854.0527-.4232l.0186-.1496.141.0278a3.01387,3.01387,0,0,0,2.0977-.4183,4.30661,4.30661,0,0,0,1.286-1.2253C154.388,314.2348,154.58329,313.6233,154.62749,313.6436Z" transform="translate(-27.4854 -280.40309)"/><path class="cls-6" d="M162.76789,318.6577c.009-.0023.0293.0502.06.1551a1.5314,1.5314,0,0,1,.033.4759,2.388,2.388,0,0,1-.8052,1.5343,4.56,4.56,0,0,1-2.3776.9848,14.52837,14.52837,0,0,1-1.508.1896,2.45025,2.45025,0,0,1-1.6263-.3949l-.1182-.0995.2161-.0451a10.25614,10.25614,0,0,1-1.5646,2.6747,4.61482,4.61482,0,0,1-2.0819,1.4355,3.32573,3.32573,0,0,1-1.6976.1259,2.04709,2.04709,0,0,1-.4435-.1352c-.0968-.0432-.14509-.0699-.1417-.0784.0085-.0235.2144.0605.6021.111a3.46836,3.46836,0,0,0,1.6192-.2022,4.54945,4.54945,0,0,0,1.95531-1.417,10.51129,10.51129,0,0,0,1.505-2.6214l.07149-.1665.1446.1215.0987.0829a2.21726,2.21726,0,0,0,1.4503.3445c.5065-.024,1.009-.103,1.4783-.1708a4.50145,4.50145,0,0,0,2.2913-.8817,2.37675,2.37675,0,0,0,.8279-1.4041A3.90562,3.90562,0,0,0,162.76789,318.6577Z" transform="translate(-27.4854 -280.40309)"/><path class="cls-6" d="M155.82249,285.9974c.009.0159-.1327.0795-.337.2707a2.04,2.04,0,0,0-.5657,1.0455,2.78984,2.78984,0,0,0,.23021,1.8247,8.17092,8.17092,0,0,0,1.46679,1.9817l.1001.1092-.1341.0681a5.09768,5.09768,0,0,0-2.2619,2.3185,3.96083,3.96083,0,0,0,.0175,3.5658,3.67259,3.67259,0,0,0,2.576,1.9914l.37761.0623-.33731.1812a4.62306,4.62306,0,0,0-2.2616,2.9404,4.42957,4.42957,0,0,0,.3165,2.9611,4.81076,4.81076,0,0,0,1.2143,1.5907c.3606.3059.5898.4313.5784.4503a.6044.6044,0,0,1-.1734-.0793,3.24989,3.24989,0,0,1-.4608-.302,4.61762,4.61762,0,0,1-1.3066-1.5871,4.54728,4.54728,0,0,1-.3861-3.0859,4.82135,4.82135,0,0,1,2.3569-3.118l.0403.2434a3.9165,3.9165,0,0,1-2.7743-2.125,4.02757,4.02757,0,0,1-.4622-1.947,4.52051,4.52051,0,0,1,.4513-1.8536,5.28374,5.28374,0,0,1,2.3945-2.4103l-.03389.1773a8.13209,8.13209,0,0,1-1.46621-2.0575,2.8936,2.8936,0,0,1-.1894-1.9315,2.01909,2.01909,0,0,1,.6475-1.0659,1.28679,1.28679,0,0,1,.2768-.1793C155.78419,286.0054,155.81989,285.9919,155.82249,285.9974Z" transform="translate(-27.4854 -280.40309)"/><path class="cls-6" d="M179.16439,295.342c.0058.0041-.0239.0537-.0868.1459a4.698,4.698,0,0,1-.29359.3949,6.36283,6.36283,0,0,1-1.38551,1.2254,7.08209,7.08209,0,0,1-2.6301,1.0555,6.782,6.782,0,0,1-3.5996-.2829l.1708-.1124a5.70145,5.70145,0,0,1-2.2084,4.3608,4.32266,4.32266,0,0,1-5.0519.0631l.1993-.1202a3.58451,3.58451,0,0,1-.21459,1.8513,4.77615,4.77615,0,0,1-.88861,1.4346,6.58071,6.58071,0,0,1-2.2542,1.5612,13.00584,13.00584,0,0,1-1.6797.5956,3.42655,3.42655,0,0,1-.6191.1478,4.1296,4.1296,0,0,1,.5944-.2251,16.55885,16.55885,0,0,0,1.6407-.6566,6.599,6.599,0,0,0,2.1602-1.5613,3.87973,3.87973,0,0,0,1.01431-3.1058l-.05151-.3146.2507.1945a4.08751,4.08751,0,0,0,4.7417-.0832,5.48641,5.48641,0,0,0,2.1147-4.1529l.0082-.1729.1628.0604a6.64379,6.64379,0,0,0,3.47241.3092,7.11423,7.11423,0,0,0,2.58419-.9764A8.32854,8.32854,0,0,0,179.16439,295.342Z" transform="translate(-27.4854 -280.40309)"/><path class="cls-6" d="M177.22039,311.3454c.0063-.0005.0213.0681-.0139.1931a.91742.91742,0,0,1-.3359.4421,4.13612,4.13612,0,0,1-1.8941.6622,4.85909,4.85909,0,0,1-2.9126-.5747,4.97716,4.97716,0,0,1-2.2905-2.8067l-.0091-.0267.2404.0365a5.82152,5.82152,0,0,1-2.9103,2.1584,6.4806,6.4806,0,0,1-2.9506.2778,7.21078,7.21078,0,0,1-1.924-.5289,2.65559,2.65559,0,0,1-.6443-.3436,10.77975,10.77975,0,0,0,2.5902.6831,6.49042,6.49042,0,0,0,2.8469-.323,5.67078,5.67078,0,0,0,2.7693-2.0765l.1526-.2213.0878.2579.0085.025a4.71378,4.71378,0,0,0,4.927,3.2728,4.33108,4.33108,0,0,0,1.8509-.5573A.91949.91949,0,0,0,177.22039,311.3454Z" transform="translate(-27.4854 -280.40309)"/><path class="cls-6" d="M138.8083,295.6879a7.61367,7.61367,0,0,0,.9664,2.6073,6.03322,6.03322,0,0,0,5.6681,2.8657,6.13279,6.13279,0,0,0,2.0494-.5197l.1515-.0682.0325.1615a7.84934,7.84934,0,0,0,1.1027,2.6939,8.00008,8.00008,0,0,0,1.5391,1.7478,5.73185,5.73185,0,0,0,.70579.5255.67261.67261,0,0,0,.5904.092.44684.44684,0,0,0,.2629-.2691c.02491-.0861.0102-.1372.02091-.1392.00409-.0022.03689.0456.02489.149a.47893.47893,0,0,1-.2702.342.76281.76281,0,0,1-.691-.0579,5.33267,5.33267,0,0,1-.75059-.511,7.777,7.777,0,0,1-1.6227-1.7532,7.863,7.863,0,0,1-1.1699-2.7674l.1839.0932a6.28909,6.28909,0,0,1-2.1392.5501,6.36048,6.36048,0,0,1-3.6804-.8395,6.2695,6.2695,0,0,1-2.1713-2.1965,6.04793,6.04793,0,0,1-.7394-1.9463,4.50349,4.50349,0,0,1-.0675-.5622A.54977.54977,0,0,1,138.8083,295.6879Z" transform="translate(-27.4854 -280.40309)"/><path class="cls-1" d="M150.176,357.963c-.2513.0624.25739,1.7118-.7902,3.3199-1.0433,1.6113-2.858,1.972-2.7993,2.2065.0091.1106.4907.1986,1.2384-.0118a4.29637,4.29637,0,0,0,2.3659-1.7485,3.742,3.742,0,0,0,.55689-2.7507C150.59629,358.2699,150.28569,357.9184,150.176,357.963Z" transform="translate(-27.4854 -280.40309)"/><path class="cls-3" d="M157.91189,386.2762s7.0463,46.6762,15.5724,54.8567c9.1173,8.7476,25.50371,13.0598,25.50371,13.0598s21.80739,8.6244,29.38729,6.7439l13.7081-46.9992a3.83938,3.83938,0,0,0-3.7196-2.8199c-1.3592-.0492-5.2763,1.7796-7.051,1.3512-7.0989-1.7135-23.7444-27.1714-23.7444-27.1714s-15.8109-21.7937-29.2877-19.828c-9.24,1.3477-13.0659,5.4648-16.546,14.7796a17.06893,17.06893,0,0,1-3.8228,6.0273Z" transform="translate(-27.4854 -280.40309)"/><polygon class="cls-3" points="130.426 105.873 124.278 137.005 95.859 128.93 90.95 145.522 139.032 167.234 148.494 127.874 130.426 105.873"/><path class="cls-1" d="M222.19979,441.189c-.1345-.0512,1.9565-5.8791,4.6697-13.0155,2.7141-7.1388,5.02251-12.8827,5.157-12.8315.1344.0511-1.9561,5.8777-4.6702,13.0166C224.64309,435.4949,222.33419,441.2401,222.19979,441.189Z" transform="translate(-27.4854 -280.40309)"/><path class="cls-1" d="M221.66629,434.6592a131.47624,131.47624,0,0,1,5.7194-15.5224,131.51356,131.51356,0,0,1-5.7194,15.5224Z" transform="translate(-27.4854 -280.40309)"/><path class="cls-1" d="M157.17189,395.2829a68.6293,68.6293,0,0,1,.414,7.2825c.0802,2.01.1665,3.8273.24811,5.141a11.21674,11.21674,0,0,1,.07789,2.138,7.25717,7.25717,0,0,1-.4444-2.1026c-.1764-1.3143-.32149-3.1388-.402-5.1554-.0818-2.0161-.0884-3.8424-.0594-5.1642A8.40154,8.40154,0,0,1,157.17189,395.2829Z" transform="translate(-27.4854 -280.40309)"/><g class="cls-7"><polygon points="114.036 155.946 124.627 151.342 130.426 130.803 126.481 156.11 118.679 158.043 114.036 155.946"/></g><g class="cls-7"><path d="M229.92239,419.371a1.83425,1.83425,0,0,0-2.1749.4842,6.52477,6.52477,0,0,0-1.2261,2.2152q-3.13935,7.945-6.2785,15.89a5.13233,5.13233,0,0,0-.51789,2.3784c.08669.8201.72569,1.6301,1.46659,1.5237.686-.0985,1.0992-.8678,1.4043-1.5538a165.41571,165.41571,0,0,0,7.61-20.7754" transform="translate(-27.4854 -280.40309)"/></g><path class="cls-4" d="M79.3195,413.4978s3.8346-5.1129,6.0807-6.2075c1.7872-.8711,12.4388-2.7542,13.7368-2.5028,1.2979.2512,24.2074,5.269,24.2074,5.269l-2.9682,10.0082-1.4621-.6842s-4.6257,2.3214-8.1523,1.2095a38.41325,38.41325,0,0,1-8.0406-4.2166l-3.1516,1.1802s3.4637,1.0848,3.7226,2.5173-1.7124,1.5891-1.7124,1.5891l-.1421.63a2.0811,2.0811,0,0,1-2.442,1.5827c-2.0299-.4073-4.9626-1.1024-5.6155-1.8266-.2701-.2994-1.6623-2.8529-1.6623-2.8529-2.1446-1.5108-2.1102-3.0104-1.9893-3.9268.2416-1.833,2.1903-3.8864,2.1903-3.8864l-3.8649-.211S81.8227,417.5536,79.3195,413.4978Z" transform="translate(-27.4854 -280.40309)"/><path class="cls-4" d="M111.4959,411.8197c-4.6485,0-9.0615-.6223-12.5224.2413a5.14944,5.14944,0,0,0-2.4984,1.2305,2.23162,2.23162,0,0,0-.4891,2.5796,2.5015,2.5015,0,0,0,2.0639,1.0569c.8042.0461,1.6051-.1222,2.4104-.1414a11.58287,11.58287,0,0,1,5.5003,1.6608,21.67723,21.67723,0,0,0,5.3074,2.3134c1.893.4077,6.3392.0487,7.6461-1.3803" transform="translate(-27.4854 -280.40309)"/><path class="cls-5" d="M118.9141,419.3805c.0111.009-.0792.1313-.2936.3273a4.28058,4.28058,0,0,1-1.0955.6211,13.01807,13.01807,0,0,1-4.5297.7716,8.54617,8.54617,0,0,1-3.1583-.534,25.62329,25.62329,0,0,1-3.3041-1.5453,20.91425,20.91425,0,0,0-3.6038-1.6055,8.185,8.185,0,0,0-2.0125-.3632,17.97535,17.97535,0,0,0-2.1453.1296,3.817,3.817,0,0,1-2.257-.4362,2.03107,2.03107,0,0,1-.9952-2.0409,2.85277,2.85277,0,0,1,1.1059-1.8805,5.32444,5.32444,0,0,1,1.842-.8748,22.4429,22.4429,0,0,1,6.7965-.5041c1.8581.1014,3.3951.1853,4.5609.2489a11.79023,11.79023,0,0,1,1.6715.1252,1.38358,1.38358,0,0,1-.4332.0491c-.2843.0167-.7035.0252-1.2436.0284-1.0799.0083-2.6423-.0465-4.566-.0835a23.13245,23.13245,0,0,0-6.651.5964,4.88656,4.88656,0,0,0-1.6684.8044,2.35557,2.35557,0,0,0-.9081,1.5515,1.50885,1.50885,0,0,0,.7566,1.5365,3.32562,3.32562,0,0,0,1.958.3598,17.77486,17.77486,0,0,1,2.1998-.1273,8.60863,8.60863,0,0,1,2.1386.3929,20.77723,20.77723,0,0,1,3.6797,1.6698c2.2174,1.2367,4.313,2.2102,6.24,2.1345a13.96107,13.96107,0,0,0,4.4559-.5932A5.44565,5.44565,0,0,0,118.9141,419.3805Z" transform="translate(-27.4854 -280.40309)"/><path class="cls-5" d="M96.6253,410.7407c.0234.0632-.4338.2768-1.2124.4198a20.04652,20.04652,0,0,1-3.0503.2816,14.72183,14.72183,0,0,1-4.3086-.2732,23.17558,23.17558,0,0,1,4.2945-.2474c1.1818-.0323,2.2487-.0727,3.0167-.1261A4.89422,4.89422,0,0,1,96.6253,410.7407Z" transform="translate(-27.4854 -280.40309)"/><path class="cls-5" d="M101.7408,421.666a13.09841,13.09841,0,0,1-10.231-2.688,42.86073,42.86073,0,0,0,4.9647,1.9191A42.869,42.869,0,0,0,101.7408,421.666Z" transform="translate(-27.4854 -280.40309)"/><path class="cls-5" d="M95.3454,416.4489a7.05112,7.05112,0,0,1,4.4118,1.1048,6.64862,6.64862,0,0,1-2.241-.4127A6.64282,6.64282,0,0,1,95.3454,416.4489Z" transform="translate(-27.4854 -280.40309)"/><path class="cls-1" d="M48.3116,424.2982l25.2307-12.3493a1.26446,1.26446,0,0,1,1.2823.0997l27.7394,17.6276a1.35778,1.35778,0,0,1,.2591,1.9704l-14.6637,19.623Z" transform="translate(-27.4854 -280.40309)"/><polygon class="cls-2" points="23.973 144.801 57.93 167.159 73.358 149.959 46.626 133.358 23.973 144.801"/><polygon class="cls-8" points="37.17 138.134 66.322 157.803 57.93 167.159 23.973 144.801 37.17 138.134"/><path class="cls-8" d="M79.5569,419.1152l-4.4578,3.6223a.68829.68829,0,0,1-.9682-.1001h0a.68829.68829,0,0,1,.1001-.9682l4.4578-3.6224a.68829.68829,0,0,1,.9682.1001h0A.68842.68842,0,0,1,79.5569,419.1152Z" transform="translate(-27.4854 -280.40309)"/><path class="cls-8" d="M81.5741,420.7588l-4.4577,3.6223a.68822.68822,0,0,1-.9683-.1001h0a.68829.68829,0,0,1,.1001-.9682l4.4578-3.6224a.68829.68829,0,0,1,.9682.1001h0A.68831.68831,0,0,1,81.5741,420.7588Z" transform="translate(-27.4854 -280.40309)"/><path class="cls-8" d="M83.7318,422.6823l-4.4578,3.6224a.68842.68842,0,0,1-.9683-.1001h0a.6884.6884,0,0,1,.1001-.9683l4.4578-3.6223a.68824.68824,0,0,1,.9683.1001h0A.68829.68829,0,0,1,83.7318,422.6823Z" transform="translate(-27.4854 -280.40309)"/><path class="cls-8" d="M84.6178,425.2924l-2.5271,2.0534a.6882.6882,0,0,1-.9682-.1001h0a.68829.68829,0,0,1,.1001-.9682l2.527-2.0535a.68841.68841,0,0,1,.9683.1001h0A.6884.6884,0,0,1,84.6178,425.2924Z" transform="translate(-27.4854 -280.40309)"/><path class="cls-3" d="M75.8105,418.5106l-2.9395,2.0619a.68835.68835,0,0,1-.9588-.1682h0a.68817.68817,0,0,1,.1683-.9587l2.9395-2.062a.68835.68835,0,0,1,.9588.1682h0A.68837.68837,0,0,1,75.8105,418.5106Z" transform="translate(-27.4854 -280.40309)"/><path class="cls-3" d="M90.9614,428.3703l-2.539,2.5389a.68829.68829,0,0,1-.9734,0h0a.68829.68829,0,0,1,0-.9734l2.539-2.5389a.68829.68829,0,0,1,.9734,0h0A.68829.68829,0,0,1,90.9614,428.3703Z" transform="translate(-27.4854 -280.40309)"/><path class="cls-1" d="M88.1594,451.2696v.0001a2.22775,2.22775,0,0,1-3.0771.676L47.9959,428.2195a2.22779,2.22779,0,0,1-.676-3.0772h0a2.22775,2.22775,0,0,1,3.0771-.676l37.0864,23.7262A2.22768,2.22768,0,0,1,88.1594,451.2696Z" transform="translate(-27.4854 -280.40309)"/><path class="cls-6" d="M372.99089,378.5432l1.0818-26.4243s27.0454-5.8596,27.7211-10.7237l-50.9831-5.8526-3.375,41.1035Z" transform="translate(-27.4854 -280.40309)"/><g class="cls-9"><path class="cls-2" d="M358.08239,353.1182a2.09574,2.09574,0,0,1-1.2611-2.4954,2.01453,2.01453,0,0,1,2.46271-1.2718,2.21008,2.21008,0,0,1,1.32169,2.6495,2.08971,2.08971,0,0,1-2.7081,1.0391" transform="translate(-27.4854 -280.40309)"/></g><path class="cls-1" d="M350.81049,335.5424l-.3402,4.1435,49.4263,3.9351a3.546,3.546,0,0,0,2.1966-2.5676Z" transform="translate(-27.4854 -280.40309)"/><path class="cls-1" d="M374.88179,352.443c.0111-.2504-1.2293-.4599-2.3965-1.3579-1.19129-.8673-1.7416-1.9982-1.9789-1.9169-.234.0307.0234,1.5529,1.456,2.6153C373.38529,352.8581,374.91849,352.6763,374.88179,352.443Z" transform="translate(-27.4854 -280.40309)"/><path class="cls-1" d="M380.41869,350.6365c.0761-.2376-.9733-.7457-1.7406-1.8677-.80009-1.099-.9263-2.2584-1.1755-2.2664-.232-.0574-.51759,1.3925.4629,2.7692C378.93339,350.6565,380.395,350.8743,380.41869,350.6365Z" transform="translate(-27.4854 -280.40309)"/><path class="cls-1" d="M383.96049,344.4487c-.2228-.0706-.6663,1.1508-.1301,2.5685.5259,1.4214,1.6625,2.0517,1.7843,1.8517.1568-.1947-.5451-.987-.9675-2.1576C384.19739,345.5514,384.207,344.4928,383.96049,344.4487Z" transform="translate(-27.4854 -280.40309)"/><path class="cls-1" d="M373.96709,358.4376c-.0869-.2356-1.2595.0208-2.6643-.1837-1.4087-.176-2.471-.7344-2.6177-.5304-.1585.1695.843,1.1768,2.5008,1.3944C372.84149,359.3483,374.07509,358.6434,373.96709,358.4376Z" transform="translate(-27.4854 -280.40309)"/><g class="cls-7"><path d="M372.99089,378.5432l1.0818-26.4243s27.0454-5.8596,27.7211-10.7237l-50.9831-5.8526-3.375,41.1035Z" transform="translate(-27.4854 -280.40309)"/></g><path class="cls-1" d="M377.27679,359.1636c-.4117.8234-3.4807,77.5396-3.4807,77.5396L347.387,426.2835a41.53589,41.53589,0,0,1-3.84951-20.6623c.8234-11.9387,7.8219-48.5784,7.8219-48.5784Z" transform="translate(-27.4854 -280.40309)"/><path class="cls-6" d="M370.23459,380.2221l-12.7677-23.1604s20.0946-19.0262,18.1519-23.5364l-46.6367,21.4135,18.413,36.9033Z" transform="translate(-27.4854 -280.40309)"/><g class="cls-9"><path class="cls-2" d="M344.30889,366.2025a2.09587,2.09587,0,0,1-2.3718-1.4808,2.0147,2.0147,0,0,1,1.4472-2.3639,2.21015,2.21015,0,0,1,2.5034,1.5812,2.08975,2.08975,0,0,1-1.77769,2.2921" transform="translate(-27.4854 -280.40309)"/></g><path class="cls-1" d="M328.98179,354.9388l1.85621,3.72,44.31159-22.2467a3.546,3.546,0,0,0,.5482-3.3342Z" transform="translate(-27.4854 -280.40309)"/><path class="cls-1" d="M358.32689,356.9196c-.1203-.2199-1.2897.2438-2.7534.0806-1.4682-.1245-2.5249-.8065-2.6857-.614-.1842.1475.8247,1.3159,2.6005,1.4822C357.262,358.0502,358.47919,357.1002,358.32689,356.9196Z" transform="translate(-27.4854 -280.40309)"/><path class="cls-1" d="M362.12629,352.5055c-.0581-.2427-1.2189-.1334-2.4565-.6955-1.25379-.5253-1.9625-1.4514-2.1799-1.3292-.2281.0712.2789,1.4592,1.831,2.1286C360.86629,353.2922,362.22919,352.7211,362.12629,352.5055Z" transform="translate(-27.4854 -280.40309)"/><path class="cls-1" d="M361.949,345.3779c-.22721.0551.02639,1.3296,1.21959,2.2642,1.18641.9431,2.4852.8933,2.4856.6591.0333-.2478-.9777-.5617-1.9455-1.344C362.723,346.1983,362.18259,345.2879,361.949,345.3779Z" transform="translate(-27.4854 -280.40309)"/><path class="cls-1" d="M360.65089,362.5206c-.1964-.1564-1.0664.6705-2.37389,1.2236-1.296.5794-2.49391.6523-2.51361.9028-.0478.2271,1.3307.5696,2.8614-.1034C360.16009,363.8828,360.85,362.6407,360.65089,362.5206Z" transform="translate(-27.4854 -280.40309)"/><g class="cls-7"><polygon points="340.215 95.235 337.945 91.105 315.541 102.684 317.427 106.486 340.215 95.235"/></g><path class="cls-1" d="M242.08339,413.9374l7.3849-2.3468s13.5855-10.9095,28.81771-9.4687a75.56272,75.56272,0,0,1,27.58269,8.6035l15.8497,8.6872,40.7564,10.9095L339.009,374.951l23.17159-9.6071s23.1618,37.2985,30.16041,47.7964c6.99859,10.4978,12.32349,21.1021,13.14679,29.7474.8234,8.6454-5.67879,20.7553-23.5869,22.8137-17.9082,2.0584-94.55789-3.0623-94.55789-3.0623l-58.96771-1.7025Z" transform="translate(-27.4854 -280.40309)"/><path class="cls-6" d="M242.08339,413.9374s-.0689.2796-.2186.8146q-.23068.813-.6741,2.3765c-.60269,2.0972-1.4915,5.1895-2.6468,9.2096-2.3273,8.0412-5.7265,19.7859-10.0255,34.6401l-.1387-.1905c12.1636.338,26.3608.7325,42.2507,1.174,15.904.1766,33.44861,1.6338,52.367,2.5058,9.4588.4672,19.2581.9037,29.3561,1.2007,5.0491.1364,10.1728.2516,15.364.2625,2.5952-.0123,5.2087.0025,7.8328-.1054,1.3133-.0336,2.6306-.0691,3.9425-.1932a34.56016,34.56016,0,0,0,3.9375-.4235,29.0653,29.0653,0,0,0,14.5664-6.156,19.70543,19.70543,0,0,0,7.271-14.0553,19.09016,19.09016,0,0,0-.0359-2.0501c-.0901-.6833-.1487-1.3729-.2774-2.0532a35.28339,35.28339,0,0,0-.9367-4.0584,57.36241,57.36241,0,0,0-2.9566-7.866A112.10843,112.10843,0,0,0,392.675,414.124c-5.44561-8.2498-10.61011-16.5293-15.72911-24.6495q-7.62525-12.2136-14.9815-23.9962l.31361.1007q-11.83607,4.9038-23.17391,9.6011l.1333-.3258c8.3519,19.7322,16.2093,38.2959,23.441,55.3814l.1767.4174-.4375-.1174c-14.7269-3.9539-28.3509-7.6116-40.7481-10.94l-.0224-.006-.0199-.011q-6.3384-3.4818-12.2153-6.7103c-1.9671-1.0597-3.8566-2.1659-5.7631-3.1214q-2.8713-1.42185-5.7254-2.5534a68.5269,68.5269,0,0,0-21.4956-5.0268,35.26183,35.26183,0,0,0-9.1601.9693,47.51281,47.51281,0,0,0-7.5258,2.5702,51.68906,51.68906,0,0,0-10.2361,5.9308l-.01.0074-.0095.003c-2.508.7822-4.3512,1.357-5.5772,1.7394-1.222.3776-1.8257.5505-1.8257.5505s.5743-.2015,1.78761-.5977c1.22639-.397,3.07029-.9939,5.57909-1.8059l-.01909.0102a51.09781,51.09781,0,0,1,10.23309-6.0142,47.46965,47.46965,0,0,1,7.5497-2.6151,35.42022,35.42022,0,0,1,9.2223-1.0092,68.62086,68.62086,0,0,1,21.607,4.9873q2.86155,1.1334,5.7565,2.5514c1.9255.96,3.8173,2.0625,5.7846,3.1168q5.8779,3.21435,12.2252,6.6853l-.0419-.0169c12.4022,3.3099,26.0316,6.9472,40.7644,10.8791l-.2607.2998c-7.247-17.0791-15.1209-35.6358-23.4905-55.3604l-.09769-.2302.23109-.0959q11.33265-4.7019,23.16891-9.6129l.19919-.0826.1146.1834q7.35015,11.7648,14.9876,23.9895c5.1199,8.1179,10.285,16.3963,15.7258,24.6387a112.54415,112.54415,0,0,1,8.424,14.9164,57.8423,57.8423,0,0,1,2.9819,7.9384,35.77074,35.77074,0,0,1,.9488,4.1158c.1304.6914.1907,1.3943.2819,2.0908a19.5695,19.5695,0,0,1,.03721,2.1184,20.21452,20.21452,0,0,1-7.45761,14.4263,29.5615,29.5615,0,0,1-14.8188,6.2635,34.99634,34.99634,0,0,1-3.9769.4261c-1.3253.1243-2.6465.1592-3.9636.1922-2.6345.1068-5.2508.0904-7.8504.1011-5.1984-.0141-10.3254-.1329-15.3774-.2731-10.1031-.3048-19.9044-.75-29.365-1.227-18.9274-.8919-36.46-2.3722-52.3604-2.5758-15.887-.476-30.0815-.9012-42.2428-1.2655l-.19309-.0058.05429-.1849c4.3674-14.8595,7.8206-26.6084,10.1848-34.6524,1.1845-4.0023,2.0956-7.081,2.7136-9.1689q.4632-1.5453.7044-2.35C241.99479,414.1977,242.08339,413.9374,242.08339,413.9374Z" transform="translate(-27.4854 -280.40309)"/><path class="cls-6" d="M359.66549,429.4255a3.39085,3.39085,0,0,1,.9486.125c.6044.1087,1.4706.3036,2.539.5563a42.22886,42.22886,0,0,1,8.1217,2.7964,19.24182,19.24182,0,0,1,6.8178,5.2164,11.4655,11.4655,0,0,1,.8821,1.2023,7.59124,7.59124,0,0,1,.5854.959,3.37739,3.37739,0,0,1,.4074.8669c-.0891.0535-.7328-1.1529-2.1564-2.7908a20.63794,20.63794,0,0,0-6.7635-4.9852,52.2594,52.2594,0,0,0-7.9898-2.9094A28.34391,28.34391,0,0,1,359.66549,429.4255Z" transform="translate(-27.4854 -280.40309)"/><path class="cls-4" d="M105.1544,446.861s-10.4497-5.9395-12.4884-6.0631c-2.905-.176-15.7134.2641-17.2829.1585a1.54938,1.54938,0,0,0-1.3946,2.3934c.5945,1.0018,2.0384,2.6195,6.0014,2.5205a18.32769,18.32769,0,0,1,7.2323.9907c.9907.3963.7058,1.6129.7058,1.6129s-5.7505.3013-7.4218-.0887c-2.2934-.5351-9.8847-5.6909-9.8847-5.6909l-3.03-1.9384s-1.268,1.5427.7134,4.4158a49.91228,49.91228,0,0,0,4.4573,5.4476s-2.7195,1.7106-.3415,4.331c0,0-1.7488,3.2952,2.2303,5.223a9.87436,9.87436,0,0,0,2.5958,3.6838c1.2088.9697,4.2722.7865,6.1539.8988a47.26719,47.26719,0,0,0,8.3789-.6562,70.98565,70.98565,0,0,0,7.3749-1.9467l9.4634.5391.8618-16.1341Z" transform="translate(-27.4854 -280.40309)"/><path class="cls-5" d="M78.8044,453.9697a10.59718,10.59718,0,0,1-3.6451-1.4257,10.59474,10.59474,0,0,1-3.1974-2.2581,24.62791,24.62791,0,0,1,3.4442,1.7996A24.627,24.627,0,0,1,78.8044,453.9697Z" transform="translate(-27.4854 -280.40309)"/><path class="cls-5" d="M77.55,457.5825a6.42678,6.42678,0,0,1-2.9475-.9782,6.4258,6.4258,0,0,1-2.4788-1.8716,17.27768,17.27768,0,0,1,2.7209,1.4105A17.27359,17.27359,0,0,1,77.55,457.5825Z" transform="translate(-27.4854 -280.40309)"/><path class="cls-5" d="M77.7725,461.4553a4.81229,4.81229,0,0,1-2.6252-.7224,4.811,4.811,0,0,1-2.1535-1.6665,14.5145,14.5145,0,0,1,2.3863,1.2007A14.4995,14.4995,0,0,1,77.7725,461.4553Z" transform="translate(-27.4854 -280.40309)"/><g class="cls-7"><path d="M182.34759,447.2456c5.3402-6.9686,8.0839-15.6456,9.1963-24.3543,1.1124-8.7088.8468-16.9821.4206-25.7512A286.46806,286.46806,0,0,1,182.34759,447.2456Z" transform="translate(-27.4854 -280.40309)"/></g><path class="cls-3" d="M192.88659,386.9842c.0913.8902.0153-1.9396-.0054-.9525-.2506,11.9519-7.2955,62.8862-16.4395,72.7984-6.979,7.5653-72.42379,4.3469-72.42379,4.3469l.7205-17.0436s1.7664-.5126,13.5162-1.9813,35.71169-7.639,35.71169-7.639l8.0675-53.2961" transform="translate(-27.4854 -280.40309)"/><path class="cls-1" d="M162.03379,383.217s-.0283.3274-.1137.9599q-.1368.9738-.3934,2.8003c-.3613,2.4733-.8883,6.0815-1.5632,10.7015-1.3823,9.2751-3.368,22.5992-5.7923,38.8653l-.02019.1358-.13311.034c-7.006,1.7864-14.67859,3.648-22.91739,5.3885-4.1218.8564-8.3826,1.7009-12.8085,2.2923-4.3971.5818-8.9737,1.0994-13.4829,1.9819l.1822-.2323c-.2278,5.4327-.4689,11.1818-.7147,17.0436l-.2458-.2694c4.6197.2131,9.5219.374,14.4853.4929,9.3615.2164,18.5067.27,27.3303.0274,4.4111-.1254,8.74249-.3255,12.97069-.6716a80.929,80.929,0,0,0,12.2857-1.7708,22.07024,22.07024,0,0,0,2.8471-.9064,6.36487,6.36487,0,0,0,2.4083-1.5289,20.51951,20.51951,0,0,0,3.0064-4.9148,76.99719,76.99719,0,0,0,3.7722-10.4833c2.00521-6.9235,3.4087-13.5032,4.5853-19.5214,2.3088-12.0509,3.6218-21.904,4.3817-28.7218.37621-3.4103.5971-6.0659.6891-7.869q.0312-.6741.05511-1.193l.00419-.0361c.0006.0115-.0087-.0316.0483-.0386.02751.0053.0203.0138.0298.024a.07438.07438,0,0,1,.0069.0284l.0053.0651.0052.1217.0054.2266.0024.3901c-.0161.2326.0266.4059-.0532.5269a.534.534,0,0,1-.0157-.1816,1.14526,1.14526,0,0,1,.035.1686c-.0211-.0982-.0062-.2859-.0194-.5131l-.0153-.3888-.01189-.2253-.00841-.1197-.0063-.0592c-.0104-.0102-.0007-.0007.069-.0105l-.0022.0275q-.01275.5181-.0293,1.1914c-.0583,1.8081-.2469,4.4694-.5924,7.8857-.6986,6.8306-1.9567,16.6969-4.2216,28.77-1.155,6.0301-2.5389,12.6222-4.5323,19.5728a77.17149,77.17149,0,0,1-3.7719,10.5563,20.9258,20.9258,0,0,1-3.0724,5.0351,6.81148,6.81148,0,0,1-2.5765,1.6538,22.48787,22.48787,0,0,1-2.9099.9326,81.12189,81.12189,0,0,1-12.3625,1.8014c-4.2407.3522-8.57969.5568-12.99739.6859-8.8362.2499-17.9887.1998-27.3571-.0168-4.9678-.119-9.8705-.2808-14.4985-.4963l-.257-.0121.011-.2576c.2498-5.8616.4947-11.6105.7262-17.043l.0083-.1956.1742-.037c2.3318-.4955,4.5924-.7803,6.8588-1.1079q3.39165-.44265,6.7042-.8747c4.3989-.5816,8.6569-1.4179,12.7734-2.2655,8.2307-1.723,15.9064-3.5661,22.91019-5.3298l-.1531.1695c2.49851-16.2548,4.5451-29.5697,5.9698-38.8384.72271-4.6127,1.2871-8.2152,1.674-10.6847q.29535-1.81965.453-2.7913C161.964,383.5381,162.03379,383.217,162.03379,383.217Z" transform="translate(-27.4854 -280.40309)"/></g></svg>